LeutkirchSans-Regular.ufo
<glyph name="exclam" format="2">
	<unicode hex="0021"/>
	<advance width="293"/>
	<outline>
		<contour>
			<point x="181" y="751" type="line"/>
			<point x="101" y="751" type="line"/>
			<point x="107" y="210" type="line"/>
			<point x="175" y="210" type="line"/>
		</contour>
		<contour>
			<point x="192" y="-34" type="line"/>
			<point x="192" y="73" type="line"/>
			<point x="92" y="73" type="line"/>
			<point x="92" y="-34" type="line"/>
		</contour>
	</outline>
</glyph>
<glyph name="quotedbl" format="2">
	<unicode hex="0022"/>
	<advance width="370"/>
	<outline>
		<contour>
			<point x="297" y="771" type="line"/>
			<point x="209" y="771" type="line"/>
			<point x="223" y="548" type="line"/>
			<point x="282" y="548" type="line"/>
		</contour>
		<contour>
			<point x="164" y="771" type="line"/>
			<point x="75" y="771" type="line"/>
			<point x="91" y="548" type="line"/>
			<point x="150" y="548" type="line"/>
		</contour>
	</outline>
</glyph>
<glyph name="numbersign" format="2">
	<unicode hex="0023"/>
	<advance width="595"/>
	<outline>
		<contour>
			<point x="528" y="450" type="line"/>
			<point x="420" y="450" type="line"/>
			<point x="472" y="672" type="line"/>
			<point x="407" y="672" type="line"/>
			<point x="355" y="450" type="line"/>
			<point x="258" y="450" type="line"/>
			<point x="309" y="672" type="line"/>
			<point x="244" y="672" type="line"/>
			<point x="193" y="450" type="line"/>
			<point x="91" y="450" type="line"/>
			<point x="77" y="391" type="line"/>
			<point x="181" y="391" type="line"/>
			<point x="159" y="296" type="line"/>
			<point x="56" y="296" type="line"/>
			<point x="43" y="237" type="line"/>
			<point x="147" y="237" type="line"/>
			<point x="96" y="17" type="line"/>
			<point x="161" y="17" type="line"/>
			<point x="212" y="237" type="line"/>
			<point x="308" y="237" type="line"/>
			<point x="259" y="17" type="line"/>
			<point x="323" y="17" type="line"/>
			<point x="373" y="237" type="line"/>
			<point x="480" y="237" type="line"/>
			<point x="494" y="296" type="line"/>
			<point x="385" y="296" type="line"/>
			<point x="408" y="391" type="line"/>
			<point x="515" y="391" type="line"/>
		</contour>
		<contour>
			<point x="343" y="391" type="line"/>
			<point x="321" y="296" type="line"/>
			<point x="224" y="296" type="line"/>
			<point x="246" y="391" type="line"/>
		</contour>
	</outline>
</glyph>
<glyph name="dollar" format="2">
	<unicode hex="0024"/>
	<advance width="504"/>
	<outline>
		<contour>
			<point x="266" y="55" type="curve"/>
			<point x="266" y="319" type="line"/>
			<point x="312.123" y="284.408"/>
			<point x="360" y="263.154"/>
			<point x="360" y="184" type="curve" smooth="yes"/>
			<point x="360" y="114.951"/>
			<point x="322.866" y="64.4777"/>
		</contour>
		<contour>
			<point x="211" y="341" type="curve"/>
			<point x="211" y="55" type="line"/>
			<point x="163.397" y="63.6551"/>
			<point x="129" y="104.552"/>
			<point x="129" y="156" type="curve"/>
			<point x="46" y="156" type="line"/>
			<point x="54.0649" y="65.2698"/>
			<point x="112.497" y="9.88026"/>
			<point x="211" y="2" type="curve"/>
			<point x="211" y="-83" type="line"/>
			<point x="266" y="-83" type="line"/>
			<point x="266" y="2" type="line"/>
			<point x="367.662" y="13.9602"/>
			<point x="436" y="74.5351"/>
			<point x="436" y="191" type="curve" smooth="yes"/>
			<point x="436" y="312.906"/>
			<point x="351.755" y="345.887"/>
			<point x="266" y="384" type="curve"/>
			<point x="266" y="652" type="line"/>
			<point x="310.362" y="643.128"/>
			<point x="342.173" y="600.677"/>
			<point x="344" y="555" type="curve"/>
			<point x="425" y="555" type="line"/>
			<point x="425" y="639.602"/>
			<point x="346.657" y="698.318"/>
			<point x="266" y="706" type="curve"/>
			<point x="266" y="781" type="line"/>
			<point x="211" y="781" type="line"/>
			<point x="211" y="705" type="line"/>
			<point x="119.375" y="692.783"/>
			<point x="55" y="634.774"/>
			<point x="55" y="533" type="curve" smooth="yes"/>
			<point x="55" y="415.53"/>
			<point x="121.254" y="367.924"/>
		</contour>
		<contour>
			<point x="211" y="653" type="curve"/>
			<point x="211" y="406" type="line"/>
			<point x="158.113" y="432.443"/>
			<point x="130" y="459.431"/>
			<point x="130" y="537" type="curve" smooth="yes"/>
			<point x="130" y="602.953"/>
			<point x="158.863" y="638.104"/>
		</contour>
	</outline>
</glyph>
<glyph name="percent" format="2">
	<unicode hex="0025"/>
	<advance width="796"/>
	<outline>
		<contour>
			<point x="547" y="678" type="line"/>
			<point x="479" y="678" type="line"/>
			<point x="218" y="20" type="line"/>
			<point x="286" y="20" type="line"/>
		</contour>
		<contour>
			<point x="257" y="476" type="curve" smooth="yes"/>
			<point x="257" y="408.702"/>
			<point x="235.321" y="331"/>
			<point x="178" y="331" type="curve" smooth="yes"/>
			<point x="121.356" y="331"/>
			<point x="101" y="410.295"/>
			<point x="101" y="476" type="curve" smooth="yes"/>
			<point x="101" y="541.058"/>
			<point x="120.596" y="623"/>
			<point x="178" y="623" type="curve" smooth="yes"/>
			<point x="235.943" y="623"/>
			<point x="257" y="542.276"/>
		</contour>
		<contour>
			<point x="329" y="476" type="curve" smooth="yes"/>
			<point x="329" y="582.008"/>
			<point x="281.73" y="678"/>
			<point x="178" y="678" type="curve" smooth="yes"/>
			<point x="73.4689" y="678"/>
			<point x="29" y="581.255"/>
			<point x="29" y="476" type="curve" smooth="yes"/>
			<point x="29" y="370.522"/>
			<point x="73.8628" y="276"/>
			<point x="178" y="276" type="curve" smooth="yes"/>
			<point x="281.313" y="276"/>
			<point x="329" y="369.778"/>
		</contour>
		<contour>
			<point x="666" y="220" type="curve" smooth="yes"/>
			<point x="666" y="152.702"/>
			<point x="644.321" y="75"/>
			<point x="587" y="75" type="curve" smooth="yes"/>
			<point x="530.356" y="75"/>
			<point x="510" y="154.295"/>
			<point x="510" y="220" type="curve" smooth="yes"/>
			<point x="510" y="285.058"/>
			<point x="529.596" y="367"/>
			<point x="587" y="367" type="curve" smooth="yes"/>
			<point x="644.943" y="367"/>
			<point x="666" y="286.276"/>
		</contour>
		<contour>
			<point x="738" y="220" type="curve" smooth="yes"/>
			<point x="738" y="326.008"/>
			<point x="690.73" y="422"/>
			<point x="587" y="422" type="curve" smooth="yes"/>
			<point x="482.469" y="422"/>
			<point x="438" y="325.255"/>
			<point x="438" y="220" type="curve" smooth="yes"/>
			<point x="438" y="114.522"/>
			<point x="482.863" y="20"/>
			<point x="587" y="20" type="curve" smooth="yes"/>
			<point x="690.313" y="20"/>
			<point x="738" y="113.778"/>
		</contour>
	</outline>
</glyph>
<glyph name="ampersand" format="2">
	<unicode hex="0026"/>
	<advance width="688"/>
	<outline>
		<contour>
			<point x="659" y="7" type="line"/>
			<point x="541" y="162" type="line"/>
			<point x="626" y="257" type="line"/>
			<point x="573" y="304" type="line"/>
			<point x="499" y="215" type="line"/>
			<point x="348" y="413" type="line"/>
			<point x="398.464" y="446.643"/>
			<point x="477" y="505.293"/>
			<point x="477" y="586" type="curve" smooth="yes"/>
			<point x="473.254" y="672.165"/>
			<point x="408.017" y="721"/>
			<point x="320" y="721" type="curve" smooth="yes"/>
			<point x="236.984" y="721"/>
			<point x="169.279" y="666.75"/>
			<point x="169.279" y="585.997" type="curve" smooth="yes"/>
			<point x="169.279" y="515.111"/>
			<point x="206.037" y="475.415"/>
			<point x="247" y="425" type="curve"/>
			<point x="177.571" y="369.457"/>
			<point x="66.6906" y="310.665"/>
			<point x="66.6906" y="180.272" type="curve" smooth="yes"/>
			<point x="66.6906" y="72.8876"/>
			<point x="153.925" y="-4.29803"/>
			<point x="258.771" y="-4.29803" type="curve" smooth="yes"/>
			<point x="365.244" y="-4.29803"/>
			<point x="435.984" y="52.9837"/>
			<point x="491" y="108" type="curve"/>
			<point x="567" y="7" type="line"/>
		</contour>
		<contour>
			<point x="402" y="592" type="curve" smooth="yes"/>
			<point x="402" y="534.384"/>
			<point x="338.514" y="481.619"/>
			<point x="305" y="463" type="curve"/>
			<point x="285.86" y="487.36"/>
			<point x="247" y="542.437"/>
			<point x="247" y="586" type="curve" smooth="yes"/>
			<point x="247" y="627.483"/>
			<point x="278.885" y="669"/>
			<point x="321" y="669" type="curve" smooth="yes"/>
			<point x="363.518" y="669"/>
			<point x="402" y="633.183"/>
		</contour>
		<contour>
			<point x="451" y="160" type="line"/>
			<point x="413.75" y="117.019"/>
			<point x="339.164" y="55.9318"/>
			<point x="270.707" y="55.9318" type="curve" smooth="yes"/>
			<point x="201.406" y="55.9318"/>
			<point x="144.917" y="112.3"/>
			<point x="144.917" y="181.728" type="curve" smooth="yes"/>
			<point x="144.917" y="277.78"/>
			<point x="229.307" y="334.376"/>
			<point x="288" y="372" type="curve"/>
		</contour>
	</outline>
</glyph>
<glyph name="quotesingle" format="2">
	<unicode hex="0027"/>
	<advance width="302"/>
	<outline>
		<contour>
			<point x="162" y="771" type="line"/>
			<point x="74" y="771" type="line"/>
			<point x="89" y="548" type="line"/>
			<point x="148" y="548" type="line"/>
		</contour>
	</outline>
</glyph>
<glyph name="parenleft" format="2">
	<unicode hex="0028"/>
	<advance width="353"/>
	<outline>
		<contour>
			<point x="204" y="234" type="curve" smooth="yes"/>
			<point x="204" y="424" type="line" smooth="yes"/>
			<point x="204" y="545.85"/>
			<point x="217.429" y="709.874"/>
			<point x="297" y="752" type="curve"/>
			<point x="297" y="800" type="line"/>
			<point x="151.749" y="758.5"/>
			<point x="127" y="573.947"/>
			<point x="127" y="392" type="curve" smooth="yes"/>
			<point x="127" y="266" type="line" smooth="yes"/>
			<point x="127" y="84.1881"/>
			<point x="152.059" y="-99.5882"/>
			<point x="297" y="-141" type="curve"/>
			<point x="297" y="-93" type="line"/>
			<point x="217.587" y="-50.9576"/>
			<point x="204" y="111.588"/>
		</contour>
	</outline>
</glyph>
<glyph name="parenright" format="2">
	<unicode hex="0029"/>
	<advance width="340"/>
	<outline>
		<contour>
			<point x="136" y="234" type="line" smooth="yes"/>
			<point x="136" y="110.175"/>
			<point x="121.041" y="-49.1021"/>
			<point x="43" y="-93" type="curve"/>
			<point x="43" y="-141" type="line"/>
			<point x="187.014" y="-98.8496"/>
			<point x="213" y="83.6062"/>
			<point x="213" y="266" type="curve" smooth="yes"/>
			<point x="213" y="392" type="line" smooth="yes"/>
			<point x="213" y="574.474"/>
			<point x="187.294" y="757.768"/>
			<point x="43" y="800" type="curve"/>
			<point x="43" y="752" type="line"/>
			<point x="121.185" y="708.021"/>
			<point x="136" y="547.221"/>
			<point x="136" y="424" type="curve" smooth="yes"/>
		</contour>
	</outline>
</glyph>
<glyph name="plus" format="2">
  <advance width="516"/>
  <unicode hex="002B"/>
  <outline>
    <contour>
      <point x="471" y="329" type="line"/>
      <point x="471" y="394" type="line"/>
      <point x="292" y="394" type="line"/>
      <point x="292" y="596" type="line"/>
      <point x="224" y="596" type="line"/>
      <point x="224" y="394" type="line"/>
      <point x="46" y="394" type="line"/>
      <point x="46" y="329" type="line"/>
      <point x="224" y="329" type="line"/>
      <point x="224" y="128" type="line"/>
      <point x="292" y="128" type="line"/>
      <point x="292" y="329" type="line"/>
    </contour>
  </outline>
</glyph>
<glyph name="comma" format="2">
	<unicode hex="002C"/>
	<advance width="224"/>
	<outline>
		<contour>
			<point x="167" y="81" type="line"/>
			<point x="72" y="81" type="line"/>
			<point x="51" y="-143" type="line"/>
			<point x="117" y="-143" type="line"/>
		</contour>
	</outline>
</glyph>
<glyph name="hyphen" format="2">
  <advance width="379"/>
  <unicode hex="002D"/>
  <outline>
    <contour>
      <point x="334" y="325" type="line"/>
      <point x="334" y="397" type="line"/>
      <point x="43" y="397" type="line"/>
      <point x="43" y="325" type="line"/>
    </contour>
  </outline>
</glyph>
<glyph name="period" format="2">
	<unicode hex="002E"/>
	<advance width="224"/>
	<outline>
		<contour>
			<point x="162" y="-34" type="line"/>
			<point x="162" y="73" type="line"/>
			<point x="62" y="73" type="line"/>
			<point x="62" y="-34" type="line"/>
		</contour>
	</outline>
</glyph>
<glyph name="slash" format="2">
	<unicode hex="002F"/>
	<advance width="357"/>
	<outline>
		<contour>
			<point x="316" y="792" type="line"/>
			<point x="245" y="792" type="line"/>
			<point x="28" y="-133" type="line"/>
			<point x="98" y="-133" type="line"/>
		</contour>
	</outline>
</glyph>
<glyph name="zero" format="2">
	<unicode hex="0030"/>
	<advance width="490"/>
	<outline>
		<contour>
			<point x="245" y="54" type="curve" smooth="yes"/>
			<point x="136.446" y="54"/>
			<point x="124" y="235.328"/>
			<point x="124" y="351" type="curve" smooth="yes"/>
			<point x="124" y="465.629"/>
			<point x="136.583" y="648"/>
			<point x="245" y="648" type="curve" smooth="yes"/>
			<point x="353.742" y="648"/>
			<point x="366" y="466.328"/>
			<point x="366" y="351" type="curve" smooth="yes"/>
			<point x="366" y="233.951"/>
			<point x="352.799" y="54"/>
		</contour>
		<contour>
			<point x="245" y="-11" type="curve" smooth="yes"/>
			<point x="404.115" y="-11"/>
			<point x="443" y="184.658"/>
			<point x="443" y="351" type="curve" smooth="yes"/>
			<point x="443" y="515.912"/>
			<point x="404.139" y="713"/>
			<point x="245" y="713" type="curve" smooth="yes"/>
			<point x="84.4693" y="713"/>
			<point x="47" y="515.895"/>
			<point x="47" y="351" type="curve" smooth="yes"/>
			<point x="47" y="184.638"/>
			<point x="84.4509" y="-11"/>
		</contour>
	</outline>
</glyph>
<glyph name="two" format="2">
	<unicode hex="0032"/>
	<advance width="490"/>
	<outline>
		<contour>
			<point x="438" y="6" type="line"/>
			<point x="438" y="76" type="line"/>
			<point x="152" y="76" type="line"/>
			<point x="208" y="135"/>
			<point x="259" y="192"/>
			<point x="304" y="248" type="curve" smooth="yes"/>
			<point x="348" y="302"/>
			<point x="382" y="356"/>
			<point x="405" y="410" type="curve" smooth="yes"/>
			<point x="411" y="424"/>
			<point x="416" y="440"/>
			<point x="420" y="460" type="curve" smooth="yes"/>
			<point x="423" y="478"/>
			<point x="425" y="498"/>
			<point x="425" y="518" type="curve" smooth="yes"/>
			<point x="425" y="548"/>
			<point x="420" y="574"/>
			<point x="412" y="598" type="curve" smooth="yes"/>
			<point x="403" y="621"/>
			<point x="391" y="641"/>
			<point x="375" y="659" type="curve" smooth="yes"/>
			<point x="359" y="675"/>
			<point x="340" y="688"/>
			<point x="317" y="697" type="curve" smooth="yes"/>
			<point x="293" y="705"/>
			<point x="270" y="710"/>
			<point x="248" y="710" type="curve" smooth="yes"/>
			<point x="211" y="710"/>
			<point x="179" y="703"/>
			<point x="153" y="690" type="curve" smooth="yes"/>
			<point x="126" y="676"/>
			<point x="106" y="660"/>
			<point x="94" y="641" type="curve" smooth="yes"/>
			<point x="71" y="606"/>
			<point x="60" y="564"/>
			<point x="60" y="516" type="curve"/>
			<point x="138" y="516" type="line"/>
			<point x="138" y="558"/>
			<point x="146" y="590"/>
			<point x="164" y="613" type="curve" smooth="yes"/>
			<point x="182" y="637"/>
			<point x="209" y="649"/>
			<point x="246" y="649" type="curve" smooth="yes"/>
			<point x="264" y="649"/>
			<point x="280" y="644"/>
			<point x="294" y="636" type="curve" smooth="yes"/>
			<point x="306" y="626"/>
			<point x="317" y="615"/>
			<point x="326" y="602" type="curve" smooth="yes"/>
			<point x="334" y="589"/>
			<point x="340" y="575"/>
			<point x="344" y="559" type="curve" smooth="yes"/>
			<point x="347" y="542"/>
			<point x="349" y="528"/>
			<point x="349" y="518" type="curve" smooth="yes"/>
			<point x="349" y="488"/>
			<point x="344" y="459"/>
			<point x="334" y="430" type="curve" smooth="yes"/>
			<point x="320" y="390"/>
			<point x="280" y="329"/>
			<point x="215" y="247" type="curve" smooth="yes"/>
			<point x="149" y="165"/>
			<point x="97" y="108"/>
			<point x="61" y="76" type="curve"/>
			<point x="61" y="6" type="line"/>
		</contour>
	</outline>
</glyph>
<glyph name="three" format="2">
	<unicode hex="0033"/>
	<advance width="490"/>
	<outline>
		<contour>
			<point x="440" y="198" type="curve" smooth="yes"/>
			<point x="440" y="290.81"/>
			<point x="388.433" y="344.917"/>
			<point x="321" y="369" type="curve"/>
			<point x="375.295" y="390.246"/>
			<point x="430" y="448.413"/>
			<point x="430" y="527" type="curve" smooth="yes"/>
			<point x="430" y="645.951"/>
			<point x="356.344" y="702.803"/>
			<point x="242" y="708" type="curve"/>
			<point x="137.605" y="708"/>
			<point x="60" y="653.428"/>
			<point x="60" y="554" type="curve"/>
			<point x="136" y="554" type="line"/>
			<point x="140.267" y="609.47"/>
			<point x="183.416" y="648"/>
			<point x="247" y="648" type="curve" smooth="yes"/>
			<point x="309.459" y="648"/>
			<point x="354" y="596.264"/>
			<point x="354" y="527" type="curve" smooth="yes"/>
			<point x="354" y="441.629"/>
			<point x="292.084" y="398"/>
			<point x="201" y="398" type="curve"/>
			<point x="201" y="339" type="line"/>
			<point x="292.818" y="339"/>
			<point x="364" y="292.959"/>
			<point x="364" y="198" type="curve" smooth="yes"/>
			<point x="364" y="117.986"/>
			<point x="315.034" y="51"/>
			<point x="239" y="51" type="curve" smooth="yes"/>
			<point x="178.82" y="51"/>
			<point x="133" y="91.0158"/>
			<point x="133" y="148" type="curve"/>
			<point x="48" y="148" type="line"/>
			<point x="57.5487" y="42.9639"/>
			<point x="125.951" y="-9"/>
			<point x="242" y="-9" type="curve" smooth="yes"/>
			<point x="367.914" y="-9"/>
			<point x="440" y="73.0063"/>
		</contour>
	</outline>
</glyph>
<glyph name="four" format="2">
	<unicode hex="0034"/>
	<advance width="509"/>
	<outline>
		<contour>
			<point x="462" y="191" type="line"/>
			<point x="462" y="261" type="line"/>
			<point x="362" y="261" type="line"/>
			<point x="362" y="710" type="line"/>
			<point x="292" y="710" type="line"/>
			<point x="29" y="255" type="line"/>
			<point x="29" y="191" type="line"/>
			<point x="290" y="191" type="line"/>
			<point x="290" y="3" type="line"/>
			<point x="362" y="3" type="line"/>
			<point x="362" y="191" type="line"/>
		</contour>
		<contour>
			<point x="290" y="261" type="line"/>
			<point x="105" y="261" type="line"/>
			<point x="290" y="579" type="line"/>
		</contour>
	</outline>
</glyph>
<glyph name="five" format="2">
	<unicode hex="0035"/>
	<advance width="509"/>
	<outline>
		<contour>
			<point x="441" y="211" type="curve" smooth="yes"/>
			<point x="441" y="338.413"/>
			<point x="378.56" y="426"/>
			<point x="251" y="426" type="curve" smooth="yes"/>
			<point x="207" y="426"/>
			<point x="172" y="413"/>
			<point x="144" y="389" type="curve"/>
			<point x="157" y="629" type="line"/>
			<point x="404" y="629" type="line"/>
			<point x="404" y="699" type="line"/>
			<point x="89" y="699" type="line"/>
			<point x="70" y="306" type="line"/>
			<point x="144" y="306" type="line"/>
			<point x="158.576" y="336.975"/>
			<point x="195.765" y="365"/>
			<point x="241" y="365" type="curve" smooth="yes"/>
			<point x="320.269" y="365"/>
			<point x="364" y="297.049"/>
			<point x="364" y="211" type="curve" smooth="yes"/>
			<point x="360.613" y="126.336"/>
			<point x="312.341" y="52"/>
			<point x="233" y="52" type="curve" smooth="yes"/>
			<point x="173.516" y="52"/>
			<point x="135" y="85.8312"/>
			<point x="135" y="142" type="curve"/>
			<point x="53" y="142" type="line"/>
			<point x="53" y="41.3381"/>
			<point x="128.408" y="-9"/>
			<point x="233" y="-9" type="curve" smooth="yes"/>
			<point x="361.982" y="-9"/>
			<point x="441" y="81.4169"/>
		</contour>
	</outline>
</glyph>
<glyph name="six" format="2">
	<unicode hex="0036"/>
	<advance width="490"/>
	<outline>
		<contour>
			<point x="250" y="-9" type="curve" smooth="yes"/>
			<point x="377.536" y="-9"/>
			<point x="442" y="82.0649"/>
			<point x="442" y="212" type="curve" smooth="yes"/>
			<point x="442" y="343.984"/>
			<point x="381.639" y="435"/>
			<point x="250" y="435" type="curve" smooth="yes"/>
			<point x="195.582" y="435"/>
			<point x="147.404" y="402.106"/>
			<point x="124" y="367" type="curve"/>
			<point x="124" y="404" type="line" smooth="yes"/>
			<point x="124" y="505.77"/>
			<point x="148.524" y="649"/>
			<point x="250" y="649" type="curve" smooth="yes"/>
			<point x="308.987" y="649"/>
			<point x="344" y="608.761"/>
			<point x="344" y="551" type="curve"/>
			<point x="430" y="551" type="line"/>
			<point x="430" y="648.727"/>
			<point x="352.201" y="709"/>
			<point x="252" y="709" type="curve" smooth="yes"/>
			<point x="81.7869" y="709"/>
			<point x="49" y="533.198"/>
			<point x="49" y="364" type="curve" smooth="yes"/>
			<point x="49" y="168.003"/>
			<point x="62.0917" y="-9"/>
		</contour>
		<contour>
			<point x="367" y="213" type="curve" smooth="yes"/>
			<point x="367" y="130.14"/>
			<point x="330.842" y="52"/>
			<point x="251" y="52" type="curve" smooth="yes"/>
			<point x="169.713" y="52"/>
			<point x="135" y="130.794"/>
			<point x="135" y="213" type="curve" smooth="yes"/>
			<point x="135" y="294.747"/>
			<point x="169.677" y="374"/>
			<point x="251" y="374" type="curve" smooth="yes"/>
			<point x="330.836" y="374"/>
			<point x="367" y="295.335"/>
		</contour>
	</outline>
</glyph>
<glyph name="seven" format="2">
	<unicode hex="0037"/>
	<advance width="509"/>
	<outline>
		<contour>
			<point x="436" y="627" type="line"/>
			<point x="436" y="695" type="line"/>
			<point x="52" y="695" type="line"/>
			<point x="52" y="623" type="line"/>
			<point x="357" y="623" type="line"/>
			<point x="125" y="-2" type="line"/>
			<point x="203" y="-2" type="line"/>
		</contour>
	</outline>
</glyph>
<glyph name="eight" format="2">
	<unicode hex="0038"/>
	<advance width="490"/>
	<outline>
		<contour>
			<point x="357" y="523" type="curve" smooth="yes"/>
			<point x="357" y="451.834"/>
			<point x="311.656" y="397"/>
			<point x="244" y="397" type="curve" smooth="yes"/>
			<point x="176.592" y="397"/>
			<point x="133" y="453.002"/>
			<point x="133" y="523" type="curve" smooth="yes"/>
			<point x="133" y="591.492"/>
			<point x="177.345" y="650"/>
			<point x="244" y="650" type="curve" smooth="yes"/>
			<point x="311.035" y="650"/>
			<point x="357" y="592.626"/>
		</contour>
		<contour>
			<point x="432" y="523" type="curve" smooth="yes"/>
			<point x="432" y="633.501"/>
			<point x="353.76" y="709"/>
			<point x="244" y="709" type="curve" smooth="yes"/>
			<point x="133.255" y="709"/>
			<point x="58" y="633.079"/>
			<point x="58" y="523" type="curve" smooth="yes"/>
			<point x="58" y="447.35"/>
			<point x="93.4059" y="386.223"/>
			<point x="150" y="365" type="curve"/>
			<point x="86.9114" y="343.97"/>
			<point x="46" y="273.642"/>
			<point x="46" y="192" type="curve" smooth="yes"/>
			<point x="46" y="66.883"/>
			<point x="119.696" y="-10"/>
			<point x="244" y="-10" type="curve" smooth="yes"/>
			<point x="367.538" y="-10"/>
			<point x="442" y="66.7437"/>
			<point x="442" y="192" type="curve" smooth="yes"/>
			<point x="442" y="275.655"/>
			<point x="400.73" y="342.86"/>
			<point x="338" y="365" type="curve"/>
			<point x="394.461" y="386.173"/>
			<point x="432" y="446.682"/>
		</contour>
		<contour>
			<point x="244" y="53" type="curve" smooth="yes"/>
			<point x="170.128" y="53"/>
			<point x="122" y="115.988"/>
			<point x="122" y="192" type="curve" smooth="yes"/>
			<point x="122" y="268.14"/>
			<point x="169.909" y="334"/>
			<point x="244" y="334" type="curve" smooth="yes"/>
			<point x="317.961" y="334"/>
			<point x="366" y="269.271"/>
			<point x="366" y="192" type="curve" smooth="yes"/>
			<point x="366" y="115.957"/>
			<point x="316.55" y="53"/>
		</contour>
	</outline>
</glyph>
<glyph name="nine" format="2">
	<unicode hex="0039"/>
	<advance width="490"/>
	<outline>
		<contour>
			<point x="418" y="576" type="curve" smooth="yes"/>
			<point x="408" y="605"/>
			<point x="396" y="630"/>
			<point x="380" y="650" type="curve" smooth="yes"/>
			<point x="362" y="670"/>
			<point x="341" y="685"/>
			<point x="316" y="695" type="curve" smooth="yes"/>
			<point x="290" y="704"/>
			<point x="264" y="709"/>
			<point x="240" y="709" type="curve" smooth="yes"/>
			<point x="214" y="709"/>
			<point x="189" y="704"/>
			<point x="164" y="695" type="curve" smooth="yes"/>
			<point x="138" y="685"/>
			<point x="116" y="671"/>
			<point x="99" y="651" type="curve" smooth="yes"/>
			<point x="82" y="631"/>
			<point x="69" y="606"/>
			<point x="61" y="578" type="curve" smooth="yes"/>
			<point x="52" y="548"/>
			<point x="48" y="518"/>
			<point x="48" y="488" type="curve" smooth="yes"/>
			<point x="48" y="456"/>
			<point x="52" y="426"/>
			<point x="61" y="397" type="curve" smooth="yes"/>
			<point x="69" y="367"/>
			<point x="81" y="343"/>
			<point x="98" y="324" type="curve" smooth="yes"/>
			<point x="115" y="304"/>
			<point x="135" y="289"/>
			<point x="158" y="280" type="curve" smooth="yes"/>
			<point x="180" y="270"/>
			<point x="207" y="265"/>
			<point x="240" y="265" type="curve" smooth="yes"/>
			<point x="266" y="265"/>
			<point x="292" y="272"/>
			<point x="317" y="287" type="curve" smooth="yes"/>
			<point x="337" y="299"/>
			<point x="353" y="314"/>
			<point x="366" y="333" type="curve"/>
			<point x="366" y="296" type="line" smooth="yes"/>
			<point x="366" y="271"/>
			<point x="364" y="245"/>
			<point x="360" y="218" type="curve" smooth="yes"/>
			<point x="356" y="190"/>
			<point x="349" y="163"/>
			<point x="340" y="138" type="curve" smooth="yes"/>
			<point x="330" y="112"/>
			<point x="317" y="92"/>
			<point x="300" y="76" type="curve" smooth="yes"/>
			<point x="282" y="59"/>
			<point x="262" y="51"/>
			<point x="240" y="51" type="curve" smooth="yes"/>
			<point x="223" y="51"/>
			<point x="208" y="54"/>
			<point x="196" y="61" type="curve" smooth="yes"/>
			<point x="183" y="67"/>
			<point x="173" y="74"/>
			<point x="166" y="84" type="curve" smooth="yes"/>
			<point x="158" y="93"/>
			<point x="153" y="104"/>
			<point x="151" y="118" type="curve" smooth="yes"/>
			<point x="147" y="131"/>
			<point x="146" y="141"/>
			<point x="146" y="149" type="curve"/>
			<point x="60" y="149" type="line"/>
			<point x="60" y="132"/>
			<point x="63" y="114"/>
			<point x="71" y="94" type="curve" smooth="yes"/>
			<point x="78" y="73"/>
			<point x="89" y="55"/>
			<point x="104" y="41" type="curve" smooth="yes"/>
			<point x="118" y="26"/>
			<point x="137" y="14"/>
			<point x="161" y="5" type="curve" smooth="yes"/>
			<point x="183" y="-4"/>
			<point x="209" y="-9"/>
			<point x="238" y="-9" type="curve" smooth="yes"/>
			<point x="280" y="-9"/>
			<point x="314" y="1"/>
			<point x="342" y="23" type="curve" smooth="yes"/>
			<point x="368" y="43"/>
			<point x="389" y="71"/>
			<point x="404" y="105" type="curve" smooth="yes"/>
			<point x="418" y="138"/>
			<point x="427" y="174"/>
			<point x="433" y="214" type="curve" smooth="yes"/>
			<point x="438" y="253"/>
			<point x="441" y="294"/>
			<point x="441" y="336" type="curve" smooth="yes"/>
			<point x="441" y="395"/>
			<point x="439" y="445"/>
			<point x="435" y="485" type="curve" smooth="yes"/>
			<point x="430" y="525"/>
			<point x="424" y="555"/>
		</contour>
		<contour>
			<point x="123" y="487" type="curve" smooth="yes"/>
			<point x="123" y="509"/>
			<point x="125" y="530"/>
			<point x="131" y="550" type="curve" smooth="yes"/>
			<point x="136" y="570"/>
			<point x="144" y="587"/>
			<point x="154" y="602" type="curve" smooth="yes"/>
			<point x="164" y="616"/>
			<point x="177" y="628"/>
			<point x="193" y="636" type="curve" smooth="yes"/>
			<point x="207" y="644"/>
			<point x="223" y="648"/>
			<point x="239" y="648" type="curve" smooth="yes"/>
			<point x="255" y="648"/>
			<point x="270" y="644"/>
			<point x="286" y="636" type="curve" smooth="yes"/>
			<point x="300" y="628"/>
			<point x="313" y="616"/>
			<point x="324" y="602" type="curve" smooth="yes"/>
			<point x="334" y="587"/>
			<point x="341" y="570"/>
			<point x="347" y="550" type="curve" smooth="yes"/>
			<point x="352" y="530"/>
			<point x="355" y="509"/>
			<point x="355" y="487" type="curve" smooth="yes"/>
			<point x="355" y="465"/>
			<point x="352" y="444"/>
			<point x="347" y="424" type="curve" smooth="yes"/>
			<point x="341" y="404"/>
			<point x="334" y="386"/>
			<point x="324" y="372" type="curve" smooth="yes"/>
			<point x="313" y="357"/>
			<point x="300" y="346"/>
			<point x="286" y="338" type="curve" smooth="yes"/>
			<point x="270" y="330"/>
			<point x="255" y="326"/>
			<point x="239" y="326" type="curve" smooth="yes"/>
			<point x="223" y="326"/>
			<point x="207" y="330"/>
			<point x="193" y="338" type="curve" smooth="yes"/>
			<point x="177" y="346"/>
			<point x="164" y="357"/>
			<point x="154" y="372" type="curve" smooth="yes"/>
			<point x="144" y="386"/>
			<point x="136" y="404"/>
			<point x="131" y="424" type="curve" smooth="yes"/>
			<point x="125" y="444"/>
			<point x="123" y="465"/>
		</contour>
	</outline>
</glyph>
<glyph name="colon" format="2">
	<unicode hex="003A"/>
	<advance width="376"/>
	<outline>
		<contour>
			<point x="231" y="6" type="line"/>
			<point x="231" y="113" type="line"/>
			<point x="131" y="113" type="line"/>
			<point x="131" y="6" type="line"/>
		</contour>
		<contour>
			<point x="231" y="391" type="line"/>
			<point x="231" y="498" type="line"/>
			<point x="131" y="498" type="line"/>
			<point x="131" y="391" type="line"/>
		</contour>
	</outline>
</glyph>
<glyph name="semicolon" format="2">
	<unicode hex="003B"/>
	<advance width="376"/>
	<outline>
		<contour>
			<point x="232" y="113" type="line"/>
			<point x="137" y="113" type="line"/>
			<point x="116" y="-111" type="line"/>
			<point x="182" y="-111" type="line"/>
		</contour>
		<contour>
			<point x="231" y="391" type="line"/>
			<point x="231" y="498" type="line"/>
			<point x="131" y="498" type="line"/>
			<point x="131" y="391" type="line"/>
		</contour>
	</outline>
</glyph>
<glyph name="less" format="2">
	<unicode hex="003C"/>
	<advance width="544"/>
	<outline>
		<contour>
			<point x="89" y="330" type="line"/>
			<point x="468" y="-13" type="line"/>
			<point x="468" y="66" type="line"/>
			<point x="142" y="362" type="line"/>
			<point x="468" y="659" type="line"/>
			<point x="468" y="738" type="line"/>
			<point x="89" y="395" type="line"/>
		</contour>
	</outline>
</glyph>
<glyph name="equal" format="2">
	<unicode hex="003D"/>
	<advance width="544"/>
	<outline>
		<contour>
			<point x="470" y="436" type="line"/>
			<point x="470" y="501" type="line"/>
			<point x="53" y="501" type="line"/>
			<point x="53" y="436" type="line"/>
		</contour>
		<contour>
			<point x="470" y="224" type="line"/>
			<point x="470" y="289" type="line"/>
			<point x="53" y="289" type="line"/>
			<point x="53" y="224" type="line"/>
		</contour>
	</outline>
</glyph>
<glyph name="greater" format="2">
	<unicode hex="003E"/>
	<advance width="524"/>
	<outline>
		<contour>
			<point x="435" y="330" type="line"/>
			<point x="435" y="395" type="line"/>
			<point x="56" y="738" type="line"/>
			<point x="56" y="659" type="line"/>
			<point x="382" y="362" type="line"/>
			<point x="56" y="66" type="line"/>
			<point x="56" y="-13" type="line"/>
		</contour>
	</outline>
</glyph>
<glyph name="question" format="2">
	<unicode hex="003F"/>
	<advance width="415"/>
	<outline>
		<contour>
			<point x="382" y="570" type="curve" smooth="yes"/>
			<point x="382" y="680.929"/>
			<point x="296.213" y="742"/>
			<point x="187" y="742" type="curve" smooth="yes"/>
			<point x="128.73" y="742"/>
			<point x="80.6735" y="724.478"/>
			<point x="37" y="712" type="curve"/>
			<point x="37" y="634" type="line"/>
			<point x="75.799" y="653.4"/>
			<point x="127.108" y="674"/>
			<point x="185" y="674" type="curve" smooth="yes"/>
			<point x="248.76" y="674"/>
			<point x="304" y="630.679"/>
			<point x="304" y="567" type="curve" smooth="yes"/>
			<point x="304" y="418.64"/>
			<point x="134" y="408.843"/>
			<point x="134" y="240" type="curve" smooth="yes"/>
			<point x="134" y="178" type="line"/>
			<point x="205" y="178" type="line"/>
			<point x="205" y="219" type="line" smooth="yes"/>
			<point x="205" y="389.777"/>
			<point x="382" y="402.637"/>
		</contour>
		<contour>
			<point x="221" y="-34" type="line"/>
			<point x="221" y="73" type="line"/>
			<point x="121" y="73" type="line"/>
			<point x="121" y="-34" type="line"/>
		</contour>
	</outline>
</glyph>
<glyph name="at" format="2">
	<unicode hex="0040"/>
	<advance width="890"/>
	<outline>
		<contour>
			<point x="817" y="332" type="curve" smooth="yes"/>
			<point x="821" y="415"/>
			<point x="804" y="489"/>
			<point x="766" y="553" type="curve" smooth="yes"/>
			<point x="728" y="617"/>
			<point x="678" y="660"/>
			<point x="617" y="684" type="curve" smooth="yes"/>
			<point x="577" y="699"/>
			<point x="537" y="708"/>
			<point x="497" y="710" type="curve" smooth="yes"/>
			<point x="456" y="711"/>
			<point x="417" y="706"/>
			<point x="381" y="694" type="curve" smooth="yes"/>
			<point x="345" y="682"/>
			<point x="311" y="664"/>
			<point x="280" y="642" type="curve" smooth="yes"/>
			<point x="248" y="619"/>
			<point x="218" y="590"/>
			<point x="191" y="555" type="curve" smooth="yes"/>
			<point x="161" y="517"/>
			<point x="138" y="476"/>
			<point x="122" y="433" type="curve" smooth="yes"/>
			<point x="104" y="389"/>
			<point x="92" y="347"/>
			<point x="84" y="307" type="curve" smooth="yes"/>
			<point x="76" y="265"/>
			<point x="74" y="223"/>
			<point x="77" y="179" type="curve" smooth="yes"/>
			<point x="79" y="135"/>
			<point x="88" y="95"/>
			<point x="102" y="61" type="curve" smooth="yes"/>
			<point x="130" y="-9"/>
			<point x="175" y="-63"/>
			<point x="237" y="-100" type="curve" smooth="yes"/>
			<point x="298" y="-136"/>
			<point x="369" y="-155"/>
			<point x="449" y="-155" type="curve" smooth="yes"/>
			<point x="496" y="-155"/>
			<point x="538" y="-149"/>
			<point x="574" y="-138" type="curve" smooth="yes"/>
			<point x="609" y="-126"/>
			<point x="638" y="-113"/>
			<point x="662" y="-98" type="curve" smooth="yes"/>
			<point x="685" y="-82"/>
			<point x="704" y="-68"/>
			<point x="718" y="-56" type="curve" smooth="yes"/>
			<point x="731" y="-43"/>
			<point x="740" y="-34"/>
			<point x="744" y="-28" type="curve"/>
			<point x="715" y="9" type="line"/>
			<point x="707" y="1"/>
			<point x="696" y="-8"/>
			<point x="681" y="-20" type="curve" smooth="yes"/>
			<point x="665" y="-32"/>
			<point x="648" y="-43"/>
			<point x="630" y="-54" type="curve" smooth="yes"/>
			<point x="607" y="-67"/>
			<point x="581" y="-78"/>
			<point x="551" y="-86" type="curve" smooth="yes"/>
			<point x="520" y="-94"/>
			<point x="487" y="-98"/>
			<point x="452" y="-98" type="curve" smooth="yes"/>
			<point x="378" y="-98"/>
			<point x="318" y="-81"/>
			<point x="271" y="-48" type="curve" smooth="yes"/>
			<point x="223" y="-14"/>
			<point x="188" y="29"/>
			<point x="167" y="81" type="curve" smooth="yes"/>
			<point x="155" y="110"/>
			<point x="148" y="143"/>
			<point x="147" y="181" type="curve" smooth="yes"/>
			<point x="145" y="217"/>
			<point x="147" y="253"/>
			<point x="154" y="288" type="curve" smooth="yes"/>
			<point x="160" y="320"/>
			<point x="169" y="354"/>
			<point x="182" y="392" type="curve" smooth="yes"/>
			<point x="194" y="429"/>
			<point x="214" y="467"/>
			<point x="240" y="505" type="curve" smooth="yes"/>
			<point x="259" y="533"/>
			<point x="283" y="558"/>
			<point x="311" y="581" type="curve" smooth="yes"/>
			<point x="339" y="603"/>
			<point x="369" y="621"/>
			<point x="401" y="633" type="curve" smooth="yes"/>
			<point x="431" y="644"/>
			<point x="463" y="650"/>
			<point x="497" y="650" type="curve" smooth="yes"/>
			<point x="529" y="650"/>
			<point x="563" y="643"/>
			<point x="597" y="629" type="curve" smooth="yes"/>
			<point x="647" y="607"/>
			<point x="688" y="568"/>
			<point x="718" y="511" type="curve" smooth="yes"/>
			<point x="747" y="453"/>
			<point x="760" y="394"/>
			<point x="758" y="333" type="curve" smooth="yes"/>
			<point x="757" y="311"/>
			<point x="753" y="284"/>
			<point x="745" y="252" type="curve" smooth="yes"/>
			<point x="736" y="219"/>
			<point x="726" y="192"/>
			<point x="715" y="172" type="curve" smooth="yes"/>
			<point x="705" y="154"/>
			<point x="693" y="138"/>
			<point x="679" y="122" type="curve" smooth="yes"/>
			<point x="664" y="106"/>
			<point x="650" y="93"/>
			<point x="636" y="84" type="curve" smooth="yes"/>
			<point x="606" y="64"/>
			<point x="583" y="58"/>
			<point x="567" y="65" type="curve" smooth="yes"/>
			<point x="551" y="71"/>
			<point x="548" y="91"/>
			<point x="558" y="125" type="curve" smooth="yes"/>
			<point x="574" y="173"/>
			<point x="595" y="235"/>
			<point x="623" y="313" type="curve" smooth="yes"/>
			<point x="650" y="390"/>
			<point x="669" y="443"/>
			<point x="679" y="471" type="curve"/>
			<point x="608" y="471" type="line"/>
			<point x="589" y="418" type="line"/>
			<point x="584" y="436"/>
			<point x="573" y="454"/>
			<point x="557" y="470" type="curve" smooth="yes"/>
			<point x="540" y="485"/>
			<point x="516" y="492"/>
			<point x="486" y="492" type="curve" smooth="yes"/>
			<point x="454" y="491"/>
			<point x="423" y="479"/>
			<point x="394" y="456" type="curve" smooth="yes"/>
			<point x="364" y="432"/>
			<point x="339" y="404"/>
			<point x="318" y="372" type="curve" smooth="yes"/>
			<point x="293" y="334"/>
			<point x="276" y="297"/>
			<point x="267" y="262" type="curve" smooth="yes"/>
			<point x="257" y="226"/>
			<point x="251" y="196"/>
			<point x="250" y="172" type="curve" smooth="yes"/>
			<point x="248" y="144"/>
			<point x="251" y="119"/>
			<point x="258" y="99" type="curve" smooth="yes"/>
			<point x="264" y="78"/>
			<point x="273" y="60"/>
			<point x="285" y="46" type="curve" smooth="yes"/>
			<point x="295" y="33"/>
			<point x="309" y="24"/>
			<point x="325" y="18" type="curve" smooth="yes"/>
			<point x="340" y="12"/>
			<point x="356" y="9"/>
			<point x="373" y="9" type="curve" smooth="yes"/>
			<point x="389" y="9"/>
			<point x="404" y="11"/>
			<point x="417" y="16" type="curve" smooth="yes"/>
			<point x="429" y="20"/>
			<point x="438" y="25"/>
			<point x="446" y="31" type="curve" smooth="yes"/>
			<point x="460" y="40"/>
			<point x="473" y="53"/>
			<point x="486" y="69" type="curve"/>
			<point x="486" y="68"/>
			<point x="486" y="67"/>
			<point x="486" y="66" type="curve" smooth="yes"/>
			<point x="486" y="64"/>
			<point x="486" y="59"/>
			<point x="487" y="52" type="curve" smooth="yes"/>
			<point x="489" y="35"/>
			<point x="496" y="21"/>
			<point x="508" y="11" type="curve" smooth="yes"/>
			<point x="519" y="0"/>
			<point x="537" y="-4"/>
			<point x="562" y="-2" type="curve" smooth="yes"/>
			<point x="590" y="0"/>
			<point x="619" y="10"/>
			<point x="649" y="28" type="curve" smooth="yes"/>
			<point x="699" y="57"/>
			<point x="738" y="98"/>
			<point x="768" y="152" type="curve" smooth="yes"/>
			<point x="797" y="205"/>
			<point x="813" y="265"/>
		</contour>
		<contour>
			<point x="553" y="363" type="curve" smooth="yes"/>
			<point x="553" y="351"/>
			<point x="550" y="331"/>
			<point x="544" y="303" type="curve" smooth="yes"/>
			<point x="538" y="273"/>
			<point x="527" y="239"/>
			<point x="511" y="199" type="curve" smooth="yes"/>
			<point x="494" y="156"/>
			<point x="474" y="124"/>
			<point x="452" y="102" type="curve" smooth="yes"/>
			<point x="429" y="79"/>
			<point x="406" y="68"/>
			<point x="382" y="68" type="curve" smooth="yes"/>
			<point x="374" y="68"/>
			<point x="367" y="69"/>
			<point x="362" y="71" type="curve" smooth="yes"/>
			<point x="356" y="73"/>
			<point x="351" y="76"/>
			<point x="345" y="82" type="curve" smooth="yes"/>
			<point x="336" y="89"/>
			<point x="330" y="100"/>
			<point x="326" y="114" type="curve" smooth="yes"/>
			<point x="321" y="127"/>
			<point x="320" y="145"/>
			<point x="323" y="168" type="curve" smooth="yes"/>
			<point x="325" y="192"/>
			<point x="331" y="216"/>
			<point x="339" y="241" type="curve" smooth="yes"/>
			<point x="346" y="265"/>
			<point x="356" y="289"/>
			<point x="370" y="314" type="curve" smooth="yes"/>
			<point x="390" y="350"/>
			<point x="412" y="380"/>
			<point x="437" y="403" type="curve" smooth="yes"/>
			<point x="461" y="425"/>
			<point x="482" y="437"/>
			<point x="500" y="437" type="curve" smooth="yes"/>
			<point x="516" y="437"/>
			<point x="529" y="429"/>
			<point x="539" y="414" type="curve" smooth="yes"/>
			<point x="548" y="398"/>
			<point x="553" y="381"/>
		</contour>
	</outline>
</glyph>
<glyph name="A" format="2">
	<unicode hex="0041"/>
	<advance width="570"/>
	<outline>
		<contour>
			<point x="549" y="6" type="line"/>
			<point x="326" y="707" type="line"/>
			<point x="243" y="707" type="line"/>
			<point x="20" y="6" type="line"/>
			<point x="100" y="6" type="line"/>
			<point x="166" y="225" type="line"/>
			<point x="402" y="225" type="line"/>
			<point x="469" y="6" type="line"/>
		</contour>
		<contour>
			<point x="382" y="294" type="line"/>
			<point x="187" y="294" type="line"/>
			<point x="285" y="617" type="line"/>
		</contour>
	</outline>
</glyph>
<glyph name="B" format="2">
	<unicode hex="0042"/>
	<advance width="529"/>
	<outline>
		<contour>
			<point x="485" y="205" type="curve" smooth="yes"/>
			<point x="485" y="260"/>
			<point x="469" y="301"/>
			<point x="438" y="329" type="curve" smooth="yes"/>
			<point x="406" y="356"/>
			<point x="374" y="372"/>
			<point x="342" y="377" type="curve"/>
			<point x="376" y="385"/>
			<point x="404" y="402"/>
			<point x="426" y="429" type="curve" smooth="yes"/>
			<point x="448" y="455"/>
			<point x="459" y="486"/>
			<point x="459" y="523" type="curve" smooth="yes"/>
			<point x="459" y="583"/>
			<point x="440" y="628"/>
			<point x="403" y="660" type="curve" smooth="yes"/>
			<point x="365" y="691"/>
			<point x="315" y="707"/>
			<point x="251" y="707" type="curve" smooth="yes"/>
			<point x="69" y="707" type="line"/>
			<point x="69" y="6" type="line"/>
			<point x="261" y="6" type="line" smooth="yes"/>
			<point x="271" y="6"/>
			<point x="285" y="6"/>
			<point x="303" y="8" type="curve" smooth="yes"/>
			<point x="320" y="9"/>
			<point x="335" y="11"/>
			<point x="348" y="15" type="curve" smooth="yes"/>
			<point x="386" y="26"/>
			<point x="419" y="47"/>
			<point x="446" y="79" type="curve" smooth="yes"/>
			<point x="472" y="109"/>
			<point x="485" y="151"/>
		</contour>
		<contour>
			<point x="144" y="73" type="line"/>
			<point x="144" y="340" type="line"/>
			<point x="247" y="340" type="line" smooth="yes"/>
			<point x="259" y="340"/>
			<point x="273" y="339"/>
			<point x="287" y="337" type="curve" smooth="yes"/>
			<point x="300" y="335"/>
			<point x="311" y="332"/>
			<point x="319" y="330" type="curve" smooth="yes"/>
			<point x="349" y="320"/>
			<point x="372" y="304"/>
			<point x="387" y="283" type="curve" smooth="yes"/>
			<point x="401" y="261"/>
			<point x="409" y="235"/>
			<point x="409" y="205" type="curve" smooth="yes"/>
			<point x="409" y="176"/>
			<point x="401" y="151"/>
			<point x="387" y="129" type="curve" smooth="yes"/>
			<point x="372" y="106"/>
			<point x="349" y="90"/>
			<point x="319" y="80" type="curve" smooth="yes"/>
			<point x="311" y="77"/>
			<point x="299" y="75"/>
			<point x="284" y="75" type="curve" smooth="yes"/>
			<point x="268" y="73"/>
			<point x="256" y="73"/>
			<point x="247" y="73" type="curve" smooth="yes"/>
		</contour>
		<contour>
			<point x="383" y="523" type="curve" smooth="yes"/>
			<point x="383" y="490"/>
			<point x="373" y="464"/>
			<point x="353" y="444" type="curve" smooth="yes"/>
			<point x="333" y="424"/>
			<point x="306" y="412"/>
			<point x="274" y="408" type="curve" smooth="yes"/>
			<point x="267" y="407"/>
			<point x="259" y="407"/>
			<point x="250" y="407" type="curve" smooth="yes"/>
			<point x="240" y="407"/>
			<point x="233" y="407"/>
			<point x="227" y="407" type="curve" smooth="yes"/>
			<point x="144" y="407" type="line"/>
			<point x="144" y="640" type="line"/>
			<point x="227" y="640" type="line" smooth="yes"/>
			<point x="233" y="640"/>
			<point x="241" y="640"/>
			<point x="251" y="640" type="curve" smooth="yes"/>
			<point x="259" y="639"/>
			<point x="267" y="638"/>
			<point x="274" y="638" type="curve" smooth="yes"/>
			<point x="306" y="634"/>
			<point x="333" y="623"/>
			<point x="353" y="605" type="curve" smooth="yes"/>
			<point x="373" y="586"/>
			<point x="383" y="559"/>
		</contour>
	</outline>
</glyph>
<glyph name="C" format="2">
	<unicode hex="0043"/>
	<advance width="573"/>
	<outline>
		<contour>
			<point x="537" y="515" type="line"/>
			<point x="537" y="638.089"/>
			<point x="443.573" y="720"/>
			<point x="321" y="720" type="curve" smooth="yes"/>
			<point x="128.184" y="720"/>
			<point x="38" y="559.746"/>
			<point x="38" y="368" type="curve" smooth="yes"/>
			<point x="38" y="168.37"/>
			<point x="125.482" y="-6"/>
			<point x="325" y="-6" type="curve" smooth="yes"/>
			<point x="397.972" y="-6"/>
			<point x="469.298" y="7.19858"/>
			<point x="514" y="37" type="curve"/>
			<point x="514" y="119" type="line"/>
			<point x="474.977" y="89.2679"/>
			<point x="409.636" y="61"/>
			<point x="343" y="61" type="curve" smooth="yes"/>
			<point x="180.571" y="61"/>
			<point x="116" y="210.435"/>
			<point x="116" y="368" type="curve" smooth="yes"/>
			<point x="116" y="513.229"/>
			<point x="177.618" y="653"/>
			<point x="321" y="653" type="curve"/>
			<point x="401.373" y="647.977"/>
			<point x="456" y="600.578"/>
			<point x="456" y="515" type="curve"/>
		</contour>
	</outline>
</glyph>
<glyph name="D" format="2">
	<unicode hex="0044"/>
	<advance width="578"/>
	<outline>
		<contour>
			<point x="144" y="638" type="line"/>
			<point x="215" y="638" type="line" smooth="yes"/>
			<point x="228" y="638"/>
			<point x="244" y="637"/>
			<point x="264" y="636" type="curve" smooth="yes"/>
			<point x="283" y="634"/>
			<point x="299" y="632"/>
			<point x="311" y="629" type="curve" smooth="yes"/>
			<point x="327" y="624"/>
			<point x="343" y="615"/>
			<point x="361" y="603" type="curve" smooth="yes"/>
			<point x="377" y="590"/>
			<point x="393" y="572"/>
			<point x="408" y="550" type="curve" smooth="yes"/>
			<point x="422" y="528"/>
			<point x="434" y="501"/>
			<point x="444" y="471" type="curve" smooth="yes"/>
			<point x="453" y="439"/>
			<point x="458" y="401"/>
			<point x="458" y="356" type="curve" smooth="yes"/>
			<point x="458" y="312"/>
			<point x="453" y="274"/>
			<point x="444" y="243" type="curve" smooth="yes"/>
			<point x="434" y="211"/>
			<point x="422" y="185"/>
			<point x="408" y="163" type="curve" smooth="yes"/>
			<point x="393" y="140"/>
			<point x="377" y="122"/>
			<point x="361" y="110" type="curve" smooth="yes"/>
			<point x="343" y="97"/>
			<point x="327" y="88"/>
			<point x="311" y="84" type="curve" smooth="yes"/>
			<point x="299" y="80"/>
			<point x="283" y="78"/>
			<point x="264" y="77" type="curve" smooth="yes"/>
			<point x="244" y="75"/>
			<point x="228" y="75"/>
			<point x="215" y="75" type="curve" smooth="yes"/>
			<point x="144" y="75" type="line"/>
		</contour>
		<contour>
			<point x="69" y="707" type="line"/>
			<point x="69" y="6" type="line"/>
			<point x="215" y="6" type="line" smooth="yes"/>
			<point x="233" y="6"/>
			<point x="254" y="7"/>
			<point x="277" y="10" type="curve" smooth="yes"/>
			<point x="299" y="12"/>
			<point x="318" y="15"/>
			<point x="335" y="19" type="curve" smooth="yes"/>
			<point x="361" y="25"/>
			<point x="386" y="38"/>
			<point x="410" y="57" type="curve" smooth="yes"/>
			<point x="433" y="75"/>
			<point x="454" y="97"/>
			<point x="473" y="125" type="curve" smooth="yes"/>
			<point x="491" y="151"/>
			<point x="505" y="183"/>
			<point x="517" y="223" type="curve" smooth="yes"/>
			<point x="528" y="262"/>
			<point x="534" y="306"/>
			<point x="534" y="356" type="curve" smooth="yes"/>
			<point x="534" y="406"/>
			<point x="528" y="451"/>
			<point x="517" y="491" type="curve" smooth="yes"/>
			<point x="505" y="529"/>
			<point x="491" y="562"/>
			<point x="473" y="588" type="curve" smooth="yes"/>
			<point x="454" y="615"/>
			<point x="433" y="638"/>
			<point x="410" y="657" type="curve" smooth="yes"/>
			<point x="386" y="675"/>
			<point x="361" y="687"/>
			<point x="335" y="694" type="curve" smooth="yes"/>
			<point x="318" y="698"/>
			<point x="299" y="701"/>
			<point x="277" y="704" type="curve" smooth="yes"/>
			<point x="254" y="706"/>
			<point x="233" y="707"/>
			<point x="215" y="707" type="curve" smooth="yes"/>
		</contour>
	</outline>
</glyph>
<glyph name="E" format="2">
  <advance width="480"/>
  <unicode hex="0045"/>
  <outline>
    <contour>
      <point x="431" y="6" type="line"/>
      <point x="431" y="75" type="line"/>
      <point x="145" y="75" type="line"/>
      <point x="145" y="338" type="line"/>
      <point x="411" y="338" type="line"/>
      <point x="411" y="407" type="line"/>
      <point x="145" y="407" type="line"/>
      <point x="145" y="638" type="line"/>
      <point x="423" y="638" type="line"/>
      <point x="423" y="707" type="line"/>
      <point x="69" y="707" type="line"/>
      <point x="69" y="6" type="line"/>
    </contour>
  </outline>
</glyph>
<glyph name="F" format="2">
	<unicode hex="0046"/>
	<advance width="475"/>
	<outline>
		<contour>
			<point x="423" y="638" type="line"/>
			<point x="423" y="707" type="line"/>
			<point x="69" y="707" type="line"/>
			<point x="69" y="6" type="line"/>
			<point x="145" y="6" type="line"/>
			<point x="145" y="338" type="line"/>
			<point x="413" y="338" type="line"/>
			<point x="413" y="407" type="line"/>
			<point x="145" y="407" type="line"/>
			<point x="145" y="638" type="line"/>
		</contour>
	</outline>
</glyph>
<glyph name="G" format="2">
  <advance width="599"/>
  <unicode hex="0047"/>
  <outline>
    <contour>
      <point x="537" y="515" type="line"/>
      <point x="537" y="547"/>
      <point x="531" y="575"/>
      <point x="519" y="600" type="curve" smooth="yes"/>
      <point x="507" y="624"/>
      <point x="491" y="646"/>
      <point x="472" y="664" type="curve" smooth="yes"/>
      <point x="452" y="681"/>
      <point x="430" y="695"/>
      <point x="404" y="705" type="curve" smooth="yes"/>
      <point x="378" y="715"/>
      <point x="350" y="720"/>
      <point x="321" y="720" type="curve" smooth="yes"/>
      <point x="273" y="720"/>
      <point x="231" y="710"/>
      <point x="196" y="690" type="curve" smooth="yes"/>
      <point x="160" y="669"/>
      <point x="130" y="643"/>
      <point x="107" y="612" type="curve" smooth="yes"/>
      <point x="83" y="580"/>
      <point x="65" y="543"/>
      <point x="55" y="501" type="curve" smooth="yes"/>
      <point x="43" y="459"/>
      <point x="38" y="415"/>
      <point x="38" y="369" type="curve" smooth="yes"/>
      <point x="38" y="323"/>
      <point x="43" y="278"/>
      <point x="54" y="234" type="curve" smooth="yes"/>
      <point x="64" y="190"/>
      <point x="81" y="150"/>
      <point x="105" y="114" type="curve" smooth="yes"/>
      <point x="129" y="78"/>
      <point x="159" y="50"/>
      <point x="195" y="28" type="curve" smooth="yes"/>
      <point x="231" y="6"/>
      <point x="274" y="-5"/>
      <point x="325" y="-5" type="curve" smooth="yes"/>
      <point x="367" y="-5"/>
      <point x="405" y="0"/>
      <point x="437" y="8" type="curve" smooth="yes"/>
      <point x="469" y="16"/>
      <point x="500" y="28"/>
      <point x="531" y="45" type="curve"/>
      <point x="531" y="380" type="line"/>
      <point x="302" y="380" type="line"/>
      <point x="302" y="310" type="line"/>
      <point x="455" y="310" type="line"/>
      <point x="455" y="85" type="line"/>
      <point x="450" y="81"/>
      <point x="436" y="77"/>
      <point x="414" y="71" type="curve" smooth="yes"/>
      <point x="391" y="65"/>
      <point x="367" y="62"/>
      <point x="343" y="62" type="curve" smooth="yes"/>
      <point x="295" y="62"/>
      <point x="257" y="73"/>
      <point x="227" y="96" type="curve" smooth="yes"/>
      <point x="197" y="118"/>
      <point x="174" y="145"/>
      <point x="159" y="177" type="curve" smooth="yes"/>
      <point x="142" y="210"/>
      <point x="131" y="244"/>
      <point x="125" y="280" type="curve" smooth="yes"/>
      <point x="119" y="314"/>
      <point x="116" y="344"/>
      <point x="116" y="369" type="curve" smooth="yes"/>
      <point x="116" y="407"/>
      <point x="121" y="446"/>
      <point x="132" y="485" type="curve" smooth="yes"/>
      <point x="142" y="523"/>
      <point x="157" y="555"/>
      <point x="177" y="580" type="curve" smooth="yes"/>
      <point x="196" y="605"/>
      <point x="218" y="624"/>
      <point x="243" y="636" type="curve" smooth="yes"/>
      <point x="267" y="647"/>
      <point x="293" y="653"/>
      <point x="321" y="653" type="curve" smooth="yes"/>
      <point x="337" y="652"/>
      <point x="354" y="649"/>
      <point x="370" y="644" type="curve" smooth="yes"/>
      <point x="386" y="638"/>
      <point x="400" y="629"/>
      <point x="413" y="619" type="curve" smooth="yes"/>
      <point x="425" y="607"/>
      <point x="436" y="593"/>
      <point x="444" y="577" type="curve" smooth="yes"/>
      <point x="452" y="559"/>
      <point x="456" y="539"/>
      <point x="456" y="515" type="curve"/>
    </contour>
  </outline>
</glyph>
<glyph name="H" format="2">
	<unicode hex="0048"/>
	<advance width="579"/>
	<outline>
		<contour>
			<point x="510" y="6" type="line"/>
			<point x="510" y="707" type="line"/>
			<point x="434" y="707" type="line"/>
			<point x="434" y="405" type="line"/>
			<point x="145" y="405" type="line"/>
			<point x="145" y="707" type="line"/>
			<point x="69" y="707" type="line"/>
			<point x="69" y="6" type="line"/>
			<point x="145" y="6" type="line"/>
			<point x="145" y="336" type="line"/>
			<point x="434" y="336" type="line"/>
			<point x="434" y="6" type="line"/>
		</contour>
	</outline>
</glyph>
<glyph name="I" format="2">
  <advance width="222"/>
  <unicode hex="0049"/>
  <outline>
    <contour>
      <point x="149" y="6" type="line"/>
      <point x="149" y="707" type="line"/>
      <point x="73" y="707" type="line"/>
      <point x="73" y="6" type="line"/>
    </contour>
  </outline>
</glyph>
<glyph name="J" format="2">
	<unicode hex="004A"/>
	<advance width="343"/>
	<outline>
		<contour>
			<point x="274" y="161" type="curve" smooth="yes"/>
			<point x="274" y="707" type="line"/>
			<point x="198" y="707" type="line"/>
			<point x="198" y="171" type="line" smooth="yes"/>
			<point x="198" y="109.736"/>
			<point x="166.84" y="63"/>
			<point x="110" y="63" type="curve" smooth="yes"/>
			<point x="105" y="63"/>
			<point x="101" y="63"/>
			<point x="98" y="63" type="curve" smooth="yes"/>
			<point x="69.5551" y="63"/>
			<point x="30.1332" y="71.8486"/>
			<point x="10" y="81" type="curve"/>
			<point x="10" y="7" type="line"/>
			<point x="34.5003" y="-1.16678"/>
			<point x="58.1069" y="-5"/>
			<point x="92" y="-5" type="curve" smooth="yes"/>
			<point x="204.846" y="-5"/>
			<point x="274" y="50.0597"/>
		</contour>
	</outline>
</glyph>
<glyph name="M" format="2">
  <advance width="731"/>
  <unicode hex="004D"/>
  <outline>
    <contour>
      <point x="662" y="6" type="line"/>
      <point x="662" y="707" type="line"/>
      <point x="557" y="707" type="line"/>
      <point x="366" y="115" type="line"/>
      <point x="173" y="707" type="line"/>
      <point x="69" y="707" type="line"/>
      <point x="69" y="6" type="line"/>
      <point x="139" y="6" type="line"/>
      <point x="139" y="613" type="line"/>
      <point x="334" y="6" type="line"/>
      <point x="396" y="6" type="line"/>
      <point x="592" y="613" type="line"/>
      <point x="592" y="6" type="line"/>
    </contour>
  </outline>
</glyph>
<glyph name="N" format="2">
	<unicode hex="004E"/>
	<advance width="602"/>
	<outline>
		<contour>
			<point x="510" y="6" type="line"/>
			<point x="510" y="707" type="line"/>
			<point x="438" y="707" type="line"/>
			<point x="438" y="113" type="line"/>
			<point x="157" y="707" type="line"/>
			<point x="69" y="707" type="line"/>
			<point x="69" y="6" type="line"/>
			<point x="141" y="6" type="line"/>
			<point x="141" y="599" type="line"/>
			<point x="421" y="6" type="line"/>
		</contour>
	</outline>
</glyph>
<glyph name="O" format="2">
	<unicode hex="004F"/>
	<advance width="652"/>
	<outline>
		<contour>
			<point x="532" y="357" type="curve" smooth="yes"/>
			<point x="532" y="207.978"/>
			<point x="469.824" y="60"/>
			<point x="325" y="60" type="curve" smooth="yes"/>
			<point x="179.51" y="60"/>
			<point x="118" y="208.115"/>
			<point x="118" y="357" type="curve" smooth="yes"/>
			<point x="118" y="505.61"/>
			<point x="179.062" y="655"/>
			<point x="325" y="655" type="curve" smooth="yes"/>
			<point x="470.254" y="655"/>
			<point x="532" y="505.727"/>
		</contour>
		<contour>
			<point x="609" y="357" type="curve" smooth="yes"/>
			<point x="609" y="550.904"/>
			<point x="516.298" y="720"/>
			<point x="325" y="720" type="curve" smooth="yes"/>
			<point x="132.921" y="720"/>
			<point x="41" y="550.797"/>
			<point x="41" y="357" type="curve" smooth="yes"/>
			<point x="41" y="162.882"/>
			<point x="134.053" y="-5"/>
			<point x="325" y="-5" type="curve" smooth="yes"/>
			<point x="515.101" y="-5"/>
			<point x="609" y="162.761"/>
		</contour>
	</outline>
</glyph>
<glyph name="P" format="2">
	<unicode hex="0050"/>
	<advance width="512"/>
	<outline>
		<contour>
			<point x="478" y="501" type="curve" smooth="yes"/>
			<point x="478" y="638.879"/>
			<point x="380.784" y="707"/>
			<point x="245" y="707" type="curve" smooth="yes"/>
			<point x="69" y="707" type="line"/>
			<point x="69" y="6" type="line"/>
			<point x="145" y="6" type="line"/>
			<point x="145" y="295" type="line"/>
			<point x="178.333" y="295"/>
			<point x="211.667" y="295"/>
			<point x="245" y="295" type="curve" smooth="yes"/>
			<point x="380.317" y="295"/>
			<point x="478" y="363.621"/>
		</contour>
		<contour>
			<point x="145" y="367" type="curve"/>
			<point x="145" y="639" type="line"/>
			<point x="243" y="639" type="line" smooth="yes"/>
			<point x="333.128" y="639"/>
			<point x="402" y="594.09"/>
			<point x="402" y="501" type="curve" smooth="yes"/>
			<point x="402" y="409.844"/>
			<point x="334.656" y="367"/>
			<point x="244" y="367" type="curve" smooth="yes"/>
			<point x="211" y="367"/>
			<point x="178" y="367"/>
		</contour>
	</outline>
</glyph>
<glyph name="Q" format="2">
	<unicode hex="0051"/>
	<advance width="670"/>
	<outline>
		<contour>
			<point x="496" y="59" type="curve"/>
			<point x="566.881" y="118.068"/>
			<point x="609" y="229.683"/>
			<point x="609" y="357" type="curve" smooth="yes"/>
			<point x="609" y="550.944"/>
			<point x="516.341" y="720"/>
			<point x="325" y="720" type="curve" smooth="yes"/>
			<point x="132.921" y="720"/>
			<point x="41" y="550.797"/>
			<point x="41" y="357" type="curve" smooth="yes"/>
			<point x="41" y="162.882"/>
			<point x="134.053" y="-5"/>
			<point x="325" y="-5" type="curve" smooth="yes"/>
			<point x="350" y="-5"/>
			<point x="375" y="-1"/>
			<point x="400" y="6" type="curve"/>
			<point x="653" y="6" type="line"/>
			<point x="653" y="70" type="line"/>
			<point x="611.939" y="59.4037"/>
			<point x="552.579" y="59"/>
		</contour>
		<contour>
			<point x="532" y="357" type="curve" smooth="yes"/>
			<point x="532" y="231.749"/>
			<point x="488.009" y="124.62"/>
			<point x="407" y="81" type="curve" smooth="yes"/>
			<point x="380" y="67"/>
			<point x="353" y="60"/>
			<point x="325" y="60" type="curve" smooth="yes"/>
			<point x="179.51" y="60"/>
			<point x="118" y="208.115"/>
			<point x="118" y="357" type="curve" smooth="yes"/>
			<point x="118" y="505.61"/>
			<point x="179.062" y="655"/>
			<point x="325" y="655" type="curve" smooth="yes"/>
			<point x="470.43" y="655"/>
			<point x="532" y="505.826"/>
		</contour>
	</outline>
</glyph>
<glyph name="R" format="2">
	<unicode hex="0052"/>
	<advance width="522"/>
	<outline>
		<contour>
			<point x="478" y="507" type="curve" smooth="yes"/>
			<point x="478" y="641.544"/>
			<point x="377.701" y="707"/>
			<point x="245" y="707" type="curve" smooth="yes"/>
			<point x="69" y="707" type="line"/>
			<point x="69" y="6" type="line"/>
			<point x="145" y="6" type="line"/>
			<point x="145" y="305" type="line"/>
			<point x="178.333" y="305"/>
			<point x="211.667" y="305"/>
			<point x="245" y="305" type="curve" smooth="yes"/>
			<point x="282" y="305"/>
			<point x="316" y="282"/>
			<point x="348" y="237" type="curve" smooth="yes"/>
			<point x="375" y="197"/>
			<point x="397" y="120"/>
			<point x="414" y="6" type="curve"/>
			<point x="494" y="6" type="line"/>
			<point x="480" y="86"/>
			<point x="462" y="157"/>
			<point x="440" y="221" type="curve" smooth="yes"/>
			<point x="421" y="275"/>
			<point x="390" y="313"/>
			<point x="347" y="335" type="curve"/>
			<point x="417.781" y="356.234"/>
			<point x="478" y="413.352"/>
		</contour>
		<contour>
			<point x="145" y="377" type="curve"/>
			<point x="145" y="639" type="line"/>
			<point x="243" y="639" type="line" smooth="yes"/>
			<point x="330.45" y="639"/>
			<point x="402" y="595.85"/>
			<point x="402" y="507" type="curve" smooth="yes"/>
			<point x="402" y="419"/>
			<point x="331.391" y="377"/>
			<point x="244" y="377" type="curve" smooth="yes"/>
			<point x="211" y="377"/>
			<point x="178" y="377"/>
		</contour>
	</outline>
</glyph>
<glyph name="S" format="2">
	<unicode hex="0053"/>
	<advance width="485"/>
	<outline>
		<contour>
			<point x="434" y="195" type="curve" smooth="yes"/>
			<point x="434" y="399"/>
			<point x="114" y="408"/>
			<point x="114" y="546" type="curve" smooth="yes"/>
			<point x="114" y="612.469"/>
			<point x="164.34" y="655"/>
			<point x="232" y="655" type="curve" smooth="yes"/>
			<point x="281.758" y="655"/>
			<point x="364.174" y="630.723"/>
			<point x="393" y="615" type="curve"/>
			<point x="393" y="689" type="line"/>
			<point x="351.672" y="702.776"/>
			<point x="295.17" y="720"/>
			<point x="240" y="720" type="curve" smooth="yes"/>
			<point x="118.212" y="720"/>
			<point x="38" y="660.914"/>
			<point x="38" y="539" type="curve" smooth="yes"/>
			<point x="38" y="342"/>
			<point x="356" y="350"/>
			<point x="356" y="183" type="curve" smooth="yes"/>
			<point x="356" y="100.072"/>
			<point x="288.026" y="63"/>
			<point x="207" y="63" type="curve" smooth="yes"/>
			<point x="146.447" y="63"/>
			<point x="83.0572" y="86.4714"/>
			<point x="44" y="106" type="curve"/>
			<point x="44" y="24" type="line"/>
			<point x="81.0836" y="11.6388"/>
			<point x="147.33" y="-5"/>
			<point x="199" y="-5" type="curve" smooth="yes"/>
			<point x="339.034" y="-5"/>
			<point x="434" y="55.1167"/>
		</contour>
	</outline>
</glyph>
<glyph name="T" format="2">
	<unicode hex="0054"/>
	<advance width="530"/>
	<outline>
		<contour>
			<point x="503" y="638" type="line"/>
			<point x="503" y="707" type="line"/>
			<point x="27" y="707" type="line"/>
			<point x="27" y="638" type="line"/>
			<point x="227" y="638" type="line"/>
			<point x="227" y="6" type="line"/>
			<point x="303" y="6" type="line"/>
			<point x="303" y="638" type="line"/>
		</contour>
	</outline>
</glyph>
<glyph name="U" format="2">
	<unicode hex="0055"/>
	<advance width="591"/>
	<outline>
		<contour>
			<point x="295" y="64" type="curve" smooth="yes"/>
			<point x="267" y="64"/>
			<point x="243" y="70"/>
			<point x="223" y="82" type="curve" smooth="yes"/>
			<point x="202" y="93"/>
			<point x="186" y="108"/>
			<point x="176" y="128" type="curve" smooth="yes"/>
			<point x="164" y="148"/>
			<point x="156" y="171"/>
			<point x="152" y="196" type="curve" smooth="yes"/>
			<point x="147" y="220"/>
			<point x="145" y="245"/>
			<point x="145" y="271" type="curve" smooth="yes"/>
			<point x="145" y="707" type="line"/>
			<point x="69" y="707" type="line"/>
			<point x="69" y="268" type="line" smooth="yes"/>
			<point x="69" y="238"/>
			<point x="71" y="208"/>
			<point x="77" y="176" type="curve" smooth="yes"/>
			<point x="82" y="143"/>
			<point x="93" y="113"/>
			<point x="110" y="87" type="curve" smooth="yes"/>
			<point x="126" y="60"/>
			<point x="150" y="38"/>
			<point x="180" y="21" type="curve" smooth="yes"/>
			<point x="210" y="3"/>
			<point x="248" y="-5"/>
			<point x="295" y="-5" type="curve" smooth="yes"/>
			<point x="341" y="-5"/>
			<point x="380" y="3"/>
			<point x="410" y="21" type="curve" smooth="yes"/>
			<point x="440" y="38"/>
			<point x="463" y="60"/>
			<point x="480" y="87" type="curve" smooth="yes"/>
			<point x="496" y="113"/>
			<point x="508" y="143"/>
			<point x="514" y="176" type="curve" smooth="yes"/>
			<point x="519" y="208"/>
			<point x="522" y="238"/>
			<point x="522" y="268" type="curve" smooth="yes"/>
			<point x="522" y="707" type="line"/>
			<point x="446" y="707" type="line"/>
			<point x="446" y="271" type="line" smooth="yes"/>
			<point x="446" y="245"/>
			<point x="443" y="220"/>
			<point x="439" y="196" type="curve" smooth="yes"/>
			<point x="433" y="171"/>
			<point x="425" y="148"/>
			<point x="414" y="128" type="curve" smooth="yes"/>
			<point x="403" y="108"/>
			<point x="387" y="93"/>
			<point x="367" y="81" type="curve" smooth="yes"/>
			<point x="346" y="68"/>
			<point x="322" y="62"/>
		</contour>
	</outline>
</glyph>
<glyph name="V" format="2">
	<unicode hex="0056"/>
	<advance width="587"/>
	<outline>
		<contour>
			<point x="543" y="707" type="line"/>
			<point x="465" y="707" type="line"/>
			<point x="283" y="100" type="line"/>
			<point x="98" y="707" type="line"/>
			<point x="22" y="707" type="line"/>
			<point x="240" y="6" type="line"/>
			<point x="324" y="6" type="line"/>
		</contour>
	</outline>
</glyph>
<glyph name="W" format="2">
  <advance width="767"/>
  <unicode hex="0057"/>
  <outline>
    <contour>
      <point x="740" y="707" type="line"/>
      <point x="669" y="707" type="line"/>
      <point x="568" y="111" type="line"/>
      <point x="422" y="707" type="line"/>
      <point x="345" y="707" type="line"/>
      <point x="199" y="111" type="line"/>
      <point x="98" y="707" type="line"/>
      <point x="27" y="707" type="line"/>
      <point x="152" y="6" type="line"/>
      <point x="239" y="6" type="line"/>
      <point x="384" y="600" type="line"/>
      <point x="528" y="6" type="line"/>
      <point x="615" y="6" type="line"/>
    </contour>
  </outline>
</glyph>
<glyph name="X" format="2">
	<unicode hex="0058"/>
	<advance width="561"/>
	<outline>
		<contour>
			<point x="517" y="6" type="line"/>
			<point x="311" y="373" type="line"/>
			<point x="497" y="707" type="line"/>
			<point x="414" y="707" type="line"/>
			<point x="270" y="447" type="line"/>
			<point x="125" y="707" type="line"/>
			<point x="42" y="707" type="line"/>
			<point x="229" y="373" type="line"/>
			<point x="25" y="6" type="line"/>
			<point x="105" y="6" type="line"/>
			<point x="269" y="300" type="line"/>
			<point x="434" y="6" type="line"/>
		</contour>
	</outline>
</glyph>
<glyph name="Y" format="2">
  <advance width="540"/>
  <unicode hex="0059"/>
  <outline>
    <contour>
      <point x="269" y="400" type="line"/>
      <point x="108" y="707" type="line"/>
      <point x="26" y="707" type="line"/>
      <point x="232" y="326" type="line"/>
      <point x="232" y="6" type="line"/>
      <point x="308" y="6" type="line"/>
      <point x="308" y="326" type="line"/>
      <point x="514" y="707" type="line"/>
      <point x="431" y="707" type="line"/>
    </contour>
  </outline>
</glyph>
<glyph name="Z" format="2">
	<unicode hex="005A"/>
	<advance width="500"/>
	<outline>
		<contour>
			<point x="477" y="6" type="line"/>
			<point x="477" y="75" type="line"/>
			<point x="118" y="75" type="line"/>
			<point x="456" y="636" type="line"/>
			<point x="456" y="707" type="line"/>
			<point x="49" y="707" type="line"/>
			<point x="49" y="638" type="line"/>
			<point x="371" y="638" type="line"/>
			<point x="34" y="76" type="line"/>
			<point x="34" y="6" type="line"/>
		</contour>
	</outline>
</glyph>
<glyph name="bracketleft" format="2">
	<unicode hex="005B"/>
	<advance width="330"/>
	<outline>
		<contour>
			<point x="281" y="-133" type="line"/>
			<point x="281" y="-73" type="line"/>
			<point x="184" y="-73" type="line"/>
			<point x="184" y="732" type="line"/>
			<point x="281" y="732" type="line"/>
			<point x="281" y="792" type="line"/>
			<point x="111" y="792" type="line"/>
			<point x="111" y="-133" type="line"/>
		</contour>
	</outline>
</glyph>
<glyph name="bracketright" format="2">
	<unicode hex="005D"/>
	<advance width="330"/>
	<outline>
		<contour>
			<point x="208" y="-133" type="line"/>
			<point x="208" y="792" type="line"/>
			<point x="37" y="792" type="line"/>
			<point x="37" y="732" type="line"/>
			<point x="134" y="732" type="line"/>
			<point x="134" y="-73" type="line"/>
			<point x="37" y="-73" type="line"/>
			<point x="37" y="-133" type="line"/>
		</contour>
	</outline>
</glyph>
<glyph name="asciicircum" format="2">
	<unicode hex="005E"/>
	<advance width="423"/>
	<outline>
		<contour>
			<point x="177" y="728" type="line"/>
			<point x="46" y="498" type="line"/>
			<point x="118" y="498" type="line"/>
			<point x="213" y="668" type="line"/>
			<point x="305" y="498" type="line"/>
			<point x="378" y="498" type="line"/>
			<point x="248" y="728" type="line"/>
		</contour>
	</outline>
</glyph>
<glyph name="underscore" format="2">
	<unicode hex="005F"/>
	<advance width="468"/>
	<outline>
		<contour>
			<point x="449" y="-109" type="line"/>
			<point x="449" y="-57" type="line"/>
			<point x="2" y="-57" type="line"/>
			<point x="2" y="-109" type="line"/>
		</contour>
	</outline>
</glyph>
<glyph name="grave" format="2">
	<unicode hex="0060"/>
	<advance width="274"/>
	<outline>
		<contour>
			<point x="195" y="543" type="line"/>
			<point x="139" y="713" type="line"/>
			<point x="53" y="713" type="line"/>
			<point x="132" y="543" type="line"/>
		</contour>
	</outline>
</glyph>
<glyph name="a" format="2">
	<unicode hex="0061"/>
	<advance width="472"/>
	<outline>
		<contour>
			<point x="409" y="6" type="line"/>
			<point x="409" y="344" type="line" smooth="yes"/>
			<point x="409" y="445.851"/>
			<point x="338.458" y="510"/>
			<point x="231" y="510" type="curve" smooth="yes"/>
			<point x="134.539" y="510"/>
			<point x="51" y="461.258"/>
			<point x="51" y="369" type="curve"/>
			<point x="135" y="369" type="line"/>
			<point x="135" y="417.363"/>
			<point x="180.723" y="449"/>
			<point x="231" y="449" type="curve" smooth="yes"/>
			<point x="297.909" y="449"/>
			<point x="335" y="405.149"/>
			<point x="335" y="340" type="curve" smooth="yes"/>
			<point x="335" y="294" type="line"/>
			<point x="257" y="294" type="line" smooth="yes"/>
			<point x="137.257" y="294"/>
			<point x="39" y="242.793"/>
			<point x="39" y="124" type="curve" smooth="yes"/>
			<point x="39" y="50.1232"/>
			<point x="88.468" y="-5"/>
			<point x="161" y="-5" type="curve" smooth="yes"/>
			<point x="236.968" y="-5"/>
			<point x="303.39" y="25.7695"/>
			<point x="335" y="66" type="curve"/>
			<point x="335" y="6" type="line"/>
		</contour>
		<contour>
			<point x="335" y="191" type="line" smooth="yes"/>
			<point x="335" y="113.522"/>
			<point x="269.513" y="56"/>
			<point x="193" y="56" type="curve" smooth="yes"/>
			<point x="145.045" y="56"/>
			<point x="115" y="83.4239"/>
			<point x="115" y="134" type="curve" smooth="yes"/>
			<point x="115" y="229.41"/>
			<point x="238.405" y="238"/>
			<point x="335" y="238" type="curve"/>
		</contour>
	</outline>
</glyph>
<glyph name="b" format="2">
	<unicode hex="0062"/>
	<advance width="500"/>
	<outline>
		<contour>
			<point x="385" y="252" type="curve" smooth="yes"/>
			<point x="385" y="156.487"/>
			<point x="351.939" y="56"/>
			<point x="261" y="56" type="curve" smooth="yes"/>
			<point x="170.063" y="56"/>
			<point x="138" y="158.273"/>
			<point x="138" y="252" type="curve" smooth="yes"/>
			<point x="138" y="339.952"/>
			<point x="175.36" y="448"/>
			<point x="261" y="448" type="curve" smooth="yes"/>
			<point x="351.73" y="448"/>
			<point x="385" y="345.88"/>
		</contour>
		<contour>
			<point x="262" y="-5" type="curve" smooth="yes"/>
			<point x="407.668" y="-5"/>
			<point x="461" y="108.107"/>
			<point x="461" y="257" type="curve" smooth="yes"/>
			<point x="461" y="393.643"/>
			<point x="403.419" y="510"/>
			<point x="267" y="510" type="curve" smooth="yes"/>
			<point x="213" y="510"/>
			<point x="170" y="484"/>
			<point x="137" y="432" type="curve"/>
			<point x="137" y="707" type="line"/>
			<point x="64" y="707" type="line"/>
			<point x="64" y="257" type="line" smooth="yes"/>
			<point x="64" y="108.632"/>
			<point x="116.113" y="-5"/>
		</contour>
	</outline>
</glyph>
<glyph name="c" format="2">
	<unicode hex="0063"/>
	<advance width="472"/>
	<outline>
		<contour>
			<point x="429" y="344" type="line"/>
			<point x="429" y="446.341"/>
			<point x="354.245" y="510"/>
			<point x="252" y="510" type="curve" smooth="yes"/>
			<point x="109.212" y="510"/>
			<point x="39" y="405.261"/>
			<point x="39" y="263" type="curve" smooth="yes"/>
			<point x="39" y="104.376"/>
			<point x="119.352" y="-5.6875"/>
			<point x="276.434" y="-5.6875" type="curve" smooth="yes"/>
			<point x="333.44" y="-5.6875"/>
			<point x="375.686" y="5.80649"/>
			<point x="415" y="30" type="curve"/>
			<point x="415" y="91" type="line"/>
			<point x="378.929" y="69.9585"/>
			<point x="336.798" y="57"/>
			<point x="291" y="57" type="curve" smooth="yes"/>
			<point x="170.63" y="57"/>
			<point x="117" y="145.224"/>
			<point x="117" y="262" type="curve" smooth="yes"/>
			<point x="117" y="359.689"/>
			<point x="159.608" y="449"/>
			<point x="250" y="449" type="curve" smooth="yes"/>
			<point x="310.711" y="449"/>
			<point x="350" y="401.705"/>
			<point x="350" y="344" type="curve"/>
		</contour>
	</outline>
</glyph>
<glyph name="d" format="2">
	<unicode hex="0064"/>
	<advance width="500"/>
	<outline>
		<contour>
			<point x="39" y="257" type="curve" smooth="yes"/>
			<point x="39" y="117.755"/>
			<point x="94.7352" y="-5"/>
			<point x="229" y="-5" type="curve" smooth="yes"/>
			<point x="285.509" y="-5"/>
			<point x="347.121" y="33.4362"/>
			<point x="363" y="72" type="curve"/>
			<point x="363" y="6" type="line"/>
			<point x="436" y="6" type="line"/>
			<point x="436" y="707" type="line"/>
			<point x="363" y="707" type="line"/>
			<point x="363" y="432" type="line"/>
			<point x="329" y="484"/>
			<point x="286" y="510"/>
			<point x="233" y="510" type="curve" smooth="yes"/>
			<point x="100.043" y="510"/>
			<point x="39" y="389.087"/>
		</contour>
		<contour>
			<point x="115" y="252" type="curve" smooth="yes"/>
			<point x="115" y="341.41"/>
			<point x="151.984" y="448"/>
			<point x="239" y="448" type="curve" smooth="yes"/>
			<point x="324.04" y="448"/>
			<point x="362" y="340.937"/>
			<point x="362" y="252" type="curve" smooth="yes"/>
			<point x="362" y="162.812"/>
			<point x="325.107" y="56"/>
			<point x="239" y="56" type="curve" smooth="yes"/>
			<point x="151.551" y="56"/>
			<point x="115" y="161.635"/>
		</contour>
	</outline>
</glyph>
<glyph name="e" format="2">
	<unicode hex="0065"/>
	<advance width="490"/>
	<outline>
		<contour>
			<point x="429" y="344" type="line" smooth="yes"/>
			<point x="429" y="446.341"/>
			<point x="354.245" y="510"/>
			<point x="252" y="510" type="curve" smooth="yes"/>
			<point x="108.795" y="510"/>
			<point x="39" y="405.087"/>
			<point x="39" y="263" type="curve" smooth="yes"/>
			<point x="39" y="104.449"/>
			<point x="119.111" y="-5.6875"/>
			<point x="276.434" y="-5.6875" type="curve" smooth="yes"/>
			<point x="333.44" y="-5.6875"/>
			<point x="375.686" y="5.80649"/>
			<point x="415" y="30" type="curve"/>
			<point x="415" y="91" type="line"/>
			<point x="378.929" y="69.9585"/>
			<point x="336.798" y="57"/>
			<point x="291" y="57" type="curve" smooth="yes"/>
			<point x="170.63" y="57"/>
			<point x="117" y="145.224"/>
			<point x="117" y="262" type="curve" smooth="yes"/>
			<point x="117" y="269"/>
			<point x="117" y="276"/>
			<point x="118" y="283" type="curve"/>
			<point x="429" y="283" type="line"/>
		</contour>
		<contour>
			<point x="127" y="344" type="line"/>
			<point x="145.553" y="399.66"/>
			<point x="187.335" y="449"/>
			<point x="250" y="449" type="curve" smooth="yes"/>
			<point x="310.711" y="449"/>
			<point x="350" y="401.705"/>
			<point x="350" y="344" type="curve"/>
		</contour>
	</outline>
</glyph>
<glyph name="f" format="2">
	<unicode hex="0066"/>
	<advance width="350"/>
	<outline>
		<contour>
			<point x="346" y="645" type="curve"/>
			<point x="346" y="709" type="line"/>
			<point x="321.343" y="713.483"/>
			<point x="289.293" y="720"/>
			<point x="259" y="720" type="curve" smooth="yes"/>
			<point x="136.516" y="716.69"/>
			<point x="106" y="647.968"/>
			<point x="106" y="527" type="curve" smooth="yes"/>
			<point x="106" y="498" type="line"/>
			<point x="26" y="498" type="line"/>
			<point x="26" y="437" type="line"/>
			<point x="106" y="437" type="line"/>
			<point x="106" y="6" type="line"/>
			<point x="182" y="6" type="line"/>
			<point x="182" y="437" type="line"/>
			<point x="313" y="437" type="line"/>
			<point x="313" y="498" type="line"/>
			<point x="182" y="498" type="line"/>
			<point x="182" y="547" type="line" smooth="yes"/>
			<point x="182" y="613.072"/>
			<point x="197.506" y="659"/>
			<point x="263" y="659" type="curve" smooth="yes"/>
			<point x="294.504" y="659"/>
			<point x="321.105" y="652.66"/>
		</contour>
	</outline>
</glyph>
<glyph name="g" format="2">
	<unicode hex="0067"/>
	<advance width="500"/>
	<outline>
		<contour>
			<point x="114" y="262" type="curve" smooth="yes"/>
			<point x="114" y="288"/>
			<point x="117" y="312"/>
			<point x="123" y="333" type="curve" smooth="yes"/>
			<point x="129" y="353"/>
			<point x="138" y="373"/>
			<point x="150" y="392" type="curve" smooth="yes"/>
			<point x="161" y="409"/>
			<point x="175" y="423"/>
			<point x="191" y="433" type="curve" smooth="yes"/>
			<point x="206" y="443"/>
			<point x="222" y="448"/>
			<point x="238" y="448" type="curve" smooth="yes"/>
			<point x="254" y="448"/>
			<point x="270" y="442"/>
			<point x="286" y="432" type="curve" smooth="yes"/>
			<point x="301" y="421"/>
			<point x="314" y="407"/>
			<point x="326" y="391" type="curve" smooth="yes"/>
			<point x="338" y="373"/>
			<point x="347" y="353"/>
			<point x="353" y="333" type="curve" smooth="yes"/>
			<point x="359" y="312"/>
			<point x="362" y="288"/>
			<point x="362" y="262" type="curve" smooth="yes"/>
			<point x="362" y="235"/>
			<point x="359" y="211"/>
			<point x="353" y="190" type="curve" smooth="yes"/>
			<point x="346" y="168"/>
			<point x="337" y="149"/>
			<point x="326" y="133" type="curve" smooth="yes"/>
			<point x="314" y="115"/>
			<point x="301" y="102"/>
			<point x="286" y="92" type="curve" smooth="yes"/>
			<point x="270" y="81"/>
			<point x="254" y="76"/>
			<point x="238" y="76" type="curve" smooth="yes"/>
			<point x="222" y="76"/>
			<point x="206" y="81"/>
			<point x="191" y="91" type="curve" smooth="yes"/>
			<point x="175" y="100"/>
			<point x="161" y="114"/>
			<point x="150" y="132" type="curve" smooth="yes"/>
			<point x="138" y="150"/>
			<point x="130" y="169"/>
			<point x="124" y="191" type="curve" smooth="yes"/>
			<point x="117" y="211"/>
			<point x="114" y="235"/>
		</contour>
		<contour>
			<point x="436" y="46" type="curve" smooth="yes"/>
			<point x="436" y="498" type="line"/>
			<point x="363" y="498" type="line"/>
			<point x="363" y="432" type="line"/>
			<point x="331" y="484"/>
			<point x="288" y="510"/>
			<point x="232" y="510" type="curve" smooth="yes"/>
			<point x="201" y="510"/>
			<point x="173" y="503"/>
			<point x="148" y="489" type="curve" smooth="yes"/>
			<point x="122" y="474"/>
			<point x="101" y="455"/>
			<point x="86" y="432" type="curve" smooth="yes"/>
			<point x="70" y="408"/>
			<point x="59" y="383"/>
			<point x="51" y="357" type="curve" smooth="yes"/>
			<point x="42" y="329"/>
			<point x="38" y="299"/>
			<point x="38" y="267" type="curve" smooth="yes"/>
			<point x="38" y="225"/>
			<point x="43" y="189"/>
			<point x="53" y="160" type="curve" smooth="yes"/>
			<point x="63" y="130"/>
			<point x="76" y="104"/>
			<point x="92" y="83" type="curve" smooth="yes"/>
			<point x="108" y="61"/>
			<point x="128" y="44"/>
			<point x="153" y="33" type="curve" smooth="yes"/>
			<point x="177" y="21"/>
			<point x="202" y="15"/>
			<point x="228" y="15" type="curve" smooth="yes"/>
			<point x="260" y="15"/>
			<point x="289" y="23"/>
			<point x="315" y="41" type="curve" smooth="yes"/>
			<point x="340" y="58"/>
			<point x="356" y="75"/>
			<point x="363" y="92" type="curve"/>
			<point x="363" y="59" type="line" smooth="yes"/>
			<point x="363" y="45"/>
			<point x="362" y="31"/>
			<point x="361" y="15" type="curve" smooth="yes"/>
			<point x="358" y="-19"/>
			<point x="345" y="-46"/>
			<point x="322" y="-68" type="curve" smooth="yes"/>
			<point x="298" y="-88"/>
			<point x="265" y="-99"/>
			<point x="223" y="-99" type="curve" smooth="yes"/>
			<point x="197" y="-99"/>
			<point x="171" y="-96"/>
			<point x="144" y="-90" type="curve" smooth="yes"/>
			<point x="116" y="-84"/>
			<point x="92" y="-75"/>
			<point x="73" y="-64" type="curve"/>
			<point x="73" y="-142" type="line"/>
			<point x="87" y="-149"/>
			<point x="109" y="-155"/>
			<point x="138" y="-160" type="curve" smooth="yes"/>
			<point x="166" y="-164"/>
			<point x="192" y="-166"/>
			<point x="214" y="-166" type="curve" smooth="yes"/>
			<point x="284" y="-166"/>
			<point x="338" y="-148"/>
			<point x="378" y="-112" type="curve" smooth="yes"/>
			<point x="414" y="-78"/>
			<point x="434" y="-25"/>
		</contour>
	</outline>
</glyph>
<glyph name="h" format="2">
	<unicode hex="0068"/>
	<advance width="520"/>
	<outline>
		<contour>
			<point x="436" y="6" type="line"/>
			<point x="436" y="337" type="line" smooth="yes"/>
			<point x="436" y="445.605"/>
			<point x="381.399" y="510"/>
			<point x="274" y="510" type="curve" smooth="yes"/>
			<point x="213.667" y="510"/>
			<point x="155.471" y="460.179"/>
			<point x="137" y="414" type="curve"/>
			<point x="137" y="707" type="line"/>
			<point x="64" y="707" type="line"/>
			<point x="64" y="6" type="line"/>
			<point x="137" y="6" type="line"/>
			<point x="137" y="222" type="line" smooth="yes"/>
			<point x="137" y="323.668"/>
			<point x="175.271" y="444"/>
			<point x="268" y="444" type="curve" smooth="yes"/>
			<point x="335.885" y="444"/>
			<point x="362" y="389.052"/>
			<point x="362" y="325" type="curve" smooth="yes"/>
			<point x="362" y="6" type="line"/>
		</contour>
	</outline>
</glyph>
<glyph name="i" format="2">
	<unicode hex="0069"/>
	<advance width="212"/>
	<outline>
		<contour>
			<point x="150" y="609" type="line"/>
			<point x="150" y="707" type="line"/>
			<point x="60" y="707" type="line"/>
			<point x="60" y="609" type="line"/>
		</contour>
		<contour>
			<point x="144" y="6" type="line"/>
			<point x="144" y="498" type="line"/>
			<point x="68" y="498" type="line"/>
			<point x="68" y="6" type="line"/>
		</contour>
	</outline>
</glyph>
<glyph name="j" format="2">
  <advance width="238"/>
  <unicode hex="006A"/>
  <outline>
    <contour>
      <point x="182" y="609" type="line"/>
      <point x="182" y="707" type="line"/>
      <point x="92" y="707" type="line"/>
      <point x="92" y="609" type="line"/>
    </contour>
    <contour>
      <point x="174" y="16" type="curve" smooth="yes"/>
      <point x="174" y="498" type="line"/>
      <point x="100" y="498" type="line"/>
      <point x="100" y="-4" type="line" smooth="yes"/>
      <point x="100" y="-48"/>
      <point x="81" y="-78"/>
      <point x="45" y="-93" type="curve" smooth="yes"/>
      <point x="31" y="-97"/>
      <point x="9" y="-99"/>
      <point x="-21" y="-98" type="curve"/>
      <point x="-21" y="-166" type="line"/>
      <point x="3" y="-166"/>
      <point x="29" y="-164"/>
      <point x="55" y="-160" type="curve" smooth="yes"/>
      <point x="81" y="-155"/>
      <point x="103" y="-146"/>
      <point x="121" y="-133" type="curve" smooth="yes"/>
      <point x="139" y="-119"/>
      <point x="152" y="-100"/>
      <point x="161" y="-76" type="curve" smooth="yes"/>
      <point x="169" y="-53"/>
      <point x="173" y="-22"/>
    </contour>
  </outline>
</glyph>
<glyph name="k" format="2">
  <advance width="460"/>
  <unicode hex="006B"/>
  <outline>
    <contour>
      <point x="438" y="6" type="line"/>
      <point x="204" y="279" type="line"/>
      <point x="431" y="498" type="line"/>
      <point x="335" y="498" type="line"/>
      <point x="137" y="300" type="line"/>
      <point x="137" y="707" type="line"/>
      <point x="64" y="707" type="line"/>
      <point x="64" y="6" type="line"/>
      <point x="137" y="6" type="line"/>
      <point x="137" y="246" type="line"/>
      <point x="346" y="6" type="line"/>
    </contour>
  </outline>
</glyph>
<glyph name="l" format="2">
	<unicode hex="006C"/>
	<advance width="212"/>
	<outline>
		<contour>
			<point x="144" y="6" type="line"/>
			<point x="144" y="707" type="line"/>
			<point x="68" y="707" type="line"/>
			<point x="68" y="6" type="line"/>
		</contour>
	</outline>
</glyph>
<glyph name="m" format="2">
	<unicode hex="006D"/>
	<advance width="716"/>
	<outline>
		<contour>
			<point x="652" y="6" type="line"/>
			<point x="652" y="332" type="line" smooth="yes"/>
			<point x="652" y="394"/>
			<point x="639" y="439"/>
			<point x="613" y="468" type="curve" smooth="yes"/>
			<point x="586" y="496"/>
			<point x="553" y="510"/>
			<point x="513" y="510" type="curve" smooth="yes"/>
			<point x="473" y="510"/>
			<point x="440" y="495"/>
			<point x="415" y="467" type="curve" smooth="yes"/>
			<point x="399" y="449"/>
			<point x="389" y="433"/>
			<point x="383" y="417" type="curve"/>
			<point x="375" y="441"/>
			<point x="362" y="462"/>
			<point x="346" y="478" type="curve" smooth="yes"/>
			<point x="322" y="500"/>
			<point x="291" y="510"/>
			<point x="253" y="510" type="curve" smooth="yes"/>
			<point x="219" y="510"/>
			<point x="191" y="497"/>
			<point x="168" y="472" type="curve" smooth="yes"/>
			<point x="152" y="455"/>
			<point x="141" y="438"/>
			<point x="135" y="420" type="curve"/>
			<point x="135" y="498" type="line"/>
			<point x="64" y="498" type="line"/>
			<point x="64" y="6" type="line"/>
			<point x="135" y="6" type="line"/>
			<point x="135" y="218" type="line" smooth="yes"/>
			<point x="135" y="246"/>
			<point x="138" y="272"/>
			<point x="142" y="296" type="curve" smooth="yes"/>
			<point x="145" y="319"/>
			<point x="151" y="342"/>
			<point x="160" y="365" type="curve" smooth="yes"/>
			<point x="169" y="389"/>
			<point x="181" y="407"/>
			<point x="195" y="420" type="curve" smooth="yes"/>
			<point x="209" y="432"/>
			<point x="225" y="438"/>
			<point x="244" y="438" type="curve" smooth="yes"/>
			<point x="260" y="438"/>
			<point x="274" y="434"/>
			<point x="286" y="428" type="curve" smooth="yes"/>
			<point x="296" y="420"/>
			<point x="305" y="409"/>
			<point x="311" y="394" type="curve" smooth="yes"/>
			<point x="316" y="380"/>
			<point x="320" y="363"/>
			<point x="322" y="344" type="curve" smooth="yes"/>
			<point x="323" y="324"/>
			<point x="324" y="305"/>
			<point x="324" y="288" type="curve" smooth="yes"/>
			<point x="324" y="6" type="line"/>
			<point x="392" y="6" type="line"/>
			<point x="392" y="218" type="line" smooth="yes"/>
			<point x="392" y="229"/>
			<point x="392" y="241"/>
			<point x="393" y="253" type="curve" smooth="yes"/>
			<point x="393" y="264"/>
			<point x="395" y="277"/>
			<point x="397" y="291" type="curve" smooth="yes"/>
			<point x="403" y="336"/>
			<point x="415" y="372"/>
			<point x="435" y="399" type="curve" smooth="yes"/>
			<point x="454" y="425"/>
			<point x="477" y="438"/>
			<point x="504" y="438" type="curve" smooth="yes"/>
			<point x="518" y="438"/>
			<point x="531" y="434"/>
			<point x="543" y="428" type="curve" smooth="yes"/>
			<point x="554" y="420"/>
			<point x="563" y="409"/>
			<point x="569" y="394" type="curve" smooth="yes"/>
			<point x="573" y="382"/>
			<point x="577" y="365"/>
			<point x="579" y="345" type="curve" smooth="yes"/>
			<point x="580" y="324"/>
			<point x="581" y="305"/>
			<point x="581" y="288" type="curve" smooth="yes"/>
			<point x="581" y="6" type="line"/>
		</contour>
	</outline>
</glyph>
<glyph name="n" format="2">
	<unicode hex="006E"/>
	<advance width="500"/>
	<outline>
		<contour>
			<point x="436" y="6" type="line"/>
			<point x="436" y="337" type="line" smooth="yes"/>
			<point x="436" y="445.605"/>
			<point x="381.399" y="510"/>
			<point x="274" y="510" type="curve" smooth="yes"/>
			<point x="213.667" y="510"/>
			<point x="155.471" y="460.179"/>
			<point x="137" y="414" type="curve"/>
			<point x="137" y="498" type="line"/>
			<point x="64" y="498" type="line"/>
			<point x="64" y="6" type="line"/>
			<point x="137" y="6" type="line"/>
			<point x="137" y="222" type="line" smooth="yes"/>
			<point x="137" y="324.836"/>
			<point x="175.662" y="444"/>
			<point x="268" y="444" type="curve" smooth="yes"/>
			<point x="335.885" y="444"/>
			<point x="362" y="389.052"/>
			<point x="362" y="325" type="curve" smooth="yes"/>
			<point x="362" y="6" type="line"/>
		</contour>
	</outline>
</glyph>
<glyph name="o" format="2">
	<unicode hex="006F"/>
	<advance width="500"/>
	<outline>
		<contour>
			<point x="383" y="252" type="curve" smooth="yes"/>
			<point x="383" y="152.66"/>
			<point x="345.896" y="55"/>
			<point x="250" y="55" type="curve" smooth="yes"/>
			<point x="153.637" y="55"/>
			<point x="117" y="152.664"/>
			<point x="117" y="252" type="curve" smooth="yes"/>
			<point x="117" y="350.891"/>
			<point x="152.569" y="450"/>
			<point x="250" y="450" type="curve" smooth="yes"/>
			<point x="346.947" y="450"/>
			<point x="383" y="350.892"/>
		</contour>
		<contour>
			<point x="461" y="252" type="curve" smooth="yes"/>
			<point x="461" y="392.426"/>
			<point x="388.329" y="510"/>
			<point x="250" y="510" type="curve" smooth="yes"/>
			<point x="110.243" y="510"/>
			<point x="39" y="392.148"/>
			<point x="39" y="252" type="curve" smooth="yes"/>
			<point x="39" y="111.208"/>
			<point x="111.455" y="-5"/>
			<point x="250" y="-5" type="curve" smooth="yes"/>
			<point x="387.097" y="-5"/>
			<point x="461" y="110.934"/>
		</contour>
	</outline>
</glyph>
<glyph name="p" format="2">
	<unicode hex="0070"/>
	<advance width="500"/>
	<outline>
		<contour>
			<point x="461" y="259" type="curve" smooth="yes"/>
			<point x="461" y="291"/>
			<point x="457" y="323"/>
			<point x="449" y="353" type="curve" smooth="yes"/>
			<point x="440" y="382"/>
			<point x="428" y="408"/>
			<point x="413" y="432" type="curve" smooth="yes"/>
			<point x="397" y="455"/>
			<point x="376" y="474"/>
			<point x="351" y="489" type="curve" smooth="yes"/>
			<point x="325" y="503"/>
			<point x="297" y="510"/>
			<point x="267" y="510" type="curve" smooth="yes"/>
			<point x="213" y="510"/>
			<point x="170" y="484"/>
			<point x="137" y="432" type="curve"/>
			<point x="137" y="498" type="line"/>
			<point x="64" y="498" type="line"/>
			<point x="64" y="-166" type="line"/>
			<point x="137" y="-166" type="line"/>
			<point x="137" y="76" type="line"/>
			<point x="143" y="59"/>
			<point x="159" y="42"/>
			<point x="185" y="25" type="curve" smooth="yes"/>
			<point x="210" y="7"/>
			<point x="239" y="-1"/>
			<point x="271" y="-1" type="curve" smooth="yes"/>
			<point x="297" y="-1"/>
			<point x="322" y="5"/>
			<point x="347" y="17" type="curve" smooth="yes"/>
			<point x="371" y="28"/>
			<point x="391" y="45"/>
			<point x="407" y="67" type="curve" smooth="yes"/>
			<point x="423" y="88"/>
			<point x="436" y="115"/>
			<point x="446" y="148" type="curve" smooth="yes"/>
			<point x="456" y="180"/>
			<point x="461" y="217"/>
		</contour>
		<contour>
			<point x="385" y="254" type="curve" smooth="yes"/>
			<point x="385" y="227"/>
			<point x="382" y="202"/>
			<point x="376" y="179" type="curve" smooth="yes"/>
			<point x="369" y="155"/>
			<point x="360" y="134"/>
			<point x="349" y="116" type="curve" smooth="yes"/>
			<point x="338" y="98"/>
			<point x="325" y="84"/>
			<point x="309" y="75" type="curve" smooth="yes"/>
			<point x="293" y="65"/>
			<point x="277" y="60"/>
			<point x="261" y="60" type="curve" smooth="yes"/>
			<point x="245" y="60"/>
			<point x="229" y="65"/>
			<point x="214" y="75" type="curve" smooth="yes"/>
			<point x="198" y="85"/>
			<point x="184" y="99"/>
			<point x="174" y="117" type="curve" smooth="yes"/>
			<point x="162" y="135"/>
			<point x="154" y="155"/>
			<point x="148" y="179" type="curve" smooth="yes"/>
			<point x="141" y="202"/>
			<point x="138" y="227"/>
			<point x="138" y="254" type="curve" smooth="yes"/>
			<point x="138" y="280"/>
			<point x="141" y="305"/>
			<point x="148" y="329" type="curve" smooth="yes"/>
			<point x="154" y="352"/>
			<point x="162" y="373"/>
			<point x="174" y="391" type="curve" smooth="yes"/>
			<point x="184" y="407"/>
			<point x="198" y="421"/>
			<point x="214" y="432" type="curve" smooth="yes"/>
			<point x="229" y="442"/>
			<point x="245" y="448"/>
			<point x="261" y="448" type="curve" smooth="yes"/>
			<point x="277" y="448"/>
			<point x="293" y="443"/>
			<point x="309" y="433" type="curve" smooth="yes"/>
			<point x="324" y="423"/>
			<point x="337" y="409"/>
			<point x="349" y="392" type="curve" smooth="yes"/>
			<point x="360" y="374"/>
			<point x="369" y="353"/>
			<point x="376" y="330" type="curve" smooth="yes"/>
			<point x="382" y="306"/>
			<point x="385" y="280"/>
		</contour>
	</outline>
</glyph>
<glyph name="q" format="2">
	<unicode hex="0071"/>
	<advance width="500"/>
	<outline>
		<contour>
			<point x="39" y="259" type="curve" smooth="yes"/>
			<point x="39" y="217"/>
			<point x="44" y="180"/>
			<point x="54" y="148" type="curve" smooth="yes"/>
			<point x="64" y="115"/>
			<point x="77" y="88"/>
			<point x="93" y="67" type="curve" smooth="yes"/>
			<point x="109" y="45"/>
			<point x="129" y="28"/>
			<point x="154" y="17" type="curve" smooth="yes"/>
			<point x="178" y="5"/>
			<point x="203" y="-1"/>
			<point x="229" y="-1" type="curve" smooth="yes"/>
			<point x="261" y="-1"/>
			<point x="289" y="7"/>
			<point x="315" y="25" type="curve" smooth="yes"/>
			<point x="340" y="42"/>
			<point x="356" y="59"/>
			<point x="363" y="76" type="curve"/>
			<point x="363" y="-166" type="line"/>
			<point x="436" y="-166" type="line"/>
			<point x="436" y="498" type="line"/>
			<point x="363" y="498" type="line"/>
			<point x="363" y="432" type="line"/>
			<point x="329" y="484"/>
			<point x="286" y="510"/>
			<point x="233" y="510" type="curve" smooth="yes"/>
			<point x="202" y="510"/>
			<point x="174" y="503"/>
			<point x="149" y="489" type="curve" smooth="yes"/>
			<point x="123" y="474"/>
			<point x="103" y="455"/>
			<point x="87" y="432" type="curve" smooth="yes"/>
			<point x="71" y="408"/>
			<point x="60" y="382"/>
			<point x="52" y="353" type="curve" smooth="yes"/>
			<point x="43" y="323"/>
			<point x="39" y="291"/>
		</contour>
		<contour>
			<point x="115" y="254" type="curve" smooth="yes"/>
			<point x="115" y="280"/>
			<point x="118" y="306"/>
			<point x="125" y="330" type="curve" smooth="yes"/>
			<point x="131" y="353"/>
			<point x="139" y="374"/>
			<point x="151" y="392" type="curve" smooth="yes"/>
			<point x="162" y="409"/>
			<point x="176" y="423"/>
			<point x="192" y="433" type="curve" smooth="yes"/>
			<point x="207" y="443"/>
			<point x="223" y="448"/>
			<point x="239" y="448" type="curve" smooth="yes"/>
			<point x="255" y="448"/>
			<point x="271" y="442"/>
			<point x="287" y="432" type="curve" smooth="yes"/>
			<point x="302" y="421"/>
			<point x="315" y="407"/>
			<point x="326" y="391" type="curve" smooth="yes"/>
			<point x="337" y="373"/>
			<point x="346" y="352"/>
			<point x="353" y="329" type="curve" smooth="yes"/>
			<point x="359" y="305"/>
			<point x="362" y="280"/>
			<point x="362" y="254" type="curve" smooth="yes"/>
			<point x="362" y="227"/>
			<point x="359" y="202"/>
			<point x="353" y="179" type="curve" smooth="yes"/>
			<point x="346" y="155"/>
			<point x="337" y="135"/>
			<point x="326" y="117" type="curve" smooth="yes"/>
			<point x="315" y="99"/>
			<point x="302" y="85"/>
			<point x="287" y="75" type="curve" smooth="yes"/>
			<point x="271" y="65"/>
			<point x="255" y="60"/>
			<point x="239" y="60" type="curve" smooth="yes"/>
			<point x="223" y="60"/>
			<point x="207" y="65"/>
			<point x="191" y="75" type="curve" smooth="yes"/>
			<point x="175" y="84"/>
			<point x="161" y="98"/>
			<point x="151" y="116" type="curve" smooth="yes"/>
			<point x="139" y="134"/>
			<point x="131" y="155"/>
			<point x="125" y="179" type="curve" smooth="yes"/>
			<point x="118" y="202"/>
			<point x="115" y="227"/>
		</contour>
	</outline>
</glyph>
<glyph name="r" format="2">
	<unicode hex="0072"/>
	<advance width="350"/>
	<outline>
		<contour>
			<point x="331" y="434" type="curve"/>
			<point x="331" y="510" type="line"/>
			<point x="229.892" y="507.894"/>
			<point x="173.976" y="466.357"/>
			<point x="136" y="398" type="curve"/>
			<point x="136" y="498" type="line"/>
			<point x="64" y="498" type="line"/>
			<point x="64" y="6" type="line"/>
			<point x="136" y="6" type="line"/>
			<point x="136" y="211" type="line" smooth="yes"/>
			<point x="136" y="350.796"/>
			<point x="193.07" y="434"/>
		</contour>
	</outline>
</glyph>
<glyph name="s" format="2">
	<unicode hex="0073"/>
	<advance width="394"/>
	<outline>
		<contour>
			<point x="361" y="135" type="curve" smooth="yes"/>
			<point x="361" y="308"/>
			<point x="111" y="264"/>
			<point x="111" y="385" type="curve" smooth="yes"/>
			<point x="111" y="426.329"/>
			<point x="154.7" y="450"/>
			<point x="198" y="450" type="curve" smooth="yes"/>
			<point x="247.132" y="450"/>
			<point x="303.244" y="429.878"/>
			<point x="333" y="415" type="curve"/>
			<point x="333" y="488" type="line"/>
			<point x="289" y="502"/>
			<point x="247" y="510"/>
			<point x="206" y="510" type="curve" smooth="yes"/>
			<point x="111.719" y="510"/>
			<point x="39" y="465.07"/>
			<point x="39" y="375" type="curve" smooth="yes"/>
			<point x="39" y="206"/>
			<point x="287" y="249"/>
			<point x="287" y="130" type="curve" smooth="yes"/>
			<point x="287" y="76.9055"/>
			<point x="235.253" y="57"/>
			<point x="171" y="57" type="curve" smooth="yes"/>
			<point x="132.289" y="57"/>
			<point x="59.6552" y="81.8965"/>
			<point x="37" y="97" type="curve"/>
			<point x="37" y="20" type="line"/>
			<point x="89" y="3"/>
			<point x="134" y="-5"/>
			<point x="171" y="-5" type="curve" smooth="yes"/>
			<point x="278.386" y="-5"/>
			<point x="361" y="28.4445"/>
		</contour>
	</outline>
</glyph>
<glyph name="t" format="2">
	<unicode hex="0074"/>
	<advance width="343"/>
	<outline>
		<contour>
			<point x="300" y="437" type="line"/>
			<point x="300" y="498" type="line"/>
			<point x="174" y="498" type="line"/>
			<point x="174" y="650" type="line"/>
			<point x="100" y="612" type="line"/>
			<point x="100" y="498" type="line"/>
			<point x="24" y="498" type="line"/>
			<point x="24" y="437" type="line"/>
			<point x="100" y="437" type="line"/>
			<point x="100" y="119" type="line" smooth="yes"/>
			<point x="100" y="33.5219"/>
			<point x="142.562" y="-5"/>
			<point x="230" y="-5" type="curve" smooth="yes"/>
			<point x="256" y="-5"/>
			<point x="279" y="-3"/>
			<point x="298" y="-1" type="curve"/>
			<point x="298" y="63" type="line"/>
			<point x="278" y="59"/>
			<point x="259" y="57"/>
			<point x="243" y="57" type="curve" smooth="yes"/>
			<point x="196.238" y="57"/>
			<point x="174" y="81.4246"/>
			<point x="174" y="127" type="curve" smooth="yes"/>
			<point x="174" y="437" type="line"/>
		</contour>
	</outline>
</glyph>
<glyph name="u" format="2">
	<unicode hex="0075"/>
	<advance width="500"/>
	<outline>
		<contour>
			<point x="64" y="498" type="line"/>
			<point x="64" y="167" type="line" smooth="yes"/>
			<point x="64" y="56.9941"/>
			<point x="117.628" y="-6"/>
			<point x="226" y="-6" type="curve" smooth="yes"/>
			<point x="284.902" y="-6"/>
			<point x="344.529" y="43.8217"/>
			<point x="363" y="90" type="curve"/>
			<point x="363" y="6" type="line"/>
			<point x="436" y="6" type="line"/>
			<point x="436" y="498" type="line"/>
			<point x="363" y="498" type="line"/>
			<point x="363" y="282" type="line" smooth="yes"/>
			<point x="363" y="179.185"/>
			<point x="323.625" y="60"/>
			<point x="232" y="60" type="curve" smooth="yes"/>
			<point x="163.775" y="60"/>
			<point x="138" y="113.764"/>
			<point x="138" y="179" type="curve" smooth="yes"/>
			<point x="138" y="498" type="line"/>
		</contour>
	</outline>
</glyph>
<glyph name="v" format="2">
	<unicode hex="0076"/>
	<advance width="488"/>
	<outline>
		<contour>
			<point x="447" y="498" type="line"/>
			<point x="376" y="498" type="line"/>
			<point x="243" y="101" type="line"/>
			<point x="100" y="498" type="line"/>
			<point x="25" y="498" type="line"/>
			<point x="210" y="6" type="line"/>
			<point x="277" y="6" type="line"/>
		</contour>
	</outline>
</glyph>
<glyph name="w" format="2">
	<unicode hex="0077"/>
	<advance width="665"/>
	<outline>
		<contour>
			<point x="614" y="498" type="line"/>
			<point x="546" y="498" type="line"/>
			<point x="461" y="120" type="line"/>
			<point x="349" y="498" type="line"/>
			<point x="291" y="498" type="line"/>
			<point x="180" y="120" type="line"/>
			<point x="96" y="498" type="line"/>
			<point x="26" y="498" type="line"/>
			<point x="143" y="6" type="line"/>
			<point x="210" y="6" type="line"/>
			<point x="320" y="376" type="line"/>
			<point x="432" y="6" type="line"/>
			<point x="501" y="6" type="line"/>
		</contour>
	</outline>
</glyph>
<glyph name="x" format="2">
	<unicode hex="0078"/>
	<advance width="465"/>
	<outline>
		<contour>
			<point x="438" y="6" type="line"/>
			<point x="272" y="265" type="line"/>
			<point x="422" y="498" type="line"/>
			<point x="342" y="498" type="line"/>
			<point x="233" y="328" type="line"/>
			<point x="125" y="498" type="line"/>
			<point x="45" y="498" type="line"/>
			<point x="194" y="265" type="line"/>
			<point x="26" y="6" type="line"/>
			<point x="107" y="6" type="line"/>
			<point x="233" y="202" type="line"/>
			<point x="357" y="6" type="line"/>
		</contour>
	</outline>
</glyph>
<glyph name="y" format="2">
	<unicode hex="0079"/>
	<advance width="473"/>
	<outline>
		<contour>
			<point x="355" y="498" type="line"/>
			<point x="232" y="134" type="line"/>
			<point x="100" y="498" type="line"/>
			<point x="23" y="498" type="line"/>
			<point x="199" y="35" type="line"/>
			<point x="131" y="-166" type="line"/>
			<point x="205" y="-166" type="line"/>
			<point x="431" y="498" type="line"/>
		</contour>
	</outline>
</glyph>
<glyph name="z" format="2">
	<unicode hex="007A"/>
	<advance width="420"/>
	<outline>
		<contour>
			<point x="386" y="6" type="line"/>
			<point x="386" y="67" type="line"/>
			<point x="116" y="67" type="line"/>
			<point x="374" y="432" type="line"/>
			<point x="374" y="498" type="line"/>
			<point x="51" y="498" type="line"/>
			<point x="51" y="437" type="line"/>
			<point x="295" y="437" type="line"/>
			<point x="34" y="66" type="line"/>
			<point x="34" y="6" type="line"/>
		</contour>
	</outline>
</glyph>
<glyph name="braceleft" format="2">
	<unicode hex="007B"/>
	<advance width="406"/>
	<outline>
		<contour>
			<point x="112" y="309" type="line"/>
			<point x="161.68" y="291.257"/>
			<point x="208" y="262.272"/>
			<point x="208" y="199" type="curve" smooth="yes"/>
			<point x="208" y="138.325"/>
			<point x="185" y="90.7411"/>
			<point x="185" y="26" type="curve" smooth="yes"/>
			<point x="185" y="-64.2144"/>
			<point x="261.497" y="-139.361"/>
			<point x="352.377" y="-139.361" type="curve" smooth="yes"/>
			<point x="363" y="-139" type="line"/>
			<point x="363" y="-103" type="line"/>
			<point x="299.847" y="-86.1592"/>
			<point x="265.622" y="-35.6775"/>
			<point x="265.622" y="36.5378" type="curve" smooth="yes"/>
			<point x="265.622" y="81.2542"/>
			<point x="278.375" y="119.024"/>
			<point x="278.375" y="164.422" type="curve" smooth="yes"/>
			<point x="278.375" y="249.957"/>
			<point x="227.481" y="303.759"/>
			<point x="175" y="330" type="curve"/>
			<point x="229.327" y="353.283"/>
			<point x="278.375" y="411.961"/>
			<point x="278.375" y="497" type="curve" smooth="yes"/>
			<point x="278.375" y="542.002"/>
			<point x="265.622" y="578.898"/>
			<point x="265.622" y="623.821" type="curve" smooth="yes"/>
			<point x="265.622" y="696.27"/>
			<point x="299.598" y="747.093"/>
			<point x="363" y="764" type="curve"/>
			<point x="363" y="800" type="line"/>
			<point x="359.459" y="800.236"/>
			<point x="355.918" y="800.361"/>
			<point x="352.377" y="800.361" type="curve" smooth="yes"/>
			<point x="261.573" y="788.842"/>
			<point x="185" y="733.852"/>
			<point x="185" y="635" type="curve" smooth="yes"/>
			<point x="185" y="569.228"/>
			<point x="208" y="521.75"/>
			<point x="208" y="462" type="curve" smooth="yes"/>
			<point x="208" y="399.024"/>
			<point x="160.784" y="369.423"/>
			<point x="112" y="352" type="curve"/>
		</contour>
	</outline>
</glyph>
<glyph name="bar" format="2">
	<unicode hex="007C"/>
	<advance width="315"/>
	<outline>
		<contour>
			<point x="184" y="-120" type="line"/>
			<point x="184" y="779" type="line"/>
			<point x="119" y="779" type="line"/>
			<point x="119" y="-120" type="line"/>
		</contour>
	</outline>
</glyph>
<glyph name="braceright" format="2">
	<unicode hex="007D"/>
	<advance width="406"/>
	<outline>
		<contour>
			<point x="294" y="309" type="curve"/>
			<point x="294" y="352" type="line"/>
			<point x="265" y="362"/>
			<point x="242" y="376"/>
			<point x="225" y="394" type="curve" smooth="yes"/>
			<point x="207" y="411"/>
			<point x="198" y="434"/>
			<point x="198" y="462" type="curve" smooth="yes"/>
			<point x="198" y="480"/>
			<point x="200" y="498"/>
			<point x="206" y="518" type="curve" smooth="yes"/>
			<point x="210" y="536"/>
			<point x="214" y="555"/>
			<point x="217" y="575" type="curve" smooth="yes"/>
			<point x="219" y="594"/>
			<point x="221" y="614"/>
			<point x="221" y="635" type="curve" smooth="yes"/>
			<point x="221" y="655"/>
			<point x="216" y="676"/>
			<point x="207" y="697" type="curve" smooth="yes"/>
			<point x="198" y="716"/>
			<point x="187" y="732"/>
			<point x="175" y="746" type="curve" smooth="yes"/>
			<point x="161" y="758"/>
			<point x="147" y="769"/>
			<point x="133" y="777" type="curve" smooth="yes"/>
			<point x="118" y="785"/>
			<point x="103" y="792"/>
			<point x="88" y="796" type="curve" smooth="yes"/>
			<point x="72" y="800"/>
			<point x="57" y="801"/>
			<point x="43" y="800" type="curve"/>
			<point x="43" y="764" type="line"/>
			<point x="72" y="756"/>
			<point x="94" y="743"/>
			<point x="108" y="725" type="curve" smooth="yes"/>
			<point x="121" y="707"/>
			<point x="130" y="689"/>
			<point x="134" y="671" type="curve" smooth="yes"/>
			<point x="140" y="647"/>
			<point x="142" y="625"/>
			<point x="140" y="604" type="curve" smooth="yes"/>
			<point x="137" y="582"/>
			<point x="134" y="562"/>
			<point x="131" y="542" type="curve" smooth="yes"/>
			<point x="127" y="522"/>
			<point x="126" y="502"/>
			<point x="128" y="482" type="curve" smooth="yes"/>
			<point x="129" y="461"/>
			<point x="134" y="442"/>
			<point x="142" y="424" type="curve" smooth="yes"/>
			<point x="154" y="394"/>
			<point x="169" y="373"/>
			<point x="186" y="360" type="curve" smooth="yes"/>
			<point x="202" y="346"/>
			<point x="217" y="336"/>
			<point x="231" y="330" type="curve"/>
			<point x="218" y="324"/>
			<point x="203" y="314"/>
			<point x="187" y="301" type="curve" smooth="yes"/>
			<point x="169" y="287"/>
			<point x="154" y="266"/>
			<point x="142" y="237" type="curve" smooth="yes"/>
			<point x="134" y="219"/>
			<point x="129" y="200"/>
			<point x="128" y="180" type="curve" smooth="yes"/>
			<point x="126" y="159"/>
			<point x="127" y="139"/>
			<point x="131" y="119" type="curve" smooth="yes"/>
			<point x="134" y="99"/>
			<point x="137" y="78"/>
			<point x="140" y="57" type="curve" smooth="yes"/>
			<point x="142" y="35"/>
			<point x="140" y="13"/>
			<point x="134" y="-10" type="curve" smooth="yes"/>
			<point x="130" y="-28"/>
			<point x="121" y="-46"/>
			<point x="108" y="-64" type="curve" smooth="yes"/>
			<point x="94" y="-82"/>
			<point x="72" y="-95"/>
			<point x="43" y="-103" type="curve"/>
			<point x="43" y="-139" type="line"/>
			<point x="57" y="-140"/>
			<point x="72" y="-139"/>
			<point x="88" y="-135" type="curve" smooth="yes"/>
			<point x="103" y="-131"/>
			<point x="118" y="-124"/>
			<point x="133" y="-116" type="curve" smooth="yes"/>
			<point x="147" y="-108"/>
			<point x="161" y="-97"/>
			<point x="175" y="-85" type="curve" smooth="yes"/>
			<point x="187" y="-71"/>
			<point x="198" y="-55"/>
			<point x="207" y="-36" type="curve" smooth="yes"/>
			<point x="216" y="-15"/>
			<point x="221" y="5"/>
			<point x="221" y="26" type="curve" smooth="yes"/>
			<point x="221" y="46"/>
			<point x="219" y="66"/>
			<point x="217" y="86" type="curve" smooth="yes"/>
			<point x="214" y="105"/>
			<point x="210" y="124"/>
			<point x="206" y="144" type="curve" smooth="yes"/>
			<point x="200" y="162"/>
			<point x="198" y="181"/>
			<point x="198" y="199" type="curve" smooth="yes"/>
			<point x="198" y="227"/>
			<point x="207" y="250"/>
			<point x="225" y="268" type="curve" smooth="yes"/>
			<point x="242" y="285"/>
			<point x="265" y="299"/>
		</contour>
	</outline>
</glyph>
<glyph name="asciitilde" format="2">
	<unicode hex="007E"/>
	<advance width="524"/>
	<outline>
		<contour>
			<point x="483" y="428" type="curve"/>
			<point x="420" y="428" type="line"/>
			<point x="420" y="392"/>
			<point x="414" y="365"/>
			<point x="404" y="347" type="curve" smooth="yes"/>
			<point x="392" y="328"/>
			<point x="376" y="319"/>
			<point x="355" y="319" type="curve" smooth="yes"/>
			<point x="343" y="319"/>
			<point x="331" y="324"/>
			<point x="321" y="334" type="curve" smooth="yes"/>
			<point x="309" y="343"/>
			<point x="295" y="358"/>
			<point x="277" y="378" type="curve" smooth="yes"/>
			<point x="258" y="401"/>
			<point x="240" y="418"/>
			<point x="223" y="428" type="curve" smooth="yes"/>
			<point x="205" y="437"/>
			<point x="186" y="442"/>
			<point x="165" y="442" type="curve" smooth="yes"/>
			<point x="129" y="442"/>
			<point x="100" y="426"/>
			<point x="77" y="396" type="curve" smooth="yes"/>
			<point x="53" y="365"/>
			<point x="42" y="322"/>
			<point x="42" y="267" type="curve"/>
			<point x="104" y="267" type="line"/>
			<point x="104" y="305"/>
			<point x="109" y="334"/>
			<point x="121" y="352" type="curve" smooth="yes"/>
			<point x="132" y="369"/>
			<point x="147" y="378"/>
			<point x="167" y="378" type="curve" smooth="yes"/>
			<point x="178" y="378"/>
			<point x="189" y="374"/>
			<point x="199" y="367" type="curve" smooth="yes"/>
			<point x="209" y="359"/>
			<point x="225" y="343"/>
			<point x="247" y="318" type="curve" smooth="yes"/>
			<point x="266" y="293"/>
			<point x="284" y="276"/>
			<point x="302" y="268" type="curve" smooth="yes"/>
			<point x="319" y="259"/>
			<point x="338" y="255"/>
			<point x="358" y="255" type="curve" smooth="yes"/>
			<point x="398" y="255"/>
			<point x="429" y="270"/>
			<point x="451" y="302" type="curve" smooth="yes"/>
			<point x="472" y="333"/>
			<point x="483" y="375"/>
		</contour>
	</outline>
</glyph>
<glyph name="uni0081" format="2">
	<unicode hex="0081"/>
	<advance width="936"/>
	<outline>
		<contour>
			<point x="899" y="389" type="line"/>
			<point x="899" y="442" type="line"/>
			<point x="758" y="442" type="line"/>
			<point x="808" y="714" type="line"/>
			<point x="739" y="714" type="line"/>
			<point x="688" y="442" type="line"/>
			<point x="553" y="442" type="line"/>
			<point x="531.728" y="527.087"/>
			<point x="508.349" y="628.603"/>
			<point x="487" y="714" type="curve"/>
			<point x="404" y="714" type="line"/>
			<point x="342" y="442" type="line"/>
			<point x="209" y="442" type="line"/>
			<point x="154" y="714" type="line"/>
			<point x="86" y="714" type="line"/>
			<point x="140" y="442" type="line"/>
			<point x="9" y="442" type="line"/>
			<point x="9" y="389" type="line"/>
			<point x="151" y="389" type="line"/>
			<point x="221" y="40" type="line"/>
			<point x="314" y="40" type="line"/>
			<point x="395" y="389" type="line"/>
			<point x="504" y="389" type="line"/>
			<point x="590" y="40" type="line"/>
			<point x="684" y="40" type="line"/>
			<point x="748" y="389" type="line"/>
		</contour>
		<contour>
			<point x="490" y="442" type="curve"/>
			<point x="407" y="442" type="line"/>
			<point x="447" y="612" type="line"/>
			<point x="449" y="612" type="line"/>
			<point x="460.52" y="560.163"/>
			<point x="478.548" y="493.535"/>
		</contour>
		<contour>
			<point x="678" y="389" type="line"/>
			<point x="631" y="135" type="line"/>
			<point x="629" y="135" type="line"/>
			<point x="603.332" y="212.008"/>
			<point x="579.45" y="308.309"/>
			<point x="566" y="389" type="curve"/>
		</contour>
		<contour>
			<point x="330" y="389" type="line"/>
			<point x="273" y="139" type="line"/>
			<point x="271" y="139" type="line"/>
			<point x="220" y="389" type="line"/>
		</contour>
	</outline>
</glyph>
<glyph name="exclamdown" format="2">
	<unicode hex="00A1"/>
	<advance width="871"/>
	<outline>
		<contour>
			<point x="460" y="-70" type="line"/>
			<point x="453" y="489" type="line"/>
			<point x="384" y="489" type="line"/>
			<point x="377" y="-70" type="line"/>
		</contour>
		<contour>
			<point x="467" y="707" type="line"/>
			<point x="371" y="707" type="line"/>
			<point x="371" y="607" type="line"/>
			<point x="467" y="607" type="line"/>
		</contour>
	</outline>
</glyph>
<glyph name="cent" format="2">
	<unicode hex="00A2"/>
	<advance width="940"/>
	<outline>
		<contour>
			<point x="527" y="23" type="curve" smooth="yes"/>
			<point x="575.293" y="23"/>
			<point x="618.986" y="30.5958"/>
			<point x="657" y="42" type="curve"/>
			<point x="657" y="98" type="line"/>
			<point x="624.452" y="88.0941"/>
			<point x="582.455" y="82"/>
			<point x="549" y="82" type="curve" smooth="yes"/>
			<point x="515.79" y="82"/>
			<point x="434.788" y="87.2123"/>
			<point x="418" y="104" type="curve"/>
			<point x="554" y="457" type="line"/>
			<point x="579.121" y="440.252"/>
			<point x="589" y="414.144"/>
			<point x="589" y="374" type="curve"/>
			<point x="673" y="374" type="line"/>
			<point x="673" y="452.457"/>
			<point x="634.694" y="496.322"/>
			<point x="578" y="519" type="curve"/>
			<point x="600" y="576" type="line"/>
			<point x="541" y="576" type="line"/>
			<point x="524" y="532" type="line"/>
			<point x="509" y="534"/>
			<point x="492.512" y="535"/>
			<point x="476" y="535" type="curve" smooth="yes"/>
			<point x="325.946" y="535"/>
			<point x="234" y="436.472"/>
			<point x="234" y="290" type="curve" smooth="yes"/>
			<point x="234" y="190.71"/>
			<point x="277.052" y="97.974"/>
			<point x="343" y="65" type="curve"/>
			<point x="306" y="-32" type="line"/>
			<point x="365" y="-32" type="line"/>
			<point x="394" y="42" type="line"/>
			<point x="431.414" y="30.185"/>
			<point x="477.839" y="23"/>
		</contour>
		<contour>
			<point x="314" y="305" type="curve" smooth="yes"/>
			<point x="314" y="406.358"/>
			<point x="375.408" y="476"/>
			<point x="473" y="476" type="curve" smooth="yes"/>
			<point x="481.498" y="476"/>
			<point x="490" y="476"/>
			<point x="501" y="473" type="curve"/>
			<point x="372" y="140" type="line"/>
			<point x="330.92" y="179.436"/>
			<point x="314" y="235.94"/>
		</contour>
	</outline>
</glyph>
<glyph name="currency" format="2">
	<unicode hex="00A4"/>
	<advance width="678"/>
	<outline>
		<contour>
			<point x="118" y="332" type="curve" smooth="yes"/>
			<point x="118" y="274"/>
			<point x="135" y="224"/>
			<point x="169" y="183" type="curve"/>
			<point x="93" y="101" type="line"/>
			<point x="131" y="66" type="line"/>
			<point x="206" y="146" type="line"/>
			<point x="246" y="113"/>
			<point x="292" y="97"/>
			<point x="343" y="97" type="curve" smooth="yes"/>
			<point x="393" y="97"/>
			<point x="439" y="113"/>
			<point x="480" y="146" type="curve"/>
			<point x="555" y="66" type="line"/>
			<point x="593" y="101" type="line"/>
			<point x="517" y="183" type="line"/>
			<point x="551" y="224"/>
			<point x="568" y="274"/>
			<point x="568" y="332" type="curve" smooth="yes"/>
			<point x="568" y="390"/>
			<point x="551" y="439"/>
			<point x="517" y="481" type="curve"/>
			<point x="593" y="562" type="line"/>
			<point x="556" y="597" type="line"/>
			<point x="481" y="517" type="line"/>
			<point x="440" y="550"/>
			<point x="394" y="567"/>
			<point x="343" y="567" type="curve" smooth="yes"/>
			<point x="291" y="567"/>
			<point x="245" y="550"/>
			<point x="205" y="517" type="curve"/>
			<point x="130" y="597" type="line"/>
			<point x="93" y="562" type="line"/>
			<point x="169" y="481" type="line"/>
			<point x="135" y="439"/>
			<point x="118" y="390"/>
		</contour>
		<contour>
			<point x="170" y="332" type="curve" smooth="yes"/>
			<point x="170" y="432.524"/>
			<point x="245.178" y="517"/>
			<point x="343" y="517" type="curve" smooth="yes"/>
			<point x="439.933" y="517"/>
			<point x="516" y="432.486"/>
			<point x="516" y="332" type="curve" smooth="yes"/>
			<point x="516" y="230.608"/>
			<point x="439.955" y="147"/>
			<point x="343" y="147" type="curve" smooth="yes"/>
			<point x="245.206" y="147"/>
			<point x="170" y="230.638"/>
		</contour>
	</outline>
</glyph>
<glyph name="section" format="2">
	<unicode hex="00A7"/>
	<advance width="347"/>
	<outline>
		<contour>
			<point x="300" y="270" type="curve" smooth="yes"/>
			<point x="306" y="294"/>
			<point x="305" y="318"/>
			<point x="296" y="344" type="curve" smooth="yes"/>
			<point x="286" y="369"/>
			<point x="275" y="391"/>
			<point x="263" y="410" type="curve" smooth="yes"/>
			<point x="249" y="428"/>
			<point x="234" y="446"/>
			<point x="218" y="463" type="curve" smooth="yes"/>
			<point x="201" y="479"/>
			<point x="186" y="495"/>
			<point x="172" y="512" type="curve" smooth="yes"/>
			<point x="157" y="528"/>
			<point x="145" y="546"/>
			<point x="136" y="564" type="curve" smooth="yes"/>
			<point x="126" y="582"/>
			<point x="121" y="602"/>
			<point x="121" y="625" type="curve" smooth="yes"/>
			<point x="121" y="648"/>
			<point x="126" y="665"/>
			<point x="136" y="676" type="curve" smooth="yes"/>
			<point x="146" y="686"/>
			<point x="156" y="692"/>
			<point x="168" y="694" type="curve" smooth="yes"/>
			<point x="179" y="695"/>
			<point x="189" y="693"/>
			<point x="199" y="689" type="curve" smooth="yes"/>
			<point x="207" y="683"/>
			<point x="211" y="677"/>
			<point x="211" y="671" type="curve" smooth="yes"/>
			<point x="208" y="661"/>
			<point x="208" y="652"/>
			<point x="211" y="642" type="curve" smooth="yes"/>
			<point x="213" y="631"/>
			<point x="218" y="622"/>
			<point x="224" y="615" type="curve" smooth="yes"/>
			<point x="230" y="607"/>
			<point x="237" y="603"/>
			<point x="245" y="602" type="curve" smooth="yes"/>
			<point x="253" y="600"/>
			<point x="261" y="603"/>
			<point x="271" y="613" type="curve" smooth="yes"/>
			<point x="279" y="621"/>
			<point x="282" y="631"/>
			<point x="281" y="645" type="curve" smooth="yes"/>
			<point x="279" y="658"/>
			<point x="273" y="671"/>
			<point x="264" y="685" type="curve" smooth="yes"/>
			<point x="254" y="697"/>
			<point x="242" y="708"/>
			<point x="226" y="718" type="curve" smooth="yes"/>
			<point x="210" y="727"/>
			<point x="191" y="732"/>
			<point x="170" y="732" type="curve" smooth="yes"/>
			<point x="140" y="731"/>
			<point x="115" y="720"/>
			<point x="95" y="698" type="curve" smooth="yes"/>
			<point x="74" y="675"/>
			<point x="64" y="642"/>
			<point x="66" y="598" type="curve" smooth="yes"/>
			<point x="66" y="580"/>
			<point x="68" y="563"/>
			<point x="73" y="549" type="curve" smooth="yes"/>
			<point x="77" y="533"/>
			<point x="82" y="520"/>
			<point x="88" y="509" type="curve" smooth="yes"/>
			<point x="93" y="497"/>
			<point x="98" y="487"/>
			<point x="103" y="481" type="curve" smooth="yes"/>
			<point x="107" y="474"/>
			<point x="110" y="471"/>
			<point x="110" y="471" type="curve" smooth="yes"/>
			<point x="112" y="470"/>
			<point x="111" y="469"/>
			<point x="108" y="469" type="curve" smooth="yes"/>
			<point x="104" y="467"/>
			<point x="99" y="465"/>
			<point x="93" y="462" type="curve" smooth="yes"/>
			<point x="86" y="458"/>
			<point x="79" y="454"/>
			<point x="73" y="448" type="curve" smooth="yes"/>
			<point x="66" y="442"/>
			<point x="61" y="434"/>
			<point x="57" y="424" type="curve" smooth="yes"/>
			<point x="49" y="406"/>
			<point x="47" y="390"/>
			<point x="49" y="374" type="curve" smooth="yes"/>
			<point x="50" y="357"/>
			<point x="54" y="341"/>
			<point x="61" y="325" type="curve" smooth="yes"/>
			<point x="68" y="309"/>
			<point x="77" y="293"/>
			<point x="88" y="279" type="curve" smooth="yes"/>
			<point x="98" y="263"/>
			<point x="110" y="249"/>
			<point x="122" y="236" type="curve" smooth="yes"/>
			<point x="134" y="220"/>
			<point x="146" y="204"/>
			<point x="160" y="190" type="curve" smooth="yes"/>
			<point x="172" y="174"/>
			<point x="184" y="159"/>
			<point x="194" y="144" type="curve" smooth="yes"/>
			<point x="203" y="128"/>
			<point x="210" y="112"/>
			<point x="215" y="96" type="curve" smooth="yes"/>
			<point x="219" y="79"/>
			<point x="220" y="61"/>
			<point x="217" y="42" type="curve" smooth="yes"/>
			<point x="213" y="24"/>
			<point x="207" y="12"/>
			<point x="198" y="6" type="curve" smooth="yes"/>
			<point x="188" y="0"/>
			<point x="178" y="-4"/>
			<point x="168" y="-5" type="curve" smooth="yes"/>
			<point x="158" y="-5"/>
			<point x="150" y="-3"/>
			<point x="143" y="1" type="curve" smooth="yes"/>
			<point x="135" y="5"/>
			<point x="132" y="9"/>
			<point x="134" y="15" type="curve" smooth="yes"/>
			<point x="135" y="19"/>
			<point x="135" y="26"/>
			<point x="134" y="35" type="curve" smooth="yes"/>
			<point x="132" y="43"/>
			<point x="130" y="50"/>
			<point x="126" y="58" type="curve" smooth="yes"/>
			<point x="122" y="65"/>
			<point x="117" y="71"/>
			<point x="111" y="76" type="curve" smooth="yes"/>
			<point x="104" y="80"/>
			<point x="96" y="80"/>
			<point x="87" y="78" type="curve" smooth="yes"/>
			<point x="77" y="76"/>
			<point x="71" y="70"/>
			<point x="69" y="60" type="curve" smooth="yes"/>
			<point x="66" y="50"/>
			<point x="66" y="39"/>
			<point x="69" y="27" type="curve" smooth="yes"/>
			<point x="72" y="14"/>
			<point x="78" y="2"/>
			<point x="88" y="-10" type="curve" smooth="yes"/>
			<point x="97" y="-22"/>
			<point x="110" y="-31"/>
			<point x="126" y="-37" type="curve" smooth="yes"/>
			<point x="140" y="-43"/>
			<point x="156" y="-46"/>
			<point x="172" y="-46" type="curve" smooth="yes"/>
			<point x="188" y="-45"/>
			<point x="203" y="-41"/>
			<point x="217" y="-34" type="curve" smooth="yes"/>
			<point x="230" y="-26"/>
			<point x="242" y="-16"/>
			<point x="253" y="-2" type="curve" smooth="yes"/>
			<point x="263" y="12"/>
			<point x="271" y="29"/>
			<point x="276" y="50" type="curve" smooth="yes"/>
			<point x="281" y="72"/>
			<point x="283" y="93"/>
			<point x="281" y="113" type="curve" smooth="yes"/>
			<point x="279" y="132"/>
			<point x="275" y="149"/>
			<point x="270" y="163" type="curve" smooth="yes"/>
			<point x="265" y="177"/>
			<point x="260" y="189"/>
			<point x="255" y="198" type="curve" smooth="yes"/>
			<point x="249" y="206"/>
			<point x="246" y="212"/>
			<point x="245" y="214" type="curve" smooth="yes"/>
			<point x="243" y="214"/>
			<point x="244" y="214"/>
			<point x="249" y="216" type="curve" smooth="yes"/>
			<point x="253" y="216"/>
			<point x="259" y="219"/>
			<point x="265" y="223" type="curve" smooth="yes"/>
			<point x="271" y="227"/>
			<point x="278" y="232"/>
			<point x="285" y="240" type="curve" smooth="yes"/>
			<point x="291" y="247"/>
			<point x="296" y="257"/>
		</contour>
		<contour>
			<point x="223" y="356" type="curve" smooth="yes"/>
			<point x="229" y="346"/>
			<point x="235" y="336"/>
			<point x="241" y="325" type="curve" smooth="yes"/>
			<point x="245" y="313"/>
			<point x="248" y="301"/>
			<point x="249" y="291" type="curve" smooth="yes"/>
			<point x="249" y="280"/>
			<point x="246" y="271"/>
			<point x="242" y="264" type="curve" smooth="yes"/>
			<point x="236" y="256"/>
			<point x="227" y="253"/>
			<point x="214" y="253" type="curve" smooth="yes"/>
			<point x="204" y="253"/>
			<point x="192" y="258"/>
			<point x="178" y="270" type="curve" smooth="yes"/>
			<point x="162" y="281"/>
			<point x="146" y="299"/>
			<point x="129" y="323" type="curve" smooth="yes"/>
			<point x="121" y="333"/>
			<point x="114" y="345"/>
			<point x="110" y="359" type="curve" smooth="yes"/>
			<point x="104" y="371"/>
			<point x="102" y="383"/>
			<point x="102" y="394" type="curve" smooth="yes"/>
			<point x="102" y="404"/>
			<point x="105" y="413"/>
			<point x="111" y="420" type="curve" smooth="yes"/>
			<point x="116" y="426"/>
			<point x="125" y="428"/>
			<point x="139" y="427" type="curve" smooth="yes"/>
			<point x="149" y="425"/>
			<point x="162" y="418"/>
			<point x="177" y="407" type="curve" smooth="yes"/>
			<point x="191" y="395"/>
			<point x="206" y="378"/>
		</contour>
	</outline>
</glyph>
<glyph name="copyright" format="2">
	<unicode hex="00A9"/>
	<advance width="838"/>
	<outline>
		<contour>
			<point x="584" y="453" type="line"/>
			<point x="584" y="548.837"/>
			<point x="514.92" y="611"/>
			<point x="420" y="611" type="curve" smooth="yes"/>
			<point x="275.626" y="611"/>
			<point x="207" y="489.029"/>
			<point x="207" y="345" type="curve" smooth="yes"/>
			<point x="207" y="196.223"/>
			<point x="275.12" y="63"/>
			<point x="422" y="63" type="curve" smooth="yes"/>
			<point x="481.716" y="63"/>
			<point x="527.815" y="76.4076"/>
			<point x="567" y="96" type="curve"/>
			<point x="567" y="163" type="line"/>
			<point x="534.944" y="138.068"/>
			<point x="489.967" y="117"/>
			<point x="437" y="117" type="curve" smooth="yes"/>
			<point x="320.286" y="117"/>
			<point x="269" y="230.066"/>
			<point x="269" y="345" type="curve" smooth="yes"/>
			<point x="269" y="451.055"/>
			<point x="315.368" y="557"/>
			<point x="420" y="557" type="curve"/>
			<point x="480.234" y="551.98"/>
			<point x="520" y="518.779"/>
			<point x="520" y="453" type="curve"/>
		</contour>
		<contour>
			<point x="816" y="331" type="curve" smooth="yes"/>
			<point x="816" y="563.73"/>
			<point x="649.57" y="739"/>
			<point x="419" y="739" type="curve" smooth="yes"/>
			<point x="188.131" y="739"/>
			<point x="22" y="562.914"/>
			<point x="22" y="331" type="curve" smooth="yes"/>
			<point x="22" y="98.7498"/>
			<point x="187.804" y="-75"/>
			<point x="419" y="-75" type="curve" smooth="yes"/>
			<point x="650.333" y="-75"/>
			<point x="816" y="98.2977"/>
		</contour>
		<contour>
			<point x="766" y="331" type="curve" smooth="yes"/>
			<point x="766" y="126.791"/>
			<point x="621.265" y="-27"/>
			<point x="419" y="-27" type="curve" smooth="yes"/>
			<point x="216.431" y="-27"/>
			<point x="72" y="126.252"/>
			<point x="72" y="331" type="curve" smooth="yes"/>
			<point x="72" y="535.118"/>
			<point x="215.882" y="691"/>
			<point x="419" y="691" type="curve" smooth="yes"/>
			<point x="621.195" y="691"/>
			<point x="766" y="535.101"/>
		</contour>
	</outline>
</glyph>
<glyph name="ordfeminine" format="2">
  <advance width="611"/>
  <unicode hex="00AA"/>
  <outline>
    <contour>
      <point x="108" y="194" type="line"/>
      <point x="495" y="194" type="line"/>
      <point x="495" y="253" type="line"/>
      <point x="108" y="253" type="line"/>
    </contour>
    <contour>
      <point x="388" y="312" type="line"/>
      <point x="455" y="312" type="line"/>
      <point x="455" y="587" type="line" smooth="yes"/>
      <point x="455" y="623"/>
      <point x="442" y="655"/>
      <point x="416" y="681" type="curve" smooth="yes"/>
      <point x="390" y="707"/>
      <point x="355" y="720"/>
      <point x="311" y="720" type="curve" smooth="yes"/>
      <point x="288" y="720"/>
      <point x="268" y="716"/>
      <point x="250" y="710" type="curve" smooth="yes"/>
      <point x="231" y="702"/>
      <point x="215" y="693"/>
      <point x="203" y="683" type="curve" smooth="yes"/>
      <point x="189" y="672"/>
      <point x="179" y="660"/>
      <point x="173" y="647" type="curve" smooth="yes"/>
      <point x="166" y="633"/>
      <point x="163" y="620"/>
      <point x="163" y="607" type="curve"/>
      <point x="239" y="607" type="line"/>
      <point x="239" y="625"/>
      <point x="245" y="638"/>
      <point x="258" y="648" type="curve" smooth="yes"/>
      <point x="270" y="657"/>
      <point x="288" y="662"/>
      <point x="311" y="662" type="curve" smooth="yes"/>
      <point x="328" y="662"/>
      <point x="342" y="659"/>
      <point x="352" y="654" type="curve" smooth="yes"/>
      <point x="362" y="648"/>
      <point x="369" y="641"/>
      <point x="375" y="633" type="curve" smooth="yes"/>
      <point x="380" y="625"/>
      <point x="384" y="616"/>
      <point x="386" y="608" type="curve" smooth="yes"/>
      <point x="387" y="598"/>
      <point x="388" y="590"/>
      <point x="388" y="584" type="curve" smooth="yes"/>
      <point x="388" y="554" type="line"/>
      <point x="372" y="554"/>
      <point x="352" y="553"/>
      <point x="326" y="553" type="curve" smooth="yes"/>
      <point x="299" y="551"/>
      <point x="273" y="545"/>
      <point x="247" y="535" type="curve" smooth="yes"/>
      <point x="221" y="524"/>
      <point x="200" y="509"/>
      <point x="182" y="489" type="curve" smooth="yes"/>
      <point x="163" y="468"/>
      <point x="154" y="441"/>
      <point x="154" y="408" type="curve" smooth="yes"/>
      <point x="154" y="391"/>
      <point x="157" y="376"/>
      <point x="164" y="364" type="curve" smooth="yes"/>
      <point x="170" y="350"/>
      <point x="178" y="339"/>
      <point x="189" y="331" type="curve" smooth="yes"/>
      <point x="199" y="321"/>
      <point x="211" y="314"/>
      <point x="225" y="310" type="curve" smooth="yes"/>
      <point x="237" y="305"/>
      <point x="250" y="303"/>
      <point x="264" y="303" type="curve" smooth="yes"/>
      <point x="282" y="303"/>
      <point x="298" y="305"/>
      <point x="313" y="310" type="curve" smooth="yes"/>
      <point x="327" y="314"/>
      <point x="339" y="319"/>
      <point x="349" y="326" type="curve" smooth="yes"/>
      <point x="366" y="337"/>
      <point x="379" y="349"/>
      <point x="388" y="363" type="curve"/>
    </contour>
    <contour>
      <point x="388" y="462" type="line" smooth="yes"/>
      <point x="388" y="434"/>
      <point x="378" y="410"/>
      <point x="360" y="391" type="curve" smooth="yes"/>
      <point x="341" y="371"/>
      <point x="318" y="361"/>
      <point x="290" y="361" type="curve" smooth="yes"/>
      <point x="273" y="361"/>
      <point x="258" y="365"/>
      <point x="245" y="373" type="curve" smooth="yes"/>
      <point x="231" y="381"/>
      <point x="225" y="395"/>
      <point x="225" y="417" type="curve" smooth="yes"/>
      <point x="225" y="437"/>
      <point x="231" y="454"/>
      <point x="243" y="466" type="curve" smooth="yes"/>
      <point x="255" y="478"/>
      <point x="269" y="486"/>
      <point x="286" y="492" type="curve" smooth="yes"/>
      <point x="303" y="497"/>
      <point x="321" y="500"/>
      <point x="340" y="502" type="curve" smooth="yes"/>
      <point x="358" y="502"/>
      <point x="374" y="503"/>
      <point x="388" y="503" type="curve"/>
    </contour>
  </outline>
</glyph>
<glyph name="uni00AD" format="2">
  <advance width="367"/>
  <unicode hex="00AD"/>
  <outline>
    <contour>
      <point x="324" y="379" type="line"/>
      <point x="42" y="379" type="line"/>
      <point x="42" y="305" type="line"/>
      <point x="324" y="305" type="line"/>
    </contour>
  </outline>
</glyph>
<glyph name="registered" format="2">
	<unicode hex="00AE"/>
	<advance width="838"/>
	<outline>
		<contour>
			<point x="766" y="331" type="curve" smooth="yes"/>
			<point x="766" y="278"/>
			<point x="756" y="230"/>
			<point x="738" y="188" type="curve" smooth="yes"/>
			<point x="719" y="144"/>
			<point x="694" y="107"/>
			<point x="663" y="75" type="curve" smooth="yes"/>
			<point x="631" y="43"/>
			<point x="595" y="19"/>
			<point x="553" y="1" type="curve" smooth="yes"/>
			<point x="511" y="-17"/>
			<point x="466" y="-27"/>
			<point x="419" y="-27" type="curve" smooth="yes"/>
			<point x="371" y="-27"/>
			<point x="327" y="-17"/>
			<point x="285" y="1" type="curve" smooth="yes"/>
			<point x="243" y="19"/>
			<point x="206" y="43"/>
			<point x="175" y="75" type="curve" smooth="yes"/>
			<point x="143" y="107"/>
			<point x="118" y="144"/>
			<point x="100" y="188" type="curve" smooth="yes"/>
			<point x="81" y="230"/>
			<point x="72" y="278"/>
			<point x="72" y="331" type="curve" smooth="yes"/>
			<point x="72" y="384"/>
			<point x="81" y="432"/>
			<point x="100" y="476" type="curve" smooth="yes"/>
			<point x="118" y="518"/>
			<point x="143" y="556"/>
			<point x="175" y="588" type="curve" smooth="yes"/>
			<point x="206" y="619"/>
			<point x="243" y="644"/>
			<point x="285" y="663" type="curve" smooth="yes"/>
			<point x="327" y="681"/>
			<point x="371" y="691"/>
			<point x="419" y="691" type="curve" smooth="yes"/>
			<point x="466" y="691"/>
			<point x="511" y="681"/>
			<point x="553" y="663" type="curve" smooth="yes"/>
			<point x="595" y="644"/>
			<point x="631" y="619"/>
			<point x="663" y="588" type="curve" smooth="yes"/>
			<point x="694" y="556"/>
			<point x="719" y="518"/>
			<point x="738" y="476" type="curve" smooth="yes"/>
			<point x="756" y="432"/>
			<point x="766" y="384"/>
		</contour>
		<contour>
			<point x="816" y="331" type="curve" smooth="yes"/>
			<point x="816" y="391"/>
			<point x="805" y="445"/>
			<point x="785" y="494" type="curve" smooth="yes"/>
			<point x="763" y="542"/>
			<point x="735" y="585"/>
			<point x="699" y="621" type="curve" smooth="yes"/>
			<point x="663" y="657"/>
			<point x="621" y="685"/>
			<point x="573" y="707" type="curve" smooth="yes"/>
			<point x="525" y="728"/>
			<point x="473" y="739"/>
			<point x="419" y="739" type="curve" smooth="yes"/>
			<point x="364" y="739"/>
			<point x="313" y="728"/>
			<point x="265" y="707" type="curve" smooth="yes"/>
			<point x="217" y="685"/>
			<point x="175" y="657"/>
			<point x="139" y="621" type="curve" smooth="yes"/>
			<point x="103" y="585"/>
			<point x="74" y="542"/>
			<point x="54" y="494" type="curve" smooth="yes"/>
			<point x="32" y="445"/>
			<point x="22" y="391"/>
			<point x="22" y="331" type="curve" smooth="yes"/>
			<point x="22" y="271"/>
			<point x="32" y="217"/>
			<point x="54" y="169" type="curve" smooth="yes"/>
			<point x="74" y="120"/>
			<point x="103" y="78"/>
			<point x="139" y="42" type="curve" smooth="yes"/>
			<point x="175" y="6"/>
			<point x="217" y="-22"/>
			<point x="265" y="-44" type="curve" smooth="yes"/>
			<point x="313" y="-64"/>
			<point x="364" y="-75"/>
			<point x="419" y="-75" type="curve" smooth="yes"/>
			<point x="473" y="-75"/>
			<point x="525" y="-64"/>
			<point x="573" y="-44" type="curve" smooth="yes"/>
			<point x="621" y="-22"/>
			<point x="663" y="6"/>
			<point x="699" y="42" type="curve" smooth="yes"/>
			<point x="735" y="78"/>
			<point x="763" y="120"/>
			<point x="785" y="169" type="curve" smooth="yes"/>
			<point x="805" y="217"/>
			<point x="816" y="271"/>
		</contour>
		<contour>
			<point x="590" y="449" type="curve" smooth="yes"/>
			<point x="590" y="478"/>
			<point x="584" y="502"/>
			<point x="574" y="521" type="curve" smooth="yes"/>
			<point x="563" y="539"/>
			<point x="549" y="555"/>
			<point x="533" y="568" type="curve" smooth="yes"/>
			<point x="516" y="578"/>
			<point x="497" y="587"/>
			<point x="477" y="593" type="curve" smooth="yes"/>
			<point x="456" y="598"/>
			<point x="435" y="601"/>
			<point x="414" y="601" type="curve" smooth="yes"/>
			<point x="280" y="601" type="line"/>
			<point x="280" y="72" type="line"/>
			<point x="341" y="72" type="line"/>
			<point x="341" y="296" type="line"/>
			<point x="365" y="296" type="line"/>
			<point x="413" y="296" type="line" smooth="yes"/>
			<point x="441" y="296"/>
			<point x="466" y="279"/>
			<point x="489" y="246" type="curve" smooth="yes"/>
			<point x="509" y="216"/>
			<point x="526" y="158"/>
			<point x="539" y="72" type="curve"/>
			<point x="602" y="72" type="line"/>
			<point x="592" y="134"/>
			<point x="578" y="188"/>
			<point x="562" y="236" type="curve" smooth="yes"/>
			<point x="546" y="279"/>
			<point x="524" y="307"/>
			<point x="497" y="320" type="curve"/>
			<point x="507" y="323"/>
			<point x="520" y="329"/>
			<point x="535" y="339" type="curve" smooth="yes"/>
			<point x="550" y="349"/>
			<point x="563" y="364"/>
			<point x="574" y="384" type="curve" smooth="yes"/>
			<point x="584" y="403"/>
			<point x="590" y="425"/>
		</contour>
		<contour>
			<point x="341" y="354" type="line"/>
			<point x="341" y="546" type="line"/>
			<point x="413" y="546" type="line" smooth="yes"/>
			<point x="427" y="546"/>
			<point x="440" y="544"/>
			<point x="454" y="541" type="curve" smooth="yes"/>
			<point x="467" y="537"/>
			<point x="479" y="532"/>
			<point x="491" y="525" type="curve" smooth="yes"/>
			<point x="501" y="517"/>
			<point x="510" y="507"/>
			<point x="518" y="495" type="curve" smooth="yes"/>
			<point x="525" y="482"/>
			<point x="529" y="467"/>
			<point x="529" y="449" type="curve" smooth="yes"/>
			<point x="529" y="433"/>
			<point x="525" y="418"/>
			<point x="518" y="405" type="curve" smooth="yes"/>
			<point x="510" y="391"/>
			<point x="502" y="380"/>
			<point x="492" y="374" type="curve" smooth="yes"/>
			<point x="480" y="366"/>
			<point x="468" y="361"/>
			<point x="455" y="359" type="curve" smooth="yes"/>
			<point x="441" y="355"/>
			<point x="427" y="354"/>
			<point x="413" y="354" type="curve" smooth="yes"/>
			<point x="365" y="354" type="line"/>
		</contour>
	</outline>
</glyph>
<glyph name="degree" format="2">
	<unicode hex="00B0"/>
	<advance width="255"/>
	<outline>
		<contour>
			<point x="171" y="670" type="curve" smooth="yes"/>
			<point x="171" y="658"/>
			<point x="167" y="648"/>
			<point x="159" y="640" type="curve" smooth="yes"/>
			<point x="150" y="631"/>
			<point x="140" y="627"/>
			<point x="128" y="627" type="curve" smooth="yes"/>
			<point x="116" y="627"/>
			<point x="106" y="631"/>
			<point x="98" y="640" type="curve" smooth="yes"/>
			<point x="89" y="648"/>
			<point x="85" y="658"/>
			<point x="85" y="670" type="curve" smooth="yes"/>
			<point x="85" y="682"/>
			<point x="89" y="692"/>
			<point x="98" y="701" type="curve" smooth="yes"/>
			<point x="106" y="709"/>
			<point x="116" y="713"/>
			<point x="128" y="713" type="curve" smooth="yes"/>
			<point x="140" y="713"/>
			<point x="150" y="709"/>
			<point x="159" y="701" type="curve" smooth="yes"/>
			<point x="167" y="692"/>
			<point x="171" y="682"/>
		</contour>
		<contour>
			<point x="227" y="670" type="curve" smooth="yes"/>
			<point x="227" y="697"/>
			<point x="217" y="720"/>
			<point x="198" y="740" type="curve" smooth="yes"/>
			<point x="178" y="759"/>
			<point x="155" y="769"/>
			<point x="128" y="769" type="curve" smooth="yes"/>
			<point x="100" y="769"/>
			<point x="77" y="759"/>
			<point x="58" y="740" type="curve" smooth="yes"/>
			<point x="38" y="720"/>
			<point x="29" y="697"/>
			<point x="29" y="670" type="curve" smooth="yes"/>
			<point x="29" y="642"/>
			<point x="38" y="619"/>
			<point x="58" y="600" type="curve" smooth="yes"/>
			<point x="77" y="580"/>
			<point x="100" y="571"/>
			<point x="128" y="571" type="curve" smooth="yes"/>
			<point x="155" y="571"/>
			<point x="178" y="580"/>
			<point x="198" y="600" type="curve" smooth="yes"/>
			<point x="217" y="619"/>
			<point x="227" y="642"/>
		</contour>
	</outline>
</glyph>
<glyph name="plusminus" format="2">
	<unicode hex="00B1"/>
	<advance width="590"/>
	<outline>
		<contour>
			<point x="544" y="382" type="line"/>
			<point x="544" y="447" type="line"/>
			<point x="331" y="447" type="line"/>
			<point x="331" y="636" type="line"/>
			<point x="261" y="636" type="line"/>
			<point x="261" y="447" type="line"/>
			<point x="48" y="447" type="line"/>
			<point x="48" y="382" type="line"/>
			<point x="261" y="382" type="line"/>
			<point x="261" y="189" type="line"/>
			<point x="331" y="189" type="line"/>
			<point x="331" y="382" type="line"/>
		</contour>
		<contour>
			<point x="544" y="54" type="line"/>
			<point x="544" y="118" type="line"/>
			<point x="48" y="118" type="line"/>
			<point x="48" y="54" type="line"/>
		</contour>
	</outline>
</glyph>
<glyph name="uni00B2" format="2">
	<unicode hex="00B2"/>
	<advance width="348"/>
	<outline>
		<contour>
			<point x="69" y="389" type="curve"/>
			<point x="69" y="336" type="line"/>
			<point x="284" y="336" type="line"/>
			<point x="284" y="393" type="line"/>
			<point x="146" y="393" type="line"/>
			<point x="175" y="426"/>
			<point x="200" y="456"/>
			<point x="220" y="484" type="curve" smooth="yes"/>
			<point x="240" y="510"/>
			<point x="255" y="539"/>
			<point x="267" y="570" type="curve" smooth="yes"/>
			<point x="272.101" y="585.303"/>
			<point x="277" y="613.692"/>
			<point x="277" y="635" type="curve" smooth="yes"/>
			<point x="277" y="699.989"/>
			<point x="235.217" y="750"/>
			<point x="171" y="750" type="curve" smooth="yes"/>
			<point x="103.647" y="750"/>
			<point x="66" y="697.893"/>
			<point x="66" y="634" type="curve"/>
			<point x="125" y="634" type="line"/>
			<point x="124.636" y="637.272"/>
			<point x="124.456" y="640.492"/>
			<point x="124.456" y="643.64" type="curve" smooth="yes"/>
			<point x="124.456" y="673.578"/>
			<point x="140.772" y="697"/>
			<point x="171" y="697" type="curve" smooth="yes"/>
			<point x="202.454" y="697"/>
			<point x="220" y="667.216"/>
			<point x="220" y="639" type="curve" smooth="yes"/>
			<point x="220" y="624.093"/>
			<point x="216.489" y="597.466"/>
			<point x="213" y="587" type="curve" smooth="yes"/>
			<point x="199" y="550"/>
			<point x="175" y="511"/>
			<point x="142" y="471" type="curve" smooth="yes"/>
			<point x="97.6588" y="416.226"/>
			<point x="90.1296" y="410.13"/>
		</contour>
	</outline>
</glyph>
<glyph name="uni00B3" format="2">
	<unicode hex="00B3"/>
	<advance width="361"/>
	<outline>
		<contour>
			<point x="236" y="550" type="curve"/>
			<point x="263.123" y="556.027"/>
			<point x="278" y="596.604"/>
			<point x="278" y="638" type="curve" smooth="yes"/>
			<point x="278" y="703.359"/>
			<point x="234.425" y="749"/>
			<point x="170" y="749" type="curve" smooth="yes"/>
			<point x="108.674" y="749"/>
			<point x="66" y="708.181"/>
			<point x="66" y="650" type="curve"/>
			<point x="119" y="650" type="line"/>
			<point x="123.071" y="678.5"/>
			<point x="139.444" y="697"/>
			<point x="174" y="697" type="curve" smooth="yes"/>
			<point x="204.679" y="697"/>
			<point x="221" y="671.166"/>
			<point x="221" y="638" type="curve" smooth="yes"/>
			<point x="221" y="589.379"/>
			<point x="198.415" y="576"/>
			<point x="147" y="576" type="curve"/>
			<point x="147" y="524" type="line"/>
			<point x="196.123" y="524"/>
			<point x="226" y="506.58"/>
			<point x="226" y="454" type="curve" smooth="yes"/>
			<point x="226" y="411.977"/>
			<point x="208.409" y="382"/>
			<point x="169" y="382" type="curve" smooth="yes"/>
			<point x="136.292" y="382"/>
			<point x="118" y="401.405"/>
			<point x="118" y="430" type="curve"/>
			<point x="58" y="430" type="line"/>
			<point x="62.2259" y="370.837"/>
			<point x="104.478" y="329"/>
			<point x="171" y="329" type="curve" smooth="yes"/>
			<point x="240.981" y="329"/>
			<point x="284" y="383.346"/>
			<point x="284" y="453" type="curve" smooth="yes"/>
			<point x="284" y="502.787"/>
			<point x="263.183" y="533.69"/>
		</contour>
	</outline>
</glyph>
<glyph name="acute" format="2">
	<unicode hex="00B4"/>
	<advance width="838"/>
	<outline>
		<contour>
			<point x="491" y="728" type="line"/>
			<point x="406" y="728" type="line"/>
			<point x="349" y="560" type="line"/>
			<point x="412" y="560" type="line"/>
		</contour>
	</outline>
</glyph>
<glyph name="paragraph" format="2">
  <advance width="838"/>
  <unicode hex="00B6"/>
  <outline>
    <contour>
      <point x="358" y="710" type="line" smooth="yes"/>
      <point x="313" y="710"/>
      <point x="274" y="692"/>
      <point x="242" y="656" type="curve" smooth="yes"/>
      <point x="208" y="620"/>
      <point x="192" y="575"/>
      <point x="192" y="523" type="curve" smooth="yes"/>
      <point x="192" y="469"/>
      <point x="207" y="423"/>
      <point x="239" y="387" type="curve" smooth="yes"/>
      <point x="269" y="350"/>
      <point x="313" y="332"/>
      <point x="369" y="332" type="curve"/>
      <point x="369" y="-145" type="line"/>
      <point x="409" y="-145" type="line"/>
      <point x="409" y="671" type="line"/>
      <point x="496" y="671" type="line"/>
      <point x="496" y="-145" type="line"/>
      <point x="537" y="-145" type="line"/>
      <point x="537" y="710" type="line"/>
    </contour>
  </outline>
</glyph>
<glyph name="periodcentered" format="2">
	<unicode hex="00B7"/>
	<advance width="259"/>
	<outline>
		<contour>
			<point x="177" y="390" type="line"/>
			<point x="83" y="390" type="line"/>
			<point x="83" y="290" type="line"/>
			<point x="177" y="290" type="line"/>
		</contour>
	</outline>
</glyph>
<glyph name="cedilla" format="2">
	<unicode hex="00B8"/>
	<advance width="280"/>
	<outline>
		<contour>
			<point x="245" y="32" type="line"/>
			<point x="172" y="32" type="line"/>
			<point x="172" y="-73" type="line"/>
			<point x="168.043" y="-106.632"/>
			<point x="146.362" y="-116"/>
			<point x="111" y="-116" type="curve" smooth="yes"/>
			<point x="82.4833" y="-116"/>
			<point x="62.4399" y="-104.22"/>
			<point x="44" y="-95" type="curve"/>
			<point x="30" y="-122" type="line"/>
			<point x="57.6898" y="-139.801"/>
			<point x="90.6378" y="-154"/>
			<point x="137" y="-154" type="curve" smooth="yes"/>
			<point x="193.075" y="-154"/>
			<point x="245" y="-123.163"/>
			<point x="245" y="-68" type="curve" smooth="yes"/>
		</contour>
	</outline>
</glyph>
<glyph name="uni00B9" format="2">
	<unicode hex="00B9"/>
	<advance width="348"/>
	<outline>
		<contour>
			<point x="153" y="676" type="line"/>
			<point x="153" y="334" type="line"/>
			<point x="208" y="334" type="line"/>
			<point x="208" y="747" type="line"/>
			<point x="164" y="747" type="line"/>
			<point x="93" y="697" type="line"/>
			<point x="93" y="633" type="line"/>
		</contour>
	</outline>
</glyph>
<glyph name="ordmasculine" format="2">
	<unicode hex="00BA"/>
	<advance width="611"/>
	<outline>
		<contour>
			<point x="108" y="191" type="line"/>
			<point x="495" y="191" type="line"/>
			<point x="495" y="250" type="line"/>
			<point x="108" y="250" type="line"/>
		</contour>
		<contour>
			<point x="303" y="307" type="curve" smooth="yes"/>
			<point x="355" y="307"/>
			<point x="397" y="326"/>
			<point x="427" y="364" type="curve" smooth="yes"/>
			<point x="457" y="401"/>
			<point x="472" y="450"/>
			<point x="472" y="512" type="curve" smooth="yes"/>
			<point x="472" y="574"/>
			<point x="457" y="624"/>
			<point x="427" y="663" type="curve" smooth="yes"/>
			<point x="396" y="701"/>
			<point x="354" y="720"/>
			<point x="301" y="720" type="curve" smooth="yes"/>
			<point x="273" y="720"/>
			<point x="248" y="714"/>
			<point x="228" y="703" type="curve" smooth="yes"/>
			<point x="206" y="691"/>
			<point x="189" y="676"/>
			<point x="175" y="657" type="curve" smooth="yes"/>
			<point x="161" y="637"/>
			<point x="150" y="615"/>
			<point x="144" y="591" type="curve" smooth="yes"/>
			<point x="136" y="565"/>
			<point x="133" y="539"/>
			<point x="133" y="511" type="curve" smooth="yes"/>
			<point x="133" y="446"/>
			<point x="148" y="396"/>
			<point x="180" y="361" type="curve" smooth="yes"/>
			<point x="211" y="325"/>
			<point x="252" y="307"/>
		</contour>
		<contour>
			<point x="205" y="511" type="curve" smooth="yes"/>
			<point x="205" y="531"/>
			<point x="206" y="550"/>
			<point x="210" y="568" type="curve" smooth="yes"/>
			<point x="212" y="586"/>
			<point x="218" y="602"/>
			<point x="226" y="616" type="curve" smooth="yes"/>
			<point x="232" y="630"/>
			<point x="242" y="641"/>
			<point x="255" y="650" type="curve" smooth="yes"/>
			<point x="267" y="658"/>
			<point x="282" y="662"/>
			<point x="300" y="662" type="curve" smooth="yes"/>
			<point x="336" y="662"/>
			<point x="361" y="647"/>
			<point x="377" y="617" type="curve" smooth="yes"/>
			<point x="391" y="587"/>
			<point x="399" y="552"/>
			<point x="399" y="512" type="curve" smooth="yes"/>
			<point x="399" y="471"/>
			<point x="391" y="436"/>
			<point x="377" y="408" type="curve" smooth="yes"/>
			<point x="362" y="379"/>
			<point x="337" y="365"/>
			<point x="303" y="365" type="curve" smooth="yes"/>
			<point x="267" y="365"/>
			<point x="242" y="379"/>
			<point x="228" y="408" type="curve" smooth="yes"/>
			<point x="212" y="436"/>
			<point x="205" y="471"/>
		</contour>
	</outline>
</glyph>
<glyph name="onequarter" format="2">
  <advance width="838"/>
  <unicode hex="00BC"/>
  <outline>
    <contour>
      <point x="131" y="-61" type="line"/>
      <point x="726" y="711" type="line"/>
      <point x="679" y="747" type="line"/>
      <point x="84" y="-25" type="line"/>
    </contour>
    <contour>
      <point x="196" y="666" type="line"/>
      <point x="196" y="324" type="line"/>
      <point x="257" y="324" type="line"/>
      <point x="257" y="737" type="line"/>
      <point x="208" y="737" type="line"/>
      <point x="136" y="687" type="line"/>
      <point x="136" y="623" type="line"/>
    </contour>
    <contour>
      <point x="609" y="43" type="line"/>
      <point x="609" y="-63" type="line"/>
      <point x="668" y="-63" type="line"/>
      <point x="668" y="43" type="line"/>
      <point x="724" y="43" type="line"/>
      <point x="724" y="100" type="line"/>
      <point x="668" y="100" type="line"/>
      <point x="668" y="350" type="line"/>
      <point x="610" y="350" type="line"/>
      <point x="471" y="90" type="line"/>
      <point x="471" y="43" type="line"/>
    </contour>
    <contour>
      <point x="609" y="244" type="line"/>
      <point x="609" y="100" type="line"/>
      <point x="535" y="100" type="line"/>
    </contour>
  </outline>
</glyph>
<glyph name="onehalf" format="2">
	<unicode hex="00BD"/>
	<advance width="838"/>
	<outline>
		<contour>
			<point x="131" y="-61" type="line"/>
			<point x="726" y="711" type="line"/>
			<point x="679" y="747" type="line"/>
			<point x="84" y="-25" type="line"/>
		</contour>
		<contour>
			<point x="196" y="666" type="line"/>
			<point x="196" y="324" type="line"/>
			<point x="257" y="324" type="line"/>
			<point x="257" y="737" type="line"/>
			<point x="208" y="737" type="line"/>
			<point x="136" y="687" type="line"/>
			<point x="136" y="623" type="line"/>
		</contour>
		<contour>
			<point x="491" y="-11" type="curve"/>
			<point x="491" y="-64" type="line"/>
			<point x="712" y="-64" type="line"/>
			<point x="712" y="-7" type="line"/>
			<point x="574" y="-7" type="line"/>
			<point x="593" y="14"/>
			<point x="614" y="39"/>
			<point x="636" y="67" type="curve" smooth="yes"/>
			<point x="660" y="97"/>
			<point x="679" y="131"/>
			<point x="694" y="170" type="curve" smooth="yes"/>
			<point x="697" y="179"/>
			<point x="700" y="190"/>
			<point x="702" y="203" type="curve" smooth="yes"/>
			<point x="704" y="215"/>
			<point x="705" y="226"/>
			<point x="705" y="235" type="curve" smooth="yes"/>
			<point x="705" y="269"/>
			<point x="694" y="297"/>
			<point x="672" y="319" type="curve" smooth="yes"/>
			<point x="649" y="339"/>
			<point x="623" y="350"/>
			<point x="595" y="350" type="curve" smooth="yes"/>
			<point x="573" y="350"/>
			<point x="556" y="346"/>
			<point x="543" y="338" type="curve" smooth="yes"/>
			<point x="529" y="329"/>
			<point x="517" y="319"/>
			<point x="509" y="307" type="curve" smooth="yes"/>
			<point x="501" y="295"/>
			<point x="496" y="282"/>
			<point x="493" y="269" type="curve" smooth="yes"/>
			<point x="489" y="255"/>
			<point x="488" y="244"/>
			<point x="488" y="234" type="curve"/>
			<point x="553" y="234" type="line"/>
			<point x="551" y="252"/>
			<point x="555" y="268"/>
			<point x="563" y="280" type="curve" smooth="yes"/>
			<point x="570" y="291"/>
			<point x="581" y="297"/>
			<point x="595" y="297" type="curve" smooth="yes"/>
			<point x="612" y="297"/>
			<point x="624" y="290"/>
			<point x="632" y="278" type="curve" smooth="yes"/>
			<point x="638" y="265"/>
			<point x="642" y="252"/>
			<point x="642" y="239" type="curve" smooth="yes"/>
			<point x="642" y="231"/>
			<point x="641" y="222"/>
			<point x="640" y="211" type="curve" smooth="yes"/>
			<point x="638" y="199"/>
			<point x="636" y="191"/>
			<point x="634" y="186" type="curve" smooth="yes"/>
			<point x="622" y="154"/>
			<point x="603" y="121"/>
			<point x="577" y="87" type="curve" smooth="yes"/>
			<point x="541" y="41"/>
			<point x="512" y="8"/>
		</contour>
	</outline>
</glyph>
<glyph name="threequarters" format="2">
	<unicode hex="00BE"/>
	<advance width="871"/>
	<outline>
		<contour>
			<point x="131" y="-61" type="line"/>
			<point x="726" y="711" type="line"/>
			<point x="679" y="747" type="line"/>
			<point x="84" y="-25" type="line"/>
		</contour>
		<contour>
			<point x="609" y="43" type="line"/>
			<point x="609" y="-63" type="line"/>
			<point x="668" y="-63" type="line"/>
			<point x="668" y="43" type="line"/>
			<point x="724" y="43" type="line"/>
			<point x="724" y="100" type="line"/>
			<point x="668" y="100" type="line"/>
			<point x="668" y="350" type="line"/>
			<point x="610" y="350" type="line"/>
			<point x="471" y="90" type="line"/>
			<point x="471" y="43" type="line"/>
		</contour>
		<contour>
			<point x="609" y="244" type="line"/>
			<point x="609" y="100" type="line"/>
			<point x="535" y="100" type="line"/>
		</contour>
		<contour>
			<point x="257" y="550" type="curve"/>
			<point x="282.381" y="559.518"/>
			<point x="301" y="596.162"/>
			<point x="301" y="638" type="curve" smooth="yes"/>
			<point x="301" y="701.957"/>
			<point x="253.713" y="749"/>
			<point x="190" y="749" type="curve" smooth="yes"/>
			<point x="128.06" y="749"/>
			<point x="83" y="708.157"/>
			<point x="83" y="650" type="curve"/>
			<point x="142" y="650" type="line"/>
			<point x="145.859" y="677.015"/>
			<point x="162.106" y="697"/>
			<point x="194" y="697" type="curve" smooth="yes"/>
			<point x="222.222" y="697"/>
			<point x="239" y="668.816"/>
			<point x="239" y="638" type="curve" smooth="yes"/>
			<point x="239" y="591.052"/>
			<point x="211.443" y="576"/>
			<point x="165" y="576" type="curve"/>
			<point x="165" y="524" type="line"/>
			<point x="214.532" y="524"/>
			<point x="243" y="506.999"/>
			<point x="243" y="454" type="curve" smooth="yes"/>
			<point x="243" y="412.608"/>
			<point x="226.856" y="382"/>
			<point x="189" y="382" type="curve" smooth="yes"/>
			<point x="158.839" y="382"/>
			<point x="141" y="402.92"/>
			<point x="141" y="430" type="curve"/>
			<point x="75" y="430" type="line"/>
			<point x="81.5093" y="369.246"/>
			<point x="120.568" y="329"/>
			<point x="191" y="329" type="curve" smooth="yes"/>
			<point x="263.439" y="329"/>
			<point x="308" y="382.287"/>
			<point x="308" y="453" type="curve" smooth="yes"/>
			<point x="308" y="499.293"/>
			<point x="284.505" y="537.776"/>
		</contour>
	</outline>
</glyph>
<glyph name="questiondown" format="2">
  <advance width="838"/>
  <unicode hex="00BF"/>
  <outline>
    <contour>
      <point x="208" y="109" type="curve" smooth="yes"/>
      <point x="208" y="79"/>
      <point x="214" y="54"/>
      <point x="227" y="33" type="curve" smooth="yes"/>
      <point x="239" y="11"/>
      <point x="255" y="-6"/>
      <point x="274" y="-20" type="curve" smooth="yes"/>
      <point x="292" y="-34"/>
      <point x="313" y="-44"/>
      <point x="337" y="-51" type="curve" smooth="yes"/>
      <point x="359" y="-57"/>
      <point x="381" y="-61"/>
      <point x="403" y="-61" type="curve" smooth="yes"/>
      <point x="418" y="-61"/>
      <point x="433" y="-60"/>
      <point x="448" y="-58" type="curve" smooth="yes"/>
      <point x="462" y="-56"/>
      <point x="474" y="-53"/>
      <point x="486" y="-51" type="curve" smooth="yes"/>
      <point x="498" y="-48"/>
      <point x="509" y="-45"/>
      <point x="519" y="-43" type="curve" smooth="yes"/>
      <point x="528" y="-40"/>
      <point x="537" y="-37"/>
      <point x="545" y="-35" type="curve"/>
      <point x="545" y="41" type="line"/>
      <point x="535" y="37"/>
      <point x="526" y="34"/>
      <point x="517" y="30" type="curve" smooth="yes"/>
      <point x="507" y="26"/>
      <point x="495" y="22"/>
      <point x="483" y="18" type="curve" smooth="yes"/>
      <point x="469" y="14"/>
      <point x="456" y="11"/>
      <point x="444" y="9" type="curve" smooth="yes"/>
      <point x="431" y="6"/>
      <point x="418" y="5"/>
      <point x="405" y="5" type="curve" smooth="yes"/>
      <point x="390" y="5"/>
      <point x="376" y="8"/>
      <point x="363" y="14" type="curve" smooth="yes"/>
      <point x="349" y="20"/>
      <point x="336" y="27"/>
      <point x="325" y="37" type="curve" smooth="yes"/>
      <point x="314" y="46"/>
      <point x="305" y="57"/>
      <point x="299" y="71" type="curve" smooth="yes"/>
      <point x="291" y="83"/>
      <point x="288" y="97"/>
      <point x="288" y="112" type="curve" smooth="yes"/>
      <point x="288" y="128"/>
      <point x="292" y="144"/>
      <point x="300" y="162" type="curve" smooth="yes"/>
      <point x="307" y="178"/>
      <point x="316" y="194"/>
      <point x="327" y="208" type="curve" smooth="yes"/>
      <point x="338" y="223"/>
      <point x="350" y="237"/>
      <point x="363" y="251" type="curve" smooth="yes"/>
      <point x="375" y="264"/>
      <point x="386" y="276"/>
      <point x="396" y="286" type="curve" smooth="yes"/>
      <point x="415" y="308"/>
      <point x="430" y="330"/>
      <point x="442" y="354" type="curve" smooth="yes"/>
      <point x="452" y="377"/>
      <point x="458" y="409"/>
      <point x="458" y="449" type="curve" smooth="yes"/>
      <point x="458" y="521" type="line"/>
      <point x="385" y="521" type="line"/>
      <point x="385" y="470" type="line" smooth="yes"/>
      <point x="385" y="448"/>
      <point x="384" y="430"/>
      <point x="382" y="416" type="curve" smooth="yes"/>
      <point x="379" y="401"/>
      <point x="375" y="388"/>
      <point x="370" y="378" type="curve" smooth="yes"/>
      <point x="365" y="368"/>
      <point x="359" y="358"/>
      <point x="353" y="350" type="curve" smooth="yes"/>
      <point x="346" y="341"/>
      <point x="339" y="331"/>
      <point x="331" y="321" type="curve" smooth="yes"/>
      <point x="324" y="313"/>
      <point x="314" y="302"/>
      <point x="301" y="288" type="curve" smooth="yes"/>
      <point x="287" y="273"/>
      <point x="274" y="257"/>
      <point x="260" y="239" type="curve" smooth="yes"/>
      <point x="246" y="221"/>
      <point x="234" y="201"/>
      <point x="224" y="179" type="curve" smooth="yes"/>
      <point x="213" y="156"/>
      <point x="208" y="133"/>
    </contour>
    <contour>
      <point x="371" y="733" type="line"/>
      <point x="371" y="633" type="line"/>
      <point x="468" y="633" type="line"/>
      <point x="468" y="733" type="line"/>
    </contour>
  </outline>
</glyph>
<glyph name="AE" format="2">
  <advance width="751"/>
  <unicode hex="00C6"/>
  <outline>
    <contour>
      <point x="8" y="6" type="line"/>
      <point x="77" y="6" type="line"/>
      <point x="158" y="221" type="line"/>
      <point x="360" y="221" type="line"/>
      <point x="360" y="6" type="line"/>
      <point x="705" y="6" type="line"/>
      <point x="705" y="73" type="line"/>
      <point x="431" y="73" type="line"/>
      <point x="431" y="340" type="line"/>
      <point x="687" y="340" type="line"/>
      <point x="687" y="406" type="line"/>
      <point x="431" y="406" type="line"/>
      <point x="431" y="640" type="line"/>
      <point x="697" y="640" type="line"/>
      <point x="697" y="707" type="line"/>
      <point x="271" y="707" type="line"/>
    </contour>
    <contour>
      <point x="308" y="622" type="line"/>
      <point x="360" y="622" type="line"/>
      <point x="360" y="287" type="line"/>
      <point x="183" y="287" type="line"/>
    </contour>
  </outline>
</glyph>
<glyph name="Eth" format="2">
	<unicode hex="00D0"/>
	<advance width="627"/>
	<outline>
		<contour>
			<point x="126" y="337" type="line"/>
			<point x="24" y="337" type="line"/>
			<point x="24" y="393" type="line"/>
			<point x="126" y="393" type="line"/>
			<point x="126" y="707" type="line"/>
			<point x="281" y="707" type="line" smooth="yes"/>
			<point x="489" y="707"/>
			<point x="584" y="574"/>
			<point x="584" y="359" type="curve" smooth="yes"/>
			<point x="584" y="142"/>
			<point x="485" y="6"/>
			<point x="271" y="6" type="curve" smooth="yes"/>
			<point x="126" y="6" type="line"/>
		</contour>
		<contour>
			<point x="196" y="337" type="line"/>
			<point x="196" y="73" type="line"/>
			<point x="224.732" y="73"/>
			<point x="253.794" y="72.8482"/>
			<point x="282.281" y="72.8482" type="curve" smooth="yes"/>
			<point x="445.851" y="72.8482"/>
			<point x="514" y="190.468"/>
			<point x="514" y="358" type="curve" smooth="yes"/>
			<point x="510" y="543"/>
			<point x="448" y="635"/>
			<point x="263" y="640" type="curve"/>
			<point x="196" y="640" type="line"/>
			<point x="196" y="393" type="line"/>
			<point x="390" y="393" type="line"/>
			<point x="390" y="337" type="line"/>
		</contour>
	</outline>
</glyph>
<glyph name="multiply" format="2">
	<unicode hex="00D7"/>
	<advance width="590"/>
	<outline>
		<contour>
			<point x="478" y="594" type="line"/>
			<point x="294" y="385" type="line"/>
			<point x="110" y="594" type="line"/>
			<point x="62" y="550" type="line"/>
			<point x="250" y="336" type="line"/>
			<point x="62" y="122" type="line"/>
			<point x="110" y="77" type="line"/>
			<point x="294" y="286" type="line"/>
			<point x="478" y="77" type="line"/>
			<point x="526" y="122" type="line"/>
			<point x="338" y="336" type="line"/>
			<point x="526" y="550" type="line"/>
		</contour>
	</outline>
</glyph>
<glyph name="Oslash" format="2">
	<unicode hex="00D8"/>
	<advance width="676"/>
	<outline>
		<contour>
			<point x="541" y="357" type="curve" smooth="yes"/>
			<point x="541" y="316"/>
			<point x="536" y="277"/>
			<point x="527" y="240" type="curve" smooth="yes"/>
			<point x="517" y="202"/>
			<point x="502" y="169"/>
			<point x="484" y="142" type="curve" smooth="yes"/>
			<point x="465" y="115"/>
			<point x="442" y="94"/>
			<point x="416" y="80" type="curve" smooth="yes"/>
			<point x="389" y="65"/>
			<point x="362" y="58"/>
			<point x="334" y="58" type="curve" smooth="yes"/>
			<point x="306" y="58"/>
			<point x="278" y="65"/>
			<point x="252" y="80" type="curve" smooth="yes"/>
			<point x="238" y="87"/>
			<point x="226" y="96"/>
			<point x="216" y="106" type="curve"/>
			<point x="505" y="534" type="line"/>
			<point x="513" y="516"/>
			<point x="521" y="496"/>
			<point x="527" y="475" type="curve" smooth="yes"/>
			<point x="536" y="437"/>
			<point x="541" y="397"/>
		</contour>
		<contour>
			<point x="477" y="582" type="curve"/>
			<point x="181" y="146" type="line"/>
			<point x="163" y="172"/>
			<point x="150" y="204"/>
			<point x="142" y="240" type="curve" smooth="yes"/>
			<point x="132" y="277"/>
			<point x="127" y="316"/>
			<point x="127" y="357" type="curve" smooth="yes"/>
			<point x="127" y="397"/>
			<point x="132" y="437"/>
			<point x="142" y="475" type="curve" smooth="yes"/>
			<point x="151" y="512"/>
			<point x="165" y="544"/>
			<point x="184" y="572" type="curve" smooth="yes"/>
			<point x="202" y="598"/>
			<point x="225" y="619"/>
			<point x="252" y="634" type="curve" smooth="yes"/>
			<point x="278" y="648"/>
			<point x="306" y="656"/>
			<point x="334" y="656" type="curve" smooth="yes"/>
			<point x="362" y="656"/>
			<point x="389" y="648"/>
			<point x="416" y="634" type="curve" smooth="yes"/>
			<point x="439" y="621"/>
			<point x="459" y="604"/>
		</contour>
		<contour>
			<point x="615" y="357" type="curve" smooth="yes"/>
			<point x="615" y="407"/>
			<point x="608" y="454"/>
			<point x="595" y="500" type="curve" smooth="yes"/>
			<point x="583" y="536"/>
			<point x="568" y="569"/>
			<point x="549" y="599" type="curve"/>
			<point x="602" y="677" type="line"/>
			<point x="561" y="707" type="line"/>
			<point x="516" y="640" type="line"/>
			<point x="495" y="662"/>
			<point x="471" y="679"/>
			<point x="445" y="693" type="curve" smooth="yes"/>
			<point x="409" y="710"/>
			<point x="372" y="719"/>
			<point x="334" y="719" type="curve" smooth="yes"/>
			<point x="295" y="719"/>
			<point x="258" y="710"/>
			<point x="223" y="693" type="curve" smooth="yes"/>
			<point x="187" y="675"/>
			<point x="157" y="649"/>
			<point x="132" y="617" type="curve" smooth="yes"/>
			<point x="106" y="583"/>
			<point x="87" y="544"/>
			<point x="74" y="500" type="curve" smooth="yes"/>
			<point x="60" y="454"/>
			<point x="53" y="407"/>
			<point x="53" y="357" type="curve" smooth="yes"/>
			<point x="53" y="307"/>
			<point x="60" y="259"/>
			<point x="74" y="215" type="curve" smooth="yes"/>
			<point x="87" y="169"/>
			<point x="106" y="130"/>
			<point x="132" y="97" type="curve" smooth="yes"/>
			<point x="134" y="93"/>
			<point x="137" y="89"/>
			<point x="141" y="86" type="curve"/>
			<point x="89" y="9" type="line"/>
			<point x="132" y="-18" type="line"/>
			<point x="178" y="50" type="line"/>
			<point x="192" y="39"/>
			<point x="207" y="30"/>
			<point x="223" y="22" type="curve" smooth="yes"/>
			<point x="258" y="4"/>
			<point x="295" y="-5"/>
			<point x="334" y="-5" type="curve" smooth="yes"/>
			<point x="372" y="-5"/>
			<point x="409" y="4"/>
			<point x="445" y="22" type="curve" smooth="yes"/>
			<point x="480" y="39"/>
			<point x="510" y="64"/>
			<point x="536" y="97" type="curve" smooth="yes"/>
			<point x="561" y="130"/>
			<point x="581" y="169"/>
			<point x="595" y="215" type="curve" smooth="yes"/>
			<point x="608" y="259"/>
			<point x="615" y="307"/>
		</contour>
	</outline>
</glyph>
<glyph name="Thorn" format="2">
	<unicode hex="00DE"/>
	<advance width="525"/>
	<outline>
		<contour>
			<point x="145" y="707" type="line"/>
			<point x="74" y="707" type="line"/>
			<point x="74" y="6" type="line"/>
			<point x="145" y="6" type="line"/>
			<point x="145" y="136" type="line"/>
			<point x="264" y="136" type="line" smooth="yes"/>
			<point x="392.422" y="136"/>
			<point x="483" y="202.966"/>
			<point x="483" y="335" type="curve" smooth="yes"/>
			<point x="483" y="476.149"/>
			<point x="372.521" y="539"/>
			<point x="231" y="539" type="curve" smooth="yes"/>
			<point x="145" y="539" type="line"/>
		</contour>
		<contour>
			<point x="145" y="475" type="line"/>
			<point x="259" y="475" type="line" smooth="yes"/>
			<point x="345.041" y="475"/>
			<point x="410" y="424.19"/>
			<point x="410" y="337" type="curve" smooth="yes"/>
			<point x="406.202" y="240.14"/>
			<point x="346.647" y="201"/>
			<point x="251" y="201" type="curve" smooth="yes"/>
			<point x="145" y="201" type="line"/>
		</contour>
	</outline>
</glyph>
<glyph name="germandbls" format="2">
	<unicode hex="00DF"/>
	<advance width="537"/>
	<outline>
		<contour>
			<point x="268" y="345" type="line" smooth="yes"/>
			<point x="356.562" y="345"/>
			<point x="415.389" y="293.661"/>
			<point x="419" y="207" type="curve"/>
			<point x="413.358" y="111.082"/>
			<point x="355.597" y="71"/>
			<point x="260" y="71" type="curve" smooth="yes"/>
			<point x="224" y="71" type="line"/>
			<point x="224" y="6" type="line"/>
			<point x="273" y="6" type="line" smooth="yes"/>
			<point x="401.805" y="6"/>
			<point x="491" y="72.1296"/>
			<point x="491" y="205" type="curve" smooth="yes"/>
			<point x="491" y="305.826"/>
			<point x="434.686" y="363.863"/>
			<point x="354" y="380" type="curve"/>
			<point x="411.689" y="395.733"/>
			<point x="465" y="462.753"/>
			<point x="465" y="545" type="curve" smooth="yes"/>
			<point x="461.195" y="661.045"/>
			<point x="387.454" y="720"/>
			<point x="273" y="720" type="curve" smooth="yes"/>
			<point x="147.842" y="720"/>
			<point x="83" y="619.693"/>
			<point x="83" y="491" type="curve" smooth="yes"/>
			<point x="83" y="6" type="line"/>
			<point x="153" y="6" type="line"/>
			<point x="153" y="491" type="line" smooth="yes"/>
			<point x="153" y="582.189"/>
			<point x="182.584" y="655"/>
			<point x="272" y="655" type="curve" smooth="yes"/>
			<point x="345.367" y="655"/>
			<point x="395" y="614.492"/>
			<point x="395" y="540" type="curve" smooth="yes"/>
			<point x="395" y="442.893"/>
			<point x="333.31" y="409"/>
			<point x="239" y="409" type="curve" smooth="yes"/>
			<point x="224" y="409" type="line"/>
			<point x="224" y="345" type="line"/>
		</contour>
	</outline>
</glyph>
<glyph name="ae" format="2">
	<unicode hex="00E6"/>
	<advance width="727"/>
	<outline>
		<contour>
			<point x="677" y="297" type="line" smooth="yes"/>
			<point x="677" y="421.911"/>
			<point x="643.014" y="510"/>
			<point x="518" y="510" type="curve" smooth="yes"/>
			<point x="442.91" y="510"/>
			<point x="397.748" y="480.2"/>
			<point x="367" y="436" type="curve"/>
			<point x="342.632" y="480.676"/>
			<point x="295.685" y="510"/>
			<point x="226" y="510" type="curve" smooth="yes"/>
			<point x="133.473" y="510"/>
			<point x="59" y="459.426"/>
			<point x="59" y="371" type="curve"/>
			<point x="137" y="371" type="line"/>
			<point x="137" y="420.895"/>
			<point x="173.324" y="451"/>
			<point x="226" y="451" type="curve" smooth="yes"/>
			<point x="293.427" y="451"/>
			<point x="321" y="406.442"/>
			<point x="321" y="342" type="curve" smooth="yes"/>
			<point x="321" y="291" type="line"/>
			<point x="181.194" y="291"/>
			<point x="48" y="265.575"/>
			<point x="48" y="124" type="curve" smooth="yes"/>
			<point x="48" y="50.3464"/>
			<point x="96.5795" y="-5"/>
			<point x="169" y="-5" type="curve" smooth="yes"/>
			<point x="272.54" y="-5"/>
			<point x="323.428" y="31.7482"/>
			<point x="356" y="103" type="curve"/>
			<point x="392.238" y="30.5235"/>
			<point x="447.013" y="-5"/>
			<point x="549" y="-5" type="curve" smooth="yes"/>
			<point x="591.715" y="-5"/>
			<point x="630.503" y="2.83432"/>
			<point x="664" y="14" type="curve"/>
			<point x="664" y="70" type="line"/>
			<point x="636.462" y="60.3618"/>
			<point x="598.03" y="54"/>
			<point x="569" y="54" type="curve" smooth="yes"/>
			<point x="442.75" y="54"/>
			<point x="396.528" y="114.785"/>
			<point x="389" y="239" type="curve"/>
			<point x="677" y="239" type="line"/>
		</contour>
		<contour>
			<point x="321" y="190" type="line" smooth="yes"/>
			<point x="321" y="116.257"/>
			<point x="270.218" y="54"/>
			<point x="201" y="54" type="curve" smooth="yes"/>
			<point x="150.035" y="54"/>
			<point x="120" y="77.104"/>
			<point x="120" y="134" type="curve" smooth="yes"/>
			<point x="120" y="229.236"/>
			<point x="225.102" y="240"/>
			<point x="321" y="240" type="curve"/>
		</contour>
		<contour>
			<point x="515" y="451" type="curve" smooth="yes"/>
			<point x="596.287" y="451"/>
			<point x="604" y="379.698"/>
			<point x="604" y="297" type="curve"/>
			<point x="389" y="297" type="line"/>
			<point x="392.55" y="380.419"/>
			<point x="431.522" y="451"/>
		</contour>
	</outline>
</glyph>
<glyph name="eth" format="2">
	<unicode hex="00F0"/>
	<advance width="516"/>
	<outline>
		<contour>
			<point x="308" y="645" type="line"/>
			<point x="257.829" y="683.593"/>
			<point x="192.64" y="704.498"/>
			<point x="114" y="713" type="curve"/>
			<point x="114" y="657" type="line"/>
			<point x="166.945" y="646.818"/>
			<point x="213.71" y="633.183"/>
			<point x="252" y="609" type="curve"/>
			<point x="146" y="539" type="line"/>
			<point x="171" y="493" type="line"/>
			<point x="290" y="572" type="line"/>
			<point x="321.199" y="540.801"/>
			<point x="346.528" y="499.284"/>
			<point x="362" y="449" type="curve"/>
			<point x="332.872" y="472.988"/>
			<point x="296.163" y="486"/>
			<point x="248" y="486" type="curve" smooth="yes"/>
			<point x="110.876" y="486"/>
			<point x="41" y="374.21"/>
			<point x="41" y="238" type="curve" smooth="yes"/>
			<point x="41" y="91.2167"/>
			<point x="111.638" y="-5"/>
			<point x="250" y="-5" type="curve" smooth="yes"/>
			<point x="385.21" y="-5"/>
			<point x="459" y="97.6551"/>
			<point x="459" y="239" type="curve" smooth="yes"/>
			<point x="459" y="240" type="line" smooth="yes"/>
			<point x="459" y="400.49"/>
			<point x="421.77" y="526.799"/>
			<point x="348" y="609" type="curve"/>
			<point x="437" y="668" type="line"/>
			<point x="412" y="713" type="line"/>
		</contour>
		<contour>
			<point x="113" y="238" type="curve" smooth="yes"/>
			<point x="113" y="337.407"/>
			<point x="147.263" y="427"/>
			<point x="247" y="427" type="curve" smooth="yes"/>
			<point x="345.047" y="427"/>
			<point x="386" y="336.751"/>
			<point x="386" y="239" type="curve" smooth="yes"/>
			<point x="386" y="140.378"/>
			<point x="346.467" y="54"/>
			<point x="251" y="54" type="curve" smooth="yes"/>
			<point x="155.569" y="54"/>
			<point x="113" y="141.112"/>
		</contour>
	</outline>
</glyph>
<glyph name="divide" format="2">
	<unicode hex="00F7"/>
	<advance width="590"/>
	<outline>
		<contour>
			<point x="357" y="572" type="curve" smooth="yes"/>
			<point x="357" y="606.677"/>
			<point x="328.686" y="635"/>
			<point x="294" y="635" type="curve" smooth="yes"/>
			<point x="258.794" y="635"/>
			<point x="231" y="605.614"/>
			<point x="231" y="572" type="curve" smooth="yes"/>
			<point x="231" y="537.855"/>
			<point x="259.871" y="509"/>
			<point x="294" y="509" type="curve" smooth="yes"/>
			<point x="327.61" y="509"/>
			<point x="357" y="536.805"/>
		</contour>
		<contour>
			<point x="549" y="376" type="line"/>
			<point x="39" y="376" type="line"/>
			<point x="39" y="308" type="line"/>
			<point x="549" y="308" type="line"/>
		</contour>
		<contour>
			<point x="357" y="111" type="curve" smooth="yes"/>
			<point x="357" y="145.677"/>
			<point x="328.686" y="174"/>
			<point x="294" y="174" type="curve" smooth="yes"/>
			<point x="258.794" y="174"/>
			<point x="231" y="144.614"/>
			<point x="231" y="111" type="curve" smooth="yes"/>
			<point x="231" y="76.8546"/>
			<point x="259.871" y="48"/>
			<point x="294" y="48" type="curve" smooth="yes"/>
			<point x="327.61" y="48"/>
			<point x="357" y="75.8049"/>
		</contour>
	</outline>
</glyph>
<glyph name="oslash" format="2">
	<unicode hex="00F8"/>
	<advance width="533"/>
	<outline>
		<contour>
			<point x="399" y="252" type="curve" smooth="yes"/>
			<point x="399" y="225"/>
			<point x="396" y="199"/>
			<point x="390" y="175" type="curve" smooth="yes"/>
			<point x="383" y="149"/>
			<point x="374" y="128"/>
			<point x="362" y="110" type="curve" smooth="yes"/>
			<point x="349" y="92"/>
			<point x="334" y="78"/>
			<point x="317" y="69" type="curve" smooth="yes"/>
			<point x="299" y="59"/>
			<point x="280" y="54"/>
			<point x="262" y="54" type="curve" smooth="yes"/>
			<point x="243" y="54"/>
			<point x="225" y="59"/>
			<point x="208" y="69" type="curve" smooth="yes"/>
			<point x="204" y="70"/>
			<point x="201" y="72"/>
			<point x="198" y="74" type="curve" smooth="yes"/>
			<point x="383" y="352" type="line"/>
			<point x="385" y="345"/>
			<point x="388" y="338"/>
			<point x="390" y="330" type="curve" smooth="yes"/>
			<point x="396" y="304"/>
			<point x="399" y="278"/>
		</contour>
		<contour>
			<point x="355" y="404" type="curve"/>
			<point x="161" y="112" type="line"/>
			<point x="149" y="130"/>
			<point x="141" y="151"/>
			<point x="135" y="175" type="curve" smooth="yes"/>
			<point x="128" y="199"/>
			<point x="125" y="225"/>
			<point x="125" y="252" type="curve" smooth="yes"/>
			<point x="125" y="278"/>
			<point x="128" y="304"/>
			<point x="135" y="330" type="curve" smooth="yes"/>
			<point x="141" y="355"/>
			<point x="150" y="377"/>
			<point x="162" y="395" type="curve" smooth="yes"/>
			<point x="174" y="413"/>
			<point x="190" y="427"/>
			<point x="208" y="437" type="curve" smooth="yes"/>
			<point x="225" y="446"/>
			<point x="243" y="451"/>
			<point x="262" y="451" type="curve" smooth="yes"/>
			<point x="280" y="451"/>
			<point x="299" y="446"/>
			<point x="317" y="437" type="curve" smooth="yes"/>
			<point x="331" y="428"/>
			<point x="344" y="417"/>
		</contour>
		<contour>
			<point x="472" y="252" type="curve" smooth="yes"/>
			<point x="472" y="287"/>
			<point x="467" y="321"/>
			<point x="457" y="354" type="curve" smooth="yes"/>
			<point x="449" y="378"/>
			<point x="439" y="399"/>
			<point x="427" y="418" type="curve"/>
			<point x="469" y="482" type="line"/>
			<point x="428" y="512" type="line"/>
			<point x="393" y="459" type="line"/>
			<point x="378" y="471"/>
			<point x="362" y="482"/>
			<point x="345" y="491" type="curve" smooth="yes"/>
			<point x="318" y="503"/>
			<point x="290" y="510"/>
			<point x="262" y="510" type="curve" smooth="yes"/>
			<point x="233" y="510"/>
			<point x="205" y="503"/>
			<point x="179" y="491" type="curve" smooth="yes"/>
			<point x="152" y="478"/>
			<point x="129" y="460"/>
			<point x="111" y="437" type="curve" smooth="yes"/>
			<point x="91" y="413"/>
			<point x="77" y="386"/>
			<point x="67" y="354" type="curve" smooth="yes"/>
			<point x="57" y="321"/>
			<point x="52" y="287"/>
			<point x="52" y="252" type="curve" smooth="yes"/>
			<point x="52" y="216"/>
			<point x="57" y="183"/>
			<point x="67" y="151" type="curve" smooth="yes"/>
			<point x="77" y="119"/>
			<point x="91" y="91"/>
			<point x="111" y="68" type="curve" smooth="yes"/>
			<point x="114" y="63"/>
			<point x="118" y="59"/>
			<point x="122" y="55" type="curve"/>
			<point x="80" y="-8" type="line"/>
			<point x="124" y="-37" type="line"/>
			<point x="163" y="22" type="line"/>
			<point x="179" y="14" type="line" smooth="yes"/>
			<point x="205" y="1"/>
			<point x="233" y="-5"/>
			<point x="262" y="-5" type="curve" smooth="yes"/>
			<point x="290" y="-5"/>
			<point x="318" y="1"/>
			<point x="345" y="14" type="curve" smooth="yes"/>
			<point x="371" y="26"/>
			<point x="394" y="44"/>
			<point x="413" y="68" type="curve" smooth="yes"/>
			<point x="432" y="91"/>
			<point x="447" y="119"/>
			<point x="457" y="151" type="curve" smooth="yes"/>
			<point x="467" y="183"/>
			<point x="472" y="216"/>
		</contour>
	</outline>
</glyph>
<glyph name="thorn" format="2">
	<unicode hex="00FE"/>
	<advance width="524"/>
	<outline>
		<contour>
			<point x="90" y="-160" type="line"/>
			<point x="156" y="-160" type="line"/>
			<point x="156" y="51" type="line"/>
			<point x="169" y="35"/>
			<point x="186" y="22"/>
			<point x="206" y="13" type="curve" smooth="yes"/>
			<point x="226" y="3"/>
			<point x="249" y="-2"/>
			<point x="277" y="-2" type="curve" smooth="yes"/>
			<point x="335" y="-2"/>
			<point x="383" y="19"/>
			<point x="421" y="61" type="curve" smooth="yes"/>
			<point x="458" y="103"/>
			<point x="477" y="166"/>
			<point x="477" y="251" type="curve" smooth="yes"/>
			<point x="477" y="283"/>
			<point x="473" y="314"/>
			<point x="467" y="346" type="curve" smooth="yes"/>
			<point x="460" y="376"/>
			<point x="449" y="404"/>
			<point x="435" y="429" type="curve" smooth="yes"/>
			<point x="419" y="453"/>
			<point x="400" y="472"/>
			<point x="377" y="488" type="curve" smooth="yes"/>
			<point x="353" y="502"/>
			<point x="325" y="510"/>
			<point x="292" y="510" type="curve" smooth="yes"/>
			<point x="271" y="510"/>
			<point x="253" y="506"/>
			<point x="237" y="499" type="curve" smooth="yes"/>
			<point x="221" y="491"/>
			<point x="207" y="483"/>
			<point x="196" y="473" type="curve" smooth="yes"/>
			<point x="185" y="463"/>
			<point x="176" y="452"/>
			<point x="170" y="442" type="curve" smooth="yes"/>
			<point x="162" y="431"/>
			<point x="158" y="422"/>
			<point x="156" y="416" type="curve"/>
			<point x="156" y="707" type="line"/>
			<point x="90" y="707" type="line"/>
		</contour>
		<contour>
			<point x="158" y="234" type="curve" smooth="yes"/>
			<point x="158" y="262"/>
			<point x="160" y="290"/>
			<point x="166" y="316" type="curve" smooth="yes"/>
			<point x="171" y="341"/>
			<point x="179" y="364"/>
			<point x="191" y="384" type="curve" smooth="yes"/>
			<point x="202" y="403"/>
			<point x="215" y="419"/>
			<point x="231" y="431" type="curve" smooth="yes"/>
			<point x="246" y="442"/>
			<point x="264" y="448"/>
			<point x="284" y="448" type="curve" smooth="yes"/>
			<point x="307" y="448"/>
			<point x="326" y="442"/>
			<point x="342" y="430" type="curve" smooth="yes"/>
			<point x="356" y="418"/>
			<point x="368" y="402"/>
			<point x="378" y="383" type="curve" smooth="yes"/>
			<point x="386" y="363"/>
			<point x="393" y="342"/>
			<point x="397" y="318" type="curve" smooth="yes"/>
			<point x="400" y="294"/>
			<point x="402" y="270"/>
			<point x="402" y="246" type="curve" smooth="yes"/>
			<point x="402" y="191"/>
			<point x="391" y="146"/>
			<point x="370" y="110" type="curve" smooth="yes"/>
			<point x="348" y="74"/>
			<point x="317" y="56"/>
			<point x="277" y="56" type="curve" smooth="yes"/>
			<point x="255" y="56"/>
			<point x="237" y="61"/>
			<point x="222" y="73" type="curve" smooth="yes"/>
			<point x="206" y="83"/>
			<point x="194" y="97"/>
			<point x="185" y="115" type="curve" smooth="yes"/>
			<point x="175" y="132"/>
			<point x="168" y="151"/>
			<point x="164" y="173" type="curve" smooth="yes"/>
			<point x="160" y="193"/>
			<point x="158" y="214"/>
		</contour>
	</outline>
</glyph>
<glyph name="dcroat" format="2">
	<unicode hex="0111"/>
	<advance width="542"/>
	<outline>
		<contour>
			<point x="361" y="563" type="line"/>
			<point x="361" y="410" type="line"/>
			<point x="359" y="410" type="line"/>
			<point x="355" y="419"/>
			<point x="349" y="429"/>
			<point x="343" y="441" type="curve" smooth="yes"/>
			<point x="336" y="451"/>
			<point x="328" y="461"/>
			<point x="318" y="470" type="curve" smooth="yes"/>
			<point x="308" y="479"/>
			<point x="296" y="487"/>
			<point x="282" y="493" type="curve" smooth="yes"/>
			<point x="267" y="499"/>
			<point x="250" y="502"/>
			<point x="231" y="503" type="curve" smooth="yes"/>
			<point x="176" y="503"/>
			<point x="132" y="480"/>
			<point x="98" y="435" type="curve" smooth="yes"/>
			<point x="63" y="389"/>
			<point x="46" y="324"/>
			<point x="46" y="240" type="curve" smooth="yes"/>
			<point x="46" y="204"/>
			<point x="50" y="171"/>
			<point x="59" y="141" type="curve" smooth="yes"/>
			<point x="67" y="111"/>
			<point x="79" y="85"/>
			<point x="94" y="63" type="curve" smooth="yes"/>
			<point x="109" y="41"/>
			<point x="127" y="25"/>
			<point x="149" y="13" type="curve" smooth="yes"/>
			<point x="170" y="1"/>
			<point x="193" y="-5"/>
			<point x="218" y="-5" type="curve" smooth="yes"/>
			<point x="242" y="-5"/>
			<point x="263" y="-1"/>
			<point x="281" y="6" type="curve" smooth="yes"/>
			<point x="298" y="13"/>
			<point x="312" y="22"/>
			<point x="323" y="32" type="curve" smooth="yes"/>
			<point x="334" y="42"/>
			<point x="343" y="52"/>
			<point x="349" y="63" type="curve" smooth="yes"/>
			<point x="354" y="73"/>
			<point x="357" y="82"/>
			<point x="359" y="90" type="curve"/>
			<point x="361" y="90" type="line"/>
			<point x="361" y="6" type="line"/>
			<point x="425" y="6" type="line"/>
			<point x="425" y="563" type="line"/>
			<point x="512" y="563" type="line"/>
			<point x="512" y="619" type="line"/>
			<point x="425" y="619" type="line"/>
			<point x="425" y="707" type="line"/>
			<point x="361" y="707" type="line"/>
			<point x="361" y="619" type="line"/>
			<point x="145" y="619" type="line"/>
			<point x="145" y="563" type="line"/>
		</contour>
		<contour>
			<point x="120" y="237" type="curve" smooth="yes"/>
			<point x="120" y="304"/>
			<point x="130" y="355"/>
			<point x="151" y="391" type="curve" smooth="yes"/>
			<point x="171" y="426"/>
			<point x="199" y="444"/>
			<point x="235" y="444" type="curve" smooth="yes"/>
			<point x="257" y="444"/>
			<point x="275" y="438"/>
			<point x="291" y="426" type="curve" smooth="yes"/>
			<point x="305" y="413"/>
			<point x="317" y="398"/>
			<point x="327" y="381" type="curve" smooth="yes"/>
			<point x="335" y="363"/>
			<point x="342" y="344"/>
			<point x="347" y="326" type="curve" smooth="yes"/>
			<point x="351" y="306"/>
			<point x="353" y="290"/>
			<point x="353" y="277" type="curve" smooth="yes"/>
			<point x="353" y="261"/>
			<point x="352" y="244"/>
			<point x="352" y="228" type="curve" smooth="yes"/>
			<point x="350" y="211"/>
			<point x="349" y="196"/>
			<point x="347" y="184" type="curve" smooth="yes"/>
			<point x="340" y="146"/>
			<point x="327" y="115"/>
			<point x="308" y="90" type="curve" smooth="yes"/>
			<point x="288" y="64"/>
			<point x="264" y="52"/>
			<point x="236" y="52" type="curve" smooth="yes"/>
			<point x="215" y="52"/>
			<point x="197" y="57"/>
			<point x="183" y="69" type="curve" smooth="yes"/>
			<point x="168" y="80"/>
			<point x="156" y="95"/>
			<point x="147" y="113" type="curve" smooth="yes"/>
			<point x="137" y="131"/>
			<point x="131" y="151"/>
			<point x="127" y="173" type="curve" smooth="yes"/>
			<point x="122" y="195"/>
			<point x="120" y="216"/>
		</contour>
	</outline>
</glyph>
<glyph name="Hbar" format="2">
	<unicode hex="0126"/>
	<advance width="679"/>
	<outline>
		<contour>
			<point x="121" y="498" type="line"/>
			<point x="121" y="6" type="line"/>
			<point x="192" y="6" type="line"/>
			<point x="192" y="334" type="line"/>
			<point x="476" y="334" type="line"/>
			<point x="476" y="6" type="line"/>
			<point x="547" y="6" type="line"/>
			<point x="547" y="498" type="line"/>
			<point x="635" y="498" type="line"/>
			<point x="635" y="554" type="line"/>
			<point x="547" y="554" type="line"/>
			<point x="547" y="707" type="line"/>
			<point x="476" y="707" type="line"/>
			<point x="476" y="554" type="line"/>
			<point x="192" y="554" type="line"/>
			<point x="192" y="707" type="line"/>
			<point x="121" y="707" type="line"/>
			<point x="121" y="554" type="line"/>
			<point x="19" y="554" type="line"/>
			<point x="19" y="498" type="line"/>
		</contour>
		<contour>
			<point x="192" y="400" type="line"/>
			<point x="192" y="498" type="line"/>
			<point x="476" y="498" type="line"/>
			<point x="476" y="400" type="line"/>
		</contour>
	</outline>
</glyph>
<glyph name="hbar" format="2">
	<unicode hex="0127"/>
	<advance width="538"/>
	<outline>
		<contour>
			<point x="109" y="557" type="line"/>
			<point x="109" y="6" type="line"/>
			<point x="173" y="6" type="line"/>
			<point x="173" y="222" type="line" smooth="yes"/>
			<point x="173" y="317.671"/>
			<point x="220.154" y="443"/>
			<point x="310" y="443" type="curve" smooth="yes"/>
			<point x="368.735" y="443"/>
			<point x="395" y="389.564"/>
			<point x="395" y="332" type="curve" smooth="yes"/>
			<point x="395" y="6" type="line"/>
			<point x="460" y="6" type="line"/>
			<point x="460" y="365" type="line" smooth="yes"/>
			<point x="460" y="453.047"/>
			<point x="407.265" y="507"/>
			<point x="322" y="507" type="curve" smooth="yes"/>
			<point x="238.628" y="507"/>
			<point x="191" y="442"/>
			<point x="173" y="378" type="curve"/>
			<point x="173" y="557" type="line"/>
			<point x="389" y="557" type="line"/>
			<point x="389" y="613" type="line"/>
			<point x="173" y="613" type="line"/>
			<point x="173" y="707" type="line"/>
			<point x="109" y="707" type="line"/>
			<point x="109" y="613" type="line"/>
			<point x="23" y="613" type="line"/>
			<point x="23" y="557" type="line"/>
		</contour>
	</outline>
</glyph>
<glyph name="dotlessi" format="2">
  <advance width="223"/>
  <unicode hex="0131"/>
  <outline>
    <contour>
      <point x="71" y="6" type="line"/>
      <point x="141" y="6" type="line"/>
      <point x="141" y="498" type="line"/>
      <point x="71" y="498" type="line"/>
    </contour>
  </outline>
</glyph>
<glyph name="IJ" format="2">
  <advance width="597"/>
  <unicode hex="0132"/>
  <outline>
    <contour>
      <point x="85" y="6" type="line"/>
      <point x="158" y="6" type="line"/>
      <point x="158" y="707" type="line"/>
      <point x="85" y="707" type="line"/>
    </contour>
    <contour>
      <point x="510" y="707" type="line"/>
      <point x="439" y="707" type="line"/>
      <point x="439" y="169" type="line" smooth="yes"/>
      <point x="439" y="149"/>
      <point x="436" y="132"/>
      <point x="432" y="120" type="curve" smooth="yes"/>
      <point x="427" y="106"/>
      <point x="421" y="96"/>
      <point x="414" y="88" type="curve" smooth="yes"/>
      <point x="406" y="80"/>
      <point x="398" y="74"/>
      <point x="390" y="71" type="curve" smooth="yes"/>
      <point x="381" y="67"/>
      <point x="373" y="64"/>
      <point x="366" y="63" type="curve" smooth="yes"/>
      <point x="360" y="61"/>
      <point x="355" y="61"/>
      <point x="351" y="61" type="curve" smooth="yes"/>
      <point x="346" y="61"/>
      <point x="342" y="61"/>
      <point x="338" y="61" type="curve" smooth="yes"/>
      <point x="322" y="61"/>
      <point x="306" y="63"/>
      <point x="290" y="67" type="curve" smooth="yes"/>
      <point x="273" y="70"/>
      <point x="260" y="74"/>
      <point x="251" y="78" type="curve"/>
      <point x="251" y="6" type="line"/>
      <point x="277" y="-2"/>
      <point x="304" y="-5"/>
      <point x="334" y="-5" type="curve" smooth="yes"/>
      <point x="369" y="-4"/>
      <point x="398" y="1"/>
      <point x="421" y="11" type="curve" smooth="yes"/>
      <point x="443" y="21"/>
      <point x="461" y="34"/>
      <point x="475" y="50" type="curve" smooth="yes"/>
      <point x="487" y="66"/>
      <point x="496" y="84"/>
      <point x="502" y="105" type="curve" smooth="yes"/>
      <point x="507" y="125"/>
      <point x="510" y="144"/>
      <point x="510" y="163" type="curve" smooth="yes"/>
    </contour>
  </outline>
</glyph>
<glyph name="ij" format="2">
	<unicode hex="0133"/>
	<advance width="422"/>
	<outline>
		<contour>
			<point x="78" y="6" type="line"/>
			<point x="149" y="6" type="line"/>
			<point x="149" y="498" type="line"/>
			<point x="78" y="498" type="line"/>
		</contour>
		<contour>
			<point x="71" y="610" type="line"/>
			<point x="155" y="610" type="line"/>
			<point x="155" y="707" type="line"/>
			<point x="71" y="707" type="line"/>
		</contour>
		<contour>
			<point x="148" y="-160" type="line"/>
			<point x="171" y="-160"/>
			<point x="194" y="-158"/>
			<point x="217" y="-154" type="curve" smooth="yes"/>
			<point x="239" y="-149"/>
			<point x="260" y="-140"/>
			<point x="278" y="-126" type="curve" smooth="yes"/>
			<point x="296" y="-112"/>
			<point x="310" y="-93"/>
			<point x="321" y="-69" type="curve" smooth="yes"/>
			<point x="331" y="-43"/>
			<point x="337" y="-10"/>
			<point x="337" y="30" type="curve" smooth="yes"/>
			<point x="337" y="498" type="line"/>
			<point x="268" y="498" type="line"/>
			<point x="268" y="5" type="line" smooth="yes"/>
			<point x="268" y="-21"/>
			<point x="263" y="-42"/>
			<point x="254" y="-56" type="curve" smooth="yes"/>
			<point x="244" y="-69"/>
			<point x="234" y="-79"/>
			<point x="222" y="-85" type="curve" smooth="yes"/>
			<point x="209" y="-90"/>
			<point x="196" y="-93"/>
			<point x="183" y="-94" type="curve" smooth="yes"/>
			<point x="169" y="-94"/>
			<point x="157" y="-94"/>
			<point x="148" y="-94" type="curve"/>
		</contour>
		<contour>
			<point x="258" y="610" type="line"/>
			<point x="343" y="610" type="line"/>
			<point x="343" y="707" type="line"/>
			<point x="258" y="707" type="line"/>
		</contour>
	</outline>
</glyph>
<glyph name="kgreenlandic" format="2">
	<unicode hex="0138"/>
	<advance width="460"/>
	<outline>
		<contour>
			<point x="62" y="6" type="line"/>
			<point x="123" y="6" type="line"/>
			<point x="123" y="219" type="line"/>
			<point x="190.371" y="149.037"/>
			<point x="255.49" y="76.8233"/>
			<point x="322" y="6" type="curve"/>
			<point x="412" y="6" type="line"/>
			<point x="171" y="266" type="line"/>
			<point x="386" y="498" type="line"/>
			<point x="304" y="498" type="line"/>
			<point x="243.497" y="433.169"/>
			<point x="184.368" y="366.966"/>
			<point x="123" y="303" type="curve"/>
			<point x="123" y="498" type="line"/>
			<point x="62" y="498" type="line"/>
		</contour>
	</outline>
</glyph>
<glyph name="Lslash" format="2">
	<unicode hex="0141"/>
	<advance width="532"/>
	<outline>
		<contour>
			<point x="134" y="336" type="line"/>
			<point x="134" y="6" type="line"/>
			<point x="490" y="6" type="line"/>
			<point x="490" y="73" type="line"/>
			<point x="204" y="73" type="line"/>
			<point x="204" y="392" type="line"/>
			<point x="361" y="516" type="line"/>
			<point x="331" y="561" type="line"/>
			<point x="204" y="461" type="line"/>
			<point x="204" y="707" type="line"/>
			<point x="134" y="707" type="line"/>
			<point x="134" y="406" type="line"/>
			<point x="15" y="312" type="line"/>
			<point x="45" y="266" type="line"/>
		</contour>
	</outline>
</glyph>
<glyph name="lslash" format="2">
	<unicode hex="0142"/>
	<advance width="468"/>
	<outline>
		<contour>
			<point x="178" y="6" type="line"/>
			<point x="245" y="6" type="line"/>
			<point x="245" y="384" type="line"/>
			<point x="421" y="570" type="line"/>
			<point x="386" y="608" type="line"/>
			<point x="245" y="460" type="line"/>
			<point x="245" y="707" type="line"/>
			<point x="178" y="707" type="line"/>
			<point x="178" y="389" type="line"/>
			<point x="19" y="222" type="line"/>
			<point x="57" y="185" type="line"/>
			<point x="178" y="313" type="line"/>
		</contour>
	</outline>
</glyph>
<glyph name="Eng" format="2">
  <advance width="599"/>
  <unicode hex="014A"/>
  <outline>
    <contour>
      <point x="512" y="707" type="line"/>
      <point x="444" y="707" type="line"/>
      <point x="444" y="106" type="line"/>
      <point x="168" y="707" type="line"/>
      <point x="77" y="707" type="line"/>
      <point x="77" y="6" type="line"/>
      <point x="145" y="6" type="line"/>
      <point x="145" y="605" type="line"/>
      <point x="146" y="605" type="line"/>
      <point x="421" y="6" type="line"/>
      <point x="444" y="6" type="line"/>
      <point x="444" y="-9" type="line" smooth="yes"/>
      <point x="444" y="-27"/>
      <point x="435" y="-47"/>
      <point x="418" y="-67" type="curve" smooth="yes"/>
      <point x="410" y="-75"/>
      <point x="402" y="-81"/>
      <point x="393" y="-85" type="curve" smooth="yes"/>
      <point x="383" y="-88"/>
      <point x="375" y="-90"/>
      <point x="367" y="-92" type="curve" smooth="yes"/>
      <point x="361" y="-93"/>
      <point x="356" y="-94"/>
      <point x="352" y="-94" type="curve" smooth="yes"/>
      <point x="347" y="-94"/>
      <point x="343" y="-94"/>
      <point x="340" y="-94" type="curve" smooth="yes"/>
      <point x="324" y="-93"/>
      <point x="308" y="-91"/>
      <point x="292" y="-88" type="curve" smooth="yes"/>
      <point x="275" y="-84"/>
      <point x="262" y="-81"/>
      <point x="253" y="-77" type="curve"/>
      <point x="253" y="-149" type="line"/>
      <point x="265" y="-153"/>
      <point x="278" y="-156"/>
      <point x="291" y="-158" type="curve" smooth="yes"/>
      <point x="303" y="-159"/>
      <point x="318" y="-160"/>
      <point x="336" y="-160" type="curve" smooth="yes"/>
      <point x="370" y="-160"/>
      <point x="399" y="-155"/>
      <point x="422" y="-145" type="curve" smooth="yes"/>
      <point x="444" y="-134"/>
      <point x="462" y="-121"/>
      <point x="476" y="-105" type="curve" smooth="yes"/>
      <point x="489" y="-89"/>
      <point x="498" y="-73"/>
      <point x="504" y="-58" type="curve" smooth="yes"/>
      <point x="509" y="-42"/>
      <point x="512" y="-25"/>
      <point x="512" y="-7" type="curve" smooth="yes"/>
    </contour>
  </outline>
</glyph>
